<?xml version="1.0" encoding="utf-8"?>
<!-- Generator: Adobe Illustrator 24.1.3, SVG Export Plug-In . SVG Version: 6.00 Build 0)  -->
<svg version="1.1" xmlns="http://www.w3.org/2000/svg" xmlns:xlink="http://www.w3.org/1999/xlink" x="0px" y="0px"
	 viewBox="0 0 1280 720" style="enable-background:new 0 0 1280 720;" xml:space="preserve">
<style type="text/css">
	.st0{fill:#FFFFFF;}
	.st1{fill:#FF0000;}
</style>
<g id="Color">
	<g>
		<g>
			<path class="st0" d="M264.12,207.51c8,7.16,15.66,14.68,22.89,22.62c3.62,3.96,7.13,8.02,10.53,12.17
				c1.61,1.96,3.2,3.95,4.77,5.95c-1.55-1.98,0.14,0.2,0.79,1.07c0.85,1.13,1.69,2.26,2.52,3.4c12.67,17.35,23.47,35.99,32.34,55.55
				c3.9,8.6,17.04,11.35,24.63,6.46c8.89-5.73,10.63-15.42,6.46-24.63c-18.57-40.95-45.97-78.07-79.48-108.04
				c-7.02-6.27-18.63-7.44-25.46,0C257.83,188.91,256.62,200.81,264.12,207.51L264.12,207.51z"/>
		</g>
	</g>
	<g>
		<g>
			<path class="st0" d="M300.94,221.22c1.34,0.28,2.57,0.69,3.88,1.04c1.82,0.49-1.93-1.12,0.86,0.5c2.22,1.29,4.49,2.47,6.69,3.81
				c2.16,1.32,4.28,2.7,6.37,4.14c1.25,0.86,2.48,1.76,3.7,2.66c1.4,1.03,1.23,1.02-0.03-0.04c8.05,6.74,15.23,13.93,21.96,22
				c1.79,2.15-2.4-3.36,0.42,0.58c0.74,1.03,1.49,2.05,2.21,3.09c1.45,2.08,2.84,4.2,4.17,6.35c2.66,4.31,5.09,8.76,7.26,13.34
				c0.54,1.14,1.05,2.3,1.58,3.45c-1.07-2.3-0.37-0.93,0.24,0.6c0.93,2.35,1.8,4.73,2.59,7.14c0.8,2.4,1.52,4.83,2.18,7.27
				c0.33,1.22,0.64,2.45,0.93,3.68c1.99,8.35-2.93-4.17,4.14-9.78c4.24-1.76,8.49-3.51,12.73-5.27c-0.43,0.05-0.85,0.1-1.28,0.15
				c3.03,0.82,6.06,1.64,9.08,2.46c1.05,0.48,4.5,6.11,2.27,2.19c-0.75-1.32-1.63-2.58-2.41-3.87c-1.42-2.34-2.8-4.71-4.13-7.1
				c-2.66-4.79-5.11-9.69-7.41-14.66c-3.96-8.57-17-11.38-24.63-6.46c-8.84,5.7-10.69,15.46-6.46,24.63
				c4.07,8.81,8.59,17.53,13.96,25.64c4.66,7.04,10.65,13.05,19.73,13.18c7.56,0.11,14.45-4.01,18.03-10.57
				c5.32-9.75,1.06-21.97-2.26-31.78c-2.84-8.4-6.38-16.66-10.53-24.5c-7.79-14.68-18.23-28.35-30.32-39.75
				c-6.44-6.07-13.47-11.62-20.81-16.57c-7.58-5.11-16.11-10.38-25.14-12.25c-9.19-1.91-19.89,2.68-22.14,12.57
				C286.31,208.08,291.08,219.17,300.94,221.22L300.94,221.22z"/>
		</g>
	</g>
	<g>
		<g>
			<path class="st0" d="M329.31,222.3c92.9,0.11,184.96,14.48,277.67,18.38c46.13,1.94,92.3,0.98,138.1-5.11
				c45.51-6.05,90.31-15.8,135.08-25.82c24.7-5.53,49.4-11.07,74.25-15.91c12.09-2.36,24.22-4.55,36.39-6.49
				c13.86-2.21,21.55-3.26,35.6-4.77c9.33-1,18.47-7.56,18-18c-0.4-8.89-7.97-19.07-18-18c-90.79,9.72-178.25,37.02-268.29,51.05
				c-5.3,0.83-10.61,1.62-15.93,2.33c2.67-0.36-0.47,0.05-0.85,0.1c-1.25,0.16-2.51,0.32-3.76,0.47c-3.13,0.39-6.27,0.75-9.41,1.09
				c-11.52,1.26-23.07,2.2-34.64,2.85c-23.31,1.3-46.67,1.43-70,0.79c-46.19-1.27-92.22-5.54-138.22-9.7
				c-51.88-4.69-103.85-9.2-155.99-9.26c-9.42-0.01-18.44,8.29-18,18C311.75,214.06,319.22,222.29,329.31,222.3L329.31,222.3z"/>
		</g>
	</g>
	<g>
		<g>
			<path class="st0" d="M1022.04,172.78c-0.09,12.05-0.17,24.09-0.26,36.14c6-6,12-12,18-18c-3.62-0.13,4.39,0.93,1.04,0.02
				c4.22,1.15,2.59,1.2,0.99,0.08c1.66,1.17,2.75,2.34,0.66,0.25c-0.61-0.61-1.18-1.25-1.75-1.9c-0.7-0.8-1.32-1.67-2.02-2.47
				c-1.45-1.66,2.45,3.18,0.5,0.65c-2.01-2.6-3.97-5.31-6.17-7.76c-10.17-11.34-25.34-14.65-39-7.38
				c-24,12.77-30.82,42.76-30.82,67.69c11.18-3.03,22.36-6.06,33.54-9.08c0.33,0.72,0.66,1.44,1,2.16c0,3.19,0,6.38,0,9.57
				c0.42-1.96,0.05-1.56-1.1,1.2c-0.39,1.58-1.3,2.68-2.74,3.3c1.04-0.12,3.71-2.22,4.57-2.71c3.13-1.81,6.27-3.63,9.4-5.44
				c6.55-3.79,13.11-7.58,19.66-11.37c6.63-3.84,10.7-12.83,8.27-20.33c-2.63-8.12-9.1-12.37-17.36-13.21
				c-28.95-2.98-58.88,1.15-85.93,11.9c6.78,8.81,13.55,17.63,20.33,26.44c0.99-2.01,0.06-0.43-0.79,0.44
				c2.88-2.95-2.15,1.58-0.27,0.01c0.31-0.25,2.8-2.03,0.75-0.6c-1.78,1.24,0.23-0.07,0.97-0.32c3.84-1.3,7.87-1.96,11.69-3.35
				c11.11-4.05,22.23-11.6,24.5-24.1c2.59-14.26-8.05-24.49-22.14-22.14c-37.08,6.19-70.2,29.37-90.26,60.9
				c8.21-2.15,16.42-4.31,24.63-6.46c3.36,2.53,5.27,6.1,5.74,10.7c0.07-1.93,0-1.5-0.21,1.31c0.49-3.21-1.9,2.51,0.1-0.39
				c2.11-3.07,4.22-6.15,6.39-9.18c5.09-7.12,10.19-14.23,15.28-21.35c8.01-11.19-2.73-27.44-15.54-27.08
				c-15.98,0.44-30.97,8.21-41.2,20.45c-10.28,12.31-15.88,26.99-21.07,41.99c5.79-4.4,11.57-8.81,17.36-13.21
				c2.72,0.15,5.11,1.22,7.16,3.22c-1.34-1.39-1.21-1.17,0.39,0.65c-0.93-1.77-0.85-1.55,0.23,0.68c-0.37-1.72-0.43-1.67-0.2,0.16
				c-1.11-5.5-0.87-11.09-2.83-16.42c-4.44-12.06-15.51-20.45-28.42-21.17c-11.23-0.62-22,5.46-27.13,15.5
				c-5.88,11.49-3.78,23.72,4.28,33.46c4.79,5.78,15.65,6.91,21.81,2.81c19.74-13.13,36.28-29.64,49.47-49.34
				c-8.21,2.15-16.42,4.31-24.63,6.46c-1.72-4.85-3.43-9.69-5.15-14.54c-1.55,9.25,2.43,19.83,12.57,22.14
				c8.7,1.98,20.48-2.64,22.14-12.57c1.67-9.99-1.15-21.59-11.39-26.12c-9.34-4.13-18.71-2.39-24.63,6.46
				c-1.38,2.06-2.79,4.1-4.26,6.1c-0.19,0.25-2.2,2.87-1.09,1.47c1.11-1.41-0.97,1.17-1.17,1.41c-3.15,3.83-6.49,7.5-10,11
				c-3.32,3.31-6.78,6.46-10.39,9.45c-0.85,0.7-1.71,1.39-2.57,2.08c1.44-1.15,0.78-0.59-0.29,0.2c-2.23,1.62-4.48,3.2-6.78,4.73
				c7.27,0.94,14.54,1.88,21.81,2.81c1.79,2.15,2.68,3.76,2.78,6.64c-0.12-3.66-1.16,3.83-0.02,0.3c-0.3,0.73-0.6,1.47-0.9,2.2
				c1.03-1.62,0.78-1.32-0.76,0.92c-0.65,0.67-4.88,2.54-3.33,2.08c1.36-0.34,0.81-0.25-1.65,0.27c-2.45-0.46-3-0.51-1.64-0.17
				c1.93,0.57-2.84-1.9-0.18,0c-3.79-2.71,0.74,1.97-1.99-1.85c-0.66-1.85-0.79-2.11-0.38-0.77c0.25,0.81,0.44,1.63,0.56,2.46
				c-0.67-3.17,0.03,1.05,0.14,2c0.28,2.44,0.53,4.91,1.02,7.32c0.71,3.49,2.07,6.93,3.87,10.01c4.97,8.51,13.67,13.79,23.53,13.96
				c8.31,0.14,14.78-5.76,17.36-13.21c0.93-2.68,1.85-5.37,2.83-8.04c0.49-1.33,0.99-2.67,1.51-3.99c0.22-0.57,1.79-4.04,0.47-1.2
				c2.29-4.91,4.8-9.53,7.87-14c1.63-2.36-2.66,2.74,0.66-0.66c0.73-0.75,1.43-1.53,2.18-2.26c-0.05,0.05,3.43-3.1,1.73-1.67
				c-1.71,1.44,1.59-1.07,1.98-1.32c1.09-0.68,2.29-1.21,3.38-1.88c2.01-1.25-3.5,0.91,0.67-0.21c0.99-0.26,1.96-0.54,2.96-0.78
				c4.6-1.12-3.45,0.12,1.32-0.01c-5.18-9.03-10.36-18.06-15.54-27.08c-7.06,9.86-15.22,19.54-21.36,29.99
				c-7.23,12.32-7.54,30.86,6.97,38.18c8.93,4.51,19.14,2.17,24.63-6.46c1.1-1.73,2.22-3.44,3.4-5.11c0.59-0.84,1.19-1.66,1.81-2.48
				c-1.26,1.61-1.26,1.62,0.02,0.02c2.33-2.73,4.65-5.44,7.17-7.99c2.88-2.93,5.97-5.58,9.06-8.28c1.6-1.28,1.59-1.29-0.03-0.04
				c0.82-0.62,1.64-1.23,2.47-1.83c1.45-1.05,2.93-2.06,4.43-3.04c3.21-2.1,6.53-4.04,9.93-5.82c1.82-0.95,3.68-1.79,5.51-2.7
				c1.89-0.83,1.87-0.84-0.08-0.02c0.71-0.29,1.42-0.58,2.14-0.85c7.41-2.87,15.08-4.91,22.91-6.22
				c-7.38-7.38-14.76-14.76-22.14-22.14c-0.41,2.25,0.17,0.35,0.7-0.72c-0.99,1.99-0.04,0.24,0.59-0.69
				c-1.19,1.78-0.7,0.01,0.58-0.43c-0.73,0.25-1.71,0.87-2.36,1.3c1.09-0.71,2.59-0.91,0.49-0.26c-0.87,0.27-1.72,0.55-2.6,0.8
				c-1.94,0.54-3.9,0.97-5.84,1.52c-9.96,2.84-20.01,8.14-24.78,17.82c-3.27,6.63-3.26,13.95,1.41,19.99
				c4.01,5.2,12.31,9.08,18.92,6.45c12.53-4.98,25.6-8.61,38.97-10.49c-2.55,0.36,0.6-0.05,1.6-0.15c1.52-0.16,3.05-0.3,4.58-0.42
				c3.67-0.29,7.34-0.46,11.02-0.5c6.75-0.09,13.48,0.27,20.19,0.96c-3.03-11.18-6.06-22.36-9.08-33.54
				c-9.69,5.6-19.38,11.21-29.06,16.81c-5.49,3.17-10.54,6.69-14.1,12.06c-4.7,7.09-4.85,16.4-0.53,23.68
				c9.08,15.29,33.54,8.87,33.54-9.08c0-4.79,0.21-9.57,0.8-14.32c-0.3,2.43-0.25,1.85,0.13-0.21c0.22-1.18,0.46-2.35,0.73-3.51
				c0.54-2.31,1.33-4.53,1.97-6.81c0.92-3.26-0.94,1.65,0.01-0.23c0.52-1.03,0.98-2.08,1.54-3.09c0.55-1,1.13-1.98,1.76-2.94
				c0.63-0.97,2.65-2.87,0.01-0.2c1.62-1.64,3.1-3.32,4.86-4.82c-1.96,1.67-0.93,1.1,0.52-0.08c0.91-0.49,0.88-0.51-0.09-0.05
				c-0.79,0.44-1.65,0.6-2.58,0.47c2.45-0.2-1.33-0.21-1.93-0.35c3.23,0.76-3.8-2.04-0.89-0.4c2.32,1.31-1.37-1.12-1.33-1.14
				c0.22-0.07,2.02,1.93,2.16,2.08c1.16,1.23,2.11,2.96,3.39,4.03c-0.54-0.44-2.32-3.01-0.83-1.08c1.26,1.64,2.52,3.3,3.81,4.92
				c6.74,8.47,15.45,14.16,26.53,14.57c9.78,0.36,17.93-8.54,18-18c0.09-12.05,0.17-24.09,0.26-36.14c0.07-9.42-8.33-18.43-18-18
				C1030.23,155.22,1022.11,162.68,1022.04,172.78L1022.04,172.78z"/>
		</g>
	</g>
	<g>
		<g>
			<path class="st0" d="M827.76,228.42c-30.27,4.13-62.8,8.54-95.47,11.46c-32.74,2.93-65.61,4.33-98.22,8.66
				c-17.17,2.28-34.17,5.38-51.18,8.64c-7.7,1.48-15.4,2.96-23.13,4.33c-3.86,0.69-7.73,1.35-11.6,1.97
				c-1.95,0.31-3.9,0.61-5.85,0.9c-1.3,0.19-2.61,0.38-3.91,0.57c-2.25,0.31-2.61,0.36-1.09,0.16c-32.43,4.39-65.47,6.85-98.16,8.17
				c-9.06,0.37-18.03,0.17-27.06-0.55c-5.91-0.47,2.63,0.88-1.69-0.23c-1.11-0.29-6.41-2.24-2.03-0.22
				c-2.96-1.37,1.22,1.24,1.77,2.23c0.65,0.99,0.92,2.08,0.81,3.27c-0.09-1.03-0.15-2.05-0.18-3.08
				c-0.86-18.41-0.62-36.93,0.02-55.34c-9.03,5.18-18.06,10.36-27.08,15.54c-2.32-1.41-3.82-4.25-3.9-6.93
				c0.29,9.4,8.07,18.44,18,18c9.51-0.43,18.31-7.92,18-18c-0.31-10.19-5.19-18.83-13.93-24.15c-12.04-7.33-26.62,2.24-27.08,15.54
				c-0.61,17.45-0.67,34.92-0.12,52.38c0.31,9.91,1.57,19.88,9.25,27.03c7.14,6.65,15.98,8.49,25.3,9.64
				c17.05,2.1,34.24,0.75,51.31-0.4c17.43-1.17,34.86-2.38,52.25-4.09c35.33-3.48,69.83-10.59,104.75-16.68
				c3.86-0.67,7.73-1.32,11.6-1.92c2.27-0.35,4.53-0.68,6.8-1.01c2.12-0.3,0.54-0.08,0.1-0.02c1.3-0.18,2.61-0.34,3.91-0.5
				c8.48-1.05,16.98-1.92,25.49-2.67c17.36-1.55,34.75-2.64,52.12-4c40.1-3.12,79.95-8.53,119.79-13.97
				c9.36-1.28,15.29-13.75,12.57-22.14C846.57,230.7,837.8,227.05,827.76,228.42L827.76,228.42z"/>
		</g>
	</g>
	<g>
		<g>
			<path class="st0" d="M358.7,239.17c28.15,26.51,59.23,50.01,92.47,69.77c5.52,3.28,12.64,3.23,18.17,0
				c5.93-3.47,8.2-9.03,8.92-15.54c1.96-17.97-11.5-32-22.81-44.01c-11.41-12.12-22.83-24.25-34.24-36.37
				c-5.54-5.88-14.97-6.62-21.81-2.81c-12.81,7.13-15.96,23.82-9.24,36.23c6.15,11.36,19.25,15.62,30.95,18.62
				c12.78,3.28,25.58,3.73,37.71-1.89c12.21-5.66,18.76-16.94,20.36-29.87c-12,0-24,0-36,0c0.27,7.52,0.54,15.03,0.81,22.55
				c9.03-5.18,18.06-10.36,27.08-15.54c-1.34-0.84-2.63-1.71-3.93-2.61c2.08,1.44,0.42,0.33-0.66-0.61
				c-2.18-1.91-4.14-3.99-6.08-6.13c-2.21-2.43,0.47,0.99-0.57-0.69c-0.69-1.11-1.49-2.16-2.18-3.27c-1.65-2.69-3.05-5.49-4.3-8.38
				c-10.36,6.06-20.72,12.11-31.08,18.17c12.13,22.26,27.05,42.97,44.07,61.75c6.09,6.73,19.47,7.25,25.46,0
				c4.07-4.92,7-9.73,9.47-15.58c1.05-2.49,2.06-5,3.08-7.5c1.08-2.66-1.74,3.15,0.42-0.77c0.47-0.85,0.95-1.69,1.41-2.54
				c0.9-1.66,0.79-1.06-0.28,0.1c0.63-0.68,1.4-1.35,1.96-2.07c-0.79,1.02-2.2,1.34-0.29,0.34c-2.03,0.73-2.41,0.9-1.13,0.53
				c0.96-0.24,0.89-0.24-0.23,0.01c-0.71-0.09-3.24-0.58-1.71,0.17c0.26,0.13,3.45,1.25,1.67,0.49c-1.78-0.76,1.44,0.79,1.74,0.95
				c1.32,0.69,2.61,1.42,3.89,2.19c2.04,1.23,4.03,2.55,5.97,3.92c0.97,0.69,1.94,1.4,2.89,2.11c-1.52-1.14-0.07-0.05,0.6,0.5
				c3.76,3.05,7.53,6.12,11.12,9.37c0.94,0.85,1.81,1.75,2.73,2.62c1.3,1.23,0.99,1.16,0.07-0.22c0.54,0.82,1,1.68,1.54,2.49
				c-0.82-1.24-0.72-2.18-0.3-0.18c-0.35-1.67-0.4-3.03-0.06-4.71c-0.56,2.77,0.76-0.7,1.21-1.7c0.86-0.97,0.96-1.11,0.31-0.42
				c-0.69,0.68-0.53,0.57,0.48-0.33c0.99-1.05,2.26-1.58,3.81-1.58c3.33-0.57,3.91-0.88,1.74-0.92c0,12,0,24,0,36
				c14.91,0.27,29.81,0.54,44.72,0.82c14.33,0.26,28.8,1.09,43.11,0.2c14.73-0.93,28.02-4.45,41.56-10.09
				c5.72-2.38,11.42-4.87,17.31-6.79c3.16-1.03,6.35-1.83,9.6-2.52c3.75-0.8-2.44-0.21,1.74-0.18c1.66,0.01,3.32-0.08,4.99-0.04
				c9.42,0.28,18.43-8.48,18-18c-0.47-10.56-7.93-16.99-18-18c-37.31-3.76-74.61,1.69-111.96,1.15c-8.1-0.12-16.2-0.5-24.24-1.43
				c-0.61-0.07-3.7-0.45-1.2-0.13c2.35,0.3-0.09-0.02-0.48-0.08c-1.68-0.27-3.35-0.52-5.02-0.82c-3.59-0.63-7.15-1.37-10.69-2.22
				c-6.81-1.63-13.53-3.69-20.07-6.21c-1.3-0.5-4.97-2.16-1.68-0.65c-1.52-0.69-3.04-1.37-4.54-2.1c-3.19-1.55-6.31-3.23-9.35-5.05
				c-3.22-1.93-6.26-4.07-9.31-6.25c3.43,2.45-0.94-0.83-1.78-1.56c-1.4-1.21-2.76-2.47-4.09-3.76c-1.49-1.46-2.93-2.96-4.32-4.52
				c-0.46-0.52-0.92-1.04-1.37-1.57c-0.33-0.39-2.74-3.49-1.21-1.44c1.34,1.8-0.07-0.12-0.27-0.42c-0.66-0.97-1.34-1.92-1.98-2.9
				c-1.17-1.78-2.25-3.61-3.29-5.46c-8.21,8.21-16.42,16.42-24.63,24.63c21.31,10.3,43.9,14.47,67.31,16.67
				c22.41,2.1,44.97,3.01,67.47,3.31c45.76,0.63,91.56-1.97,136.95-7.75c26.86-3.42,53.58-7.76,80.09-13.25
				c9.24-1.91,15.43-13.31,12.57-22.14c-3.16-9.77-12.25-14.62-22.14-12.57c-21.78,4.51-43.69,8.31-65.72,11.34
				c-3.62,0.5,4.26-0.54-1.92,0.26c-1.28,0.16-2.56,0.33-3.84,0.49c-2.56,0.32-5.12,0.64-7.68,0.94c-5.76,0.68-11.53,1.31-17.3,1.89
				c-10.9,1.1-21.82,2.01-32.76,2.73c-44.37,2.95-88.95,2.88-133.31-0.25c-5.62-0.4-11.25-0.85-16.85-1.44
				c-1.18-0.13-2.36-0.26-3.55-0.4c-0.89-0.1-1.77-0.21-2.66-0.32c1.55,0.21,1.67,0.23,0.37,0.04c-2.63-0.43-5.27-0.81-7.9-1.29
				c-5.8-1.07-11.55-2.4-17.2-4.1c-2.82-0.85-5.57-1.87-8.35-2.83c-0.42-0.15-3.21-1.25-0.61-0.18c-1.64-0.67-3.23-1.46-4.82-2.23
				c-7.01-3.39-16.15-3.35-21.81,2.81c-5.49,5.98-6.86,14.6-2.81,21.81c15.93,28.4,44.41,46.41,74.95,55.75
				c34.22,10.47,70.18,9.11,105.48,7.35c22.5-1.12,45.04-2.14,67.51,0.13c0-12,0-24,0-36c-14.14-0.42-27.22,4.13-40.07,9.49
				c-5.74,2.4-11.48,4.87-17.42,6.76c-3.42,1.09-6.86,1.84-10.36,2.6c-0.62,0.1-1.24,0.21-1.85,0.31c1.37-0.16,1.42-0.17,0.13-0.02
				c-1.88,0.17-3.75,0.36-5.63,0.48c-14.32,0.9-28.78,0.07-43.11-0.2c-14.91-0.27-29.81-0.54-44.72-0.82c-9.42-0.17-18.43,8.4-18,18
				c0.47,10.43,7.92,17.15,18,18c19.62,1.65,32.3-20.96,26.59-38.03c-5.11-15.29-20.64-25.95-33.11-35.05
				c-13.56-9.89-31.8-18.87-48-9.31c-6.7,3.95-12.2,10.18-15.71,17.09c-2.03,3.99-3.65,8.26-5.28,12.44
				c-0.48,1.19-0.41,1.02,0.22-0.51c-0.33,0.75-0.68,1.48-1.06,2.21c-0.38,0.74-3.45,5.15-1.21,2.44c8.49,0,16.97,0,25.46,0
				c-4-4.41-7.88-8.92-11.62-13.56c-0.75-0.93-1.49-1.86-2.22-2.8c1.67,2.12-0.71-0.93-0.99-1.31c-1.79-2.38-3.54-4.79-5.26-7.22
				c-6.7-9.49-12.79-19.38-18.34-29.58c-4.51-8.28-16.63-11.62-24.63-6.46c-9.01,5.81-10.46,15.34-6.46,24.63
				c6.21,14.43,17.38,26.34,30.63,34.61c11.37,7.1,27.57-2.06,27.08-15.54c-0.27-7.52-0.54-15.03-0.81-22.55
				c-0.34-9.4-8.04-18.45-18-18c-10.74,0.48-16.76,7.95-18,18c-0.16-1.1,0.04-2.09,0.61-2.99c0.54-1.09,0.58-1.19,0.11-0.3
				c-1.09,1.5,2.6-1.68,0,0.17c-2.74,1.95,1.89-0.69-0.14,0.24c-0.97,0.44-3.73,1.51-0.11,0.39c-0.9,0.28-1.78,0.57-2.69,0.82
				c-3.16,0.85,1.08,0.43-0.99,0.05c-1.38-0.26-2.98-0.02-4.42-0.15c2.62,0.24-0.25-0.1-1.38-0.34c-2.64-0.56-5.24-1.27-7.83-2.02
				c-1.31-0.38-2.63-0.76-3.93-1.18c-1.55-0.5-2.99-1.3-0.75-0.12c-0.83-0.44-2.94-2.56-1.97-1.04c1.02,1.61,2.12,1.86,2.68,4.1
				c0.23,0.93,0.07,3.68,0.2,1.24c-0.17,3.1-2.13,7.53-5.02,9.14c-7.27-0.94-14.54-1.88-21.81-2.81
				c10.07,10.7,20.14,21.39,30.21,32.09c4.59,4.88,9.21,9.72,13.61,14.76c1.25,1.43-0.99-1.77,0.63,0.96
				c0.83,1.4,1.66,2.72,2.39,4.17c-1.63-3.21,0.01,0.72,0.18,1.55c-0.63-3.13-0.33-0.27-0.51,1.38
				c9.03-5.18,18.06-10.36,27.08-15.54c-15.72-9.34-30.94-19.49-45.56-30.46c-0.49-0.37-5.03-3.82-2.79-2.09
				c-1.9-1.46-3.78-2.95-5.65-4.45c-3.51-2.81-6.98-5.66-10.42-8.56c-7.1-6-14.01-12.2-20.77-18.57c-6.86-6.46-18.75-7.31-25.46,0
				C352.26,220.72,351.38,232.27,358.7,239.17L358.7,239.17z"/>
		</g>
	</g>
	<g>
		<g>
			<path class="st1" d="M714.94,516.77c18.53-3.69,35.75-11.84,52.82-19.67c8.16-3.75,16.36-7.43,24.59-11.02
				c4.13-1.8,8.27-3.58,12.41-5.35c3.41-1.45,1.79-0.76,1.03-0.44c0.89-0.37,1.78-0.75,2.67-1.12c2.37-0.99,4.75-1.98,7.13-2.96
				c17.26-7.1,34.65-13.86,52.18-20.27c15.61-5.71,31.5-10.77,46.62-17.72c16.4-7.54,31.38-18.76,40.49-34.63
				c7.94-13.83-5.15-30.22-20.33-26.44c-69.44,17.28-136.85,42.34-200.9,74.22c-8.45,4.21-11.48,16.83-6.46,24.63
				c5.57,8.64,15.59,10.96,24.63,6.46c32.08-15.97,59.96-28.03,92.88-40.12c32.56-11.96,65.76-22.1,99.42-30.48
				c-6.78-8.81-13.55-17.63-20.33-26.44c-0.84,1.47-1.85,2.84-2.69,4.31c-0.98,1.71,0.5-0.57,0.67-0.77
				c-0.46,0.55-0.91,1.1-1.38,1.64c-2.36,2.71-4.99,5.06-7.74,7.38c2.38-2.01,0.21-0.21-0.99,0.61c-1.4,0.96-2.84,1.87-4.3,2.74
				c-2.96,1.77-6.01,3.38-9.12,4.87c-1.57,0.75-3.18,1.44-4.76,2.17c3.17-1.47-0.75,0.3-1.94,0.77c-3.25,1.29-6.53,2.5-9.82,3.68
				c-7.84,2.82-15.71,5.55-23.54,8.41c-34.09,12.47-67.71,26.26-100.78,41.22c-4.59,2.07-9.16,4.19-13.73,6.28
				c-1.97,0.9-3.94,1.8-5.92,2.67c-1.13,0.5-2.26,1-3.4,1.49c-0.7,0.31-2.6,1.08-0.83,0.35c-9.14,3.74-18.47,6.88-28.17,8.81
				c-9.25,1.84-15.41,13.36-12.57,22.14C695.98,514.03,705.02,518.74,714.94,516.77L714.94,516.77z"/>
		</g>
	</g>
</g>
<g id="Layer_1">
	<g>
		<g>
			<path d="M284.27,495.99c9.42,0,18.44-8.28,18-18c-0.44-9.75-7.91-18-18-18c-9.42,0-18.44,8.28-18,18
				C266.71,487.74,274.18,495.99,284.27,495.99L284.27,495.99z"/>
		</g>
	</g>
	<g>
		<g>
			<path d="M161.56,163.81c114.17,33.86,233.12,49.96,351.98,53.71c118.43,3.74,236.96-4.61,354.49-18.77
				c67.03-8.08,133.82-17.99,200.45-28.83c9.32-1.52,15.34-13.58,12.57-22.14c-3.27-10.1-12.15-14.2-22.14-12.57
				c-116.93,19.03-229.37,34.66-348.56,42.45c-116.74,7.63-233.83,6.4-349.97-8.33c-3.5-0.44,4.25,0.59-1.67-0.22
				c-2.46-0.34-4.91-0.68-7.37-1.03c-4.3-0.61-8.59-1.24-12.88-1.89c-7.97-1.21-15.93-2.49-23.87-3.84
				c-15.9-2.71-31.75-5.71-47.54-9.02c-32.29-6.76-64.3-14.83-95.93-24.21c-9.02-2.68-20.01,3.22-22.14,12.57
				C146.79,151.34,151.9,160.94,161.56,163.81L161.56,163.81z"/>
		</g>
	</g>
	<g>
		<g>
			<path d="M1045.81,152.57c2.17,6.56,3.99,13.21,5.39,19.97c0.67,3.23,1.22,6.47,1.73,9.73c0.13,0.81,0.36,3.53-0.03-0.27
				c0.08,0.75,0.18,1.51,0.26,2.26c0.19,1.76,0.36,3.52,0.51,5.28c0.55,6.8,0.72,13.62,0.53,20.44c-0.09,3.29-0.26,6.57-0.52,9.85
				c-0.14,1.77-0.3,3.53-0.48,5.3c-0.08,0.76-0.16,1.51-0.25,2.27c-0.06,0.49-0.63,4.71-0.26,2.14c0.31-2.12-0.35,2.2-0.47,2.89
				c-0.29,1.76-0.59,3.52-0.92,5.27c-0.66,3.51-1.41,7.01-2.24,10.49c-1.61,6.74-3.53,13.42-5.73,19.99
				c-1.06,3.18-2.19,6.34-3.39,9.48c-0.55,1.45-1.12,2.9-1.7,4.34c-0.39,0.96-0.78,1.92-1.18,2.88c0.65-1.58,0.68-1.57-0.02-0.01
				c-2.86,6.42-5.89,12.74-9.22,18.93c-6.66,12.41-14.29,24.29-22.76,35.54c-0.3,0.4-2.31,3-0.97,1.28
				c1.24-1.58-0.37,0.46-0.52,0.64c-0.98,1.22-1.95,2.44-2.94,3.64c-2.3,2.81-4.66,5.57-7.08,8.29c-4.92,5.54-10.07,10.86-15.4,16
				c-5.41,5.22-11,10.26-16.75,15.12c-2.76,2.33-5.55,4.63-8.38,6.88c-0.7,0.56-3.87,3.04-1.61,1.29c-1.76,1.36-3.54,2.69-5.32,4.01
				c-12.07,8.94-24.65,17.2-37.58,24.85c-13,7.7-26.36,14.8-39.94,21.43c-6.82,3.33-13.7,6.54-20.62,9.65
				c-3.34,1.5-6.69,2.97-10.05,4.43c-1.81,0.78-3.62,1.56-5.44,2.33c-1.91,0.82,0.09-0.04,0.41-0.17c-1.04,0.43-2.08,0.87-3.12,1.3
				c-29.54,12.25-59.65,23.36-90.03,33.34c-16.3,5.35-32.76,10.22-49.48,14.11c-8.34,1.94-16.75,3.64-25.2,5.03
				c-2.21,0.36-4.43,0.7-6.65,1.03c-2.12,0.31-0.45,0.08-0.02,0.02c-0.96,0.13-1.93,0.25-2.89,0.37c-4.81,0.59-9.64,1.09-14.47,1.5
				c-34.75,2.95-69.76,1.54-104.49-1.13c-17.15-1.32-34.27-3.04-51.34-5.17c-2.21-0.28-4.42-0.56-6.64-0.85
				c-2.13-0.28-0.37-0.04,0.05,0.01c-0.95-0.13-1.89-0.26-2.84-0.39c-4.42-0.61-8.83-1.25-13.24-1.91
				c-8.5-1.28-16.99-2.66-25.47-4.15c-34.2-5.98-68.12-13.6-101.59-22.82c-8.29-2.28-16.55-4.67-24.79-7.15
				c-9.02-2.71-20.02,3.24-22.14,12.57c-2.21,9.7,2.92,19.24,12.57,22.14c69,20.72,139.94,34.52,211.62,41.62
				c35.8,3.54,71.96,5.85,107.94,4.46c36.6-1.41,72.57-7.7,107.68-18.05c32.27-9.51,64.02-21.18,95.3-33.54
				c30.18-11.93,60.01-24.99,88.47-40.63c54.75-30.08,104.9-70.32,138.15-123.87c31.79-51.21,47.82-113.36,35.75-173.14
				c-1.42-7.02-3.3-13.92-5.55-20.72c-2.95-8.92-12.56-15.67-22.14-12.57C1049.49,133.3,1042.64,143,1045.81,152.57L1045.81,152.57z
				"/>
		</g>
	</g>
	<g>
		<g>
			<path d="M321.14,476.22c-8.56-5.48-18.21-9.53-28.12-11.77c-9.16-2.07-19.91,2.79-22.14,12.57c-2.08,9.14,2.75,19.93,12.57,22.14
				c2.11,0.48,4.21,1,6.28,1.65c0.58,0.18,5.64,2.02,3.94,1.33c-1.69-0.69,3.18,1.56,3.72,1.85c1.91,1.02,3.76,2.14,5.58,3.31
				c7.94,5.09,20.21,1.9,24.63-6.46C332.31,491.93,329.62,481.65,321.14,476.22L321.14,476.22z"/>
		</g>
	</g>
	<g>
		<g>
			<path d="M166.35,162.2c10.64,5.42,21.01,11.36,31.03,17.84c5.01,3.24,9.94,6.62,14.77,10.12c2.2,1.59,4.37,3.22,6.54,4.85
				c4.29,3.23-2.68-2.2,1.5,1.17c1.27,1.02,2.55,2.03,3.81,3.06c18.52,15.07,35.48,32.05,50.52,50.6c1.02,1.26,2.03,2.54,3.05,3.82
				c3.35,4.2-2.04-2.8,1.16,1.51c1.62,2.18,3.25,4.35,4.83,6.55c3.58,4.98,7.03,10.05,10.32,15.22c3.52,5.53,6.86,11.19,9.87,17.02
				c1.37,2.65,2.63,5.33,3.88,8.04c2.4,5.21-1.05-3.1,0.94,2.28c0.62,1.68,1.26,3.34,1.83,5.03c2.25,6.6,3.92,13.39,5.25,20.23
				c1.48,7.64,2,11.78,2.72,17.83c1.7,14.31,3.01,28.66,3.98,43.04c2.2,32.73,2.47,65.56,0.94,98.33c-0.44,9.42,8.59,18.42,18,18
				c10.13-0.45,17.53-7.91,18-18c1.41-30.14,1.29-60.34-0.45-90.47c-0.87-15.06-2.14-30.1-3.8-45.09
				c-1.69-15.16-3.45-30.48-7.44-45.24c-7.19-26.61-22.21-50.48-38.77-72.22c-15.6-20.48-32.94-39.42-52.5-56.18
				c-21.99-18.85-46.01-35.26-71.81-48.41c-8.38-4.27-19.91-2.47-24.63,6.46C155.55,145.78,157.39,157.63,166.35,162.2L166.35,162.2
				z"/>
		</g>
	</g>
	<g>
		<g>
			<path d="M331.88,335.23c97.11,7.36,194.72,3.08,291.34-8.42c98.16-11.69,195.31-30.32,291.79-51.65
				c53.55-11.84,106.92-24.48,160.28-37.15c9.17-2.18,15.49-13.12,12.57-22.14c-3.09-9.55-12.32-14.9-22.14-12.57
				c-94.69,22.49-189.45,44.88-285.11,62.87c-24.04,4.52-48.14,8.76-72.29,12.64c-11.9,1.91-23.81,3.74-35.73,5.47
				c-5.8,0.84-11.59,1.66-17.4,2.46c-1.29,0.18-2.58,0.35-3.87,0.53c2.7-0.36-1.37,0.18-1.98,0.26c-3.55,0.47-7.09,0.93-10.64,1.38
				c-47.63,6.05-95.48,10.43-143.45,12.56c-54.45,2.42-109.02,1.89-163.38-2.23c-9.41-0.71-18.41,8.79-18,18
				C314.35,327.6,321.8,334.47,331.88,335.23L331.88,335.23z"/>
		</g>
	</g>
	<g>
		<g>
			<path d="M677.69,530.28c1.49-2.16,3-4.3,4.55-6.41c0.93-1.27,1.87-2.53,2.83-3.78c-2,2.61-0.32,0.42,0.09-0.08
				c3.66-4.47,7.35-8.9,11.25-13.17c7.47-8.19,15.47-15.89,23.87-23.13c2.01-1.73,4.05-3.44,6.1-5.12c1.03-0.84,2.07-1.68,3.11-2.5
				c0.66-0.52,3.45-2.7,0.76-0.63c4.66-3.59,9.43-7.04,14.28-10.36c9.32-6.39,18.96-12.33,28.83-17.83
				c9.69-5.4,19.61-10.38,29.7-14.98c2.22-1.01,4.44-2,6.68-2.97c0.37-0.16,5.32-2.25,1.67-0.73c1.07-0.45,2.15-0.89,3.22-1.33
				c6.32-2.58,12.7-5.03,19.13-7.35c24.6-8.9,49.84-15.95,75.32-21.83c28.67-6.62,57.66-11.78,86.7-16.47
				c9.32-1.51,15.34-13.59,12.57-22.14c-3.27-10.11-12.15-14.19-22.14-12.57c-101.11,16.34-204.96,40.25-285.91,106.76
				c-20.57,16.9-38.58,36.56-53.7,58.47c-5.36,7.77-1.7,20.32,6.46,24.63C662.23,541.58,671.97,538.57,677.69,530.28L677.69,530.28z
				"/>
		</g>
	</g>
	<g>
		<g>
			<path d="M344.99,347.34c-0.42,45.8,1.15,91.6,4.69,137.27c0.73,9.37,7.76,18.46,18,18c10.12-0.45,17.54-7.91,18-18
				c2.33-51.37,6.84-102.62,13.52-153.61c-12,0-24,0-36,0c1.12,56.34,2.23,112.69,3.35,169.03c0.18,8.99,6.71,16.48,15.61,17.68
				c7.9,1.06,18.52-4.02,19.75-12.89c7.79-56.26,15.58-112.52,23.36-168.78c-11.79-1.6-23.57-3.19-35.36-4.79
				c-4.71,60.71-9.34,121.67-4.83,182.54c0.67,9.01,6.34,16.43,15.61,17.68c8.89,1.19,17.17-4.23,19.75-12.89
				c16.98-56.94,23.24-117.23,17.99-176.42c-12,0-24,0-36,0c6.32,59.68,12.64,119.36,18.96,179.04c0.99,9.33,7.57,18.47,18,18
				c10.47-0.47,17.1-7.93,18-18c5.1-57.13,10.2-114.26,15.3-171.39c0.84-9.4-8.88-18.41-18-18c-10.65,0.48-16.87,7.94-18,18
				c-5.28,47-1.96,94.27,1.46,141.27c12,0,24,0,36,0c-2.14-25.54-4.28-51.08-6.43-76.62c-2.08-24.75-3.82-49.99-11.72-73.7
				c-2.97-8.92-12.55-15.68-22.14-12.57c-9.67,3.13-14.75,12.28-12.57,22.14c5.76,26.05,11.53,52.09,17.29,78.14
				c2.85,12.86,5.69,25.72,8.54,38.59c1.42,6.43,2.85,12.86,4.27,19.29c0.71,3.22,1.42,6.43,2.13,9.65
				c0.09,0.43,0.66,4.72,1.07,4.82c-0.04-0.61-0.08-1.22-0.11-1.83c-0.01-5.66,3.34-9.69,10.07-12.08c3.19,0,6.38,0,9.57,0
				c-0.2-0.08-0.39-0.15-0.59-0.23c2.65,1.54,5.3,3.09,7.94,4.63c-0.17-0.22-0.35-0.43-0.52-0.65
				c-5.84,10.03-11.68,20.06-17.51,30.08c59.99,16.76,123.4,18.47,184.3,5.56c9.22-1.95,15.44-13.28,12.57-22.14
				c-3.15-9.74-12.26-14.67-22.14-12.57c-7.04,1.49-14.12,2.81-21.24,3.89c-0.93,0.14-1.86,0.28-2.79,0.41
				c-2.04,0.29-2.48,0.35-1.33,0.19c1.79-0.24-2.79,0.34-3.2,0.39c-3.73,0.44-7.47,0.82-11.21,1.15
				c-14.35,1.24-28.76,1.63-43.16,1.17c-6.88-0.22-13.76-0.63-20.62-1.24c-3.74-0.33-7.48-0.72-11.21-1.17c0,0-5.78-0.77-2.66-0.33
				c-1.86-0.26-3.72-0.54-5.57-0.83c-14.23-2.23-28.3-5.33-42.18-9.21c-7.39-2.06-16.64,1.3-20.33,8.27
				c-4.03,7.62-2.44,15.31,2.81,21.81c8.67,10.72,25.24,6.18,31.48-4.47c5.38-9.18,2.77-18.46,0.63-28.11
				c-3.49-15.76-6.97-31.51-10.46-47.27c-7.04-31.83-14.09-63.67-21.13-95.5c-11.57,3.19-23.14,6.38-34.71,9.57
				c1.86,5.57,3.41,11.22,4.66,16.96c0.59,2.72,1.12,5.45,1.59,8.19c0.27,1.52,0.51,3.05,0.75,4.58c0.05,0.31,0.55,3.73,0.34,2.21
				c-0.26-1.85,0.34,2.74,0.39,3.14c0.18,1.54,0.35,3.08,0.52,4.62c0.3,2.78,0.57,5.56,0.82,8.34c0.55,6.02,1.04,12.05,1.55,18.08
				c2.09,24.88,4.17,49.75,6.26,74.63c0.79,9.36,7.72,18.46,18,18c9.17-0.41,18.73-7.94,18-18c-3.42-47-6.73-94.27-1.46-141.27
				c-12,0-24,0-36,0c-5.1,57.13-10.2,114.26-15.3,171.39c12,0,24,0,36,0c-6.32-59.68-12.64-119.36-18.96-179.04
				c-0.99-9.33-7.57-18.47-18-18c-9.04,0.4-18.89,7.96-18,18c2.53,28.52,2.45,57.22-0.37,85.71c-0.34,3.44-0.72,6.88-1.14,10.31
				c0-0.01-0.76,5.78-0.33,2.7c-0.21,1.56-0.44,3.11-0.67,4.67c-1.07,7.15-2.31,14.28-3.71,21.37
				c-2.81,14.19-6.34,28.23-10.47,42.09c11.79,1.6,23.57,3.19,35.36,4.79c-4.5-60.87,0.12-121.83,4.83-182.54
				c0.69-8.91-7.38-16.57-15.61-17.68c-7.9-1.06-18.52,4.02-19.75,12.89c-7.79,56.26-15.58,112.52-23.36,168.78
				c11.79,1.6,23.57,3.19,35.36,4.79c-1.12-56.34-2.23-112.69-3.35-169.03c-0.19-9.41-8.15-18.44-18-18c-10.8,0.48-16.69,7.95-18,18
				c-6.67,50.99-11.18,102.24-13.52,153.61c12,0,24,0,36,0c-3.54-45.67-5.11-91.47-4.69-137.27c0.09-9.42-8.34-18.43-18-18
				C353.17,329.78,345.08,337.25,344.99,347.34L344.99,347.34z"/>
		</g>
	</g>
	<g>
		<g>
			<path d="M478.06,364.27c38.67-3.21,77.43-0.66,116.16-0.68c39.02-0.02,77.57-3.74,114.95-15.37
				c35.85-11.15,70.32-25.18,107.45-31.85c36.97-6.64,74.7-9.51,110.78-20.46c20.41-6.2,40.17-14.37,60.75-20.01
				c21.13-5.79,42.8-9.21,64.42-12.63c-3.19-11.57-6.38-23.14-9.57-34.71C956.05,256,867.27,277.58,777.4,293.02
				c-22.39,3.85-44.84,7.32-67.34,10.4c-1.27,0.17-2.54,0.35-3.8,0.52c2.8-0.38-1.22,0.16-1.87,0.25c-2.54,0.33-5.08,0.66-7.61,0.99
				c-6.03,0.77-12.06,1.52-18.1,2.23c-11.08,1.32-22.17,2.52-33.26,3.67c-38.98,4.06-78.19,8.36-114.43,24.19
				c-9.28,4.05-18.19,8.95-26.39,14.9c-9.73,7.05-20.48,15.24-26.44,25.95c-7.04,12.65-5.41,26.97-4.32,40.81
				c1.12,14.17,2.89,28.29,5.09,42.34c11.57-3.19,23.14-6.38,34.71-9.57c-9.64-30.69-19.28-61.37-28.91-92.06
				c-2.29-7.3-9.32-13.58-17.36-13.21c-7.66,0.34-15.59,5.3-17.36,13.21c-4.88,21.87-6.83,44.37-5.22,66.72
				c0.42,5.87,3.01,12.94,8.92,15.54c8.63,3.81,16.66,3.73,24.26-2.14c5.18-4,7.87-9.64,10.87-15.26
				c5.46-10.22,10.92-20.45,16.38-30.67c10.76-20.15,21.53-40.31,32.29-60.46c-10.97-4.62-21.93-9.25-32.9-13.87
				c-5.24,22.58-11.55,44.89-18.99,66.85c-3.62,10.68-7.49,21.27-11.62,31.76c-4.58,11.64-7.49,18.43-12.89,30.28
				c11.18,3.03,22.36,6.06,33.54,9.08c0.58-5.16-0.48,2.02,0.11-0.91c0.27-1.34,0.45-2.7,0.72-4.04c0.53-2.68,1.16-5.35,1.89-7.98
				c0.73-2.64,1.56-5.25,2.48-7.82c0.46-1.29,0.98-2.55,1.45-3.84c1.02-2.78-1.77,3.68,0.45-0.98c2.24-4.7,4.66-9.28,7.48-13.67
				c0.74-1.15,1.49-2.29,2.27-3.41c-0.07,0.1,2.71-3.78,1.5-2.15c-1.26,1.7,1.4-1.72,1.66-2.03c1.05-1.26,2.14-2.48,3.24-3.7
				c-10.24-4.24-20.49-8.49-30.73-12.73c-0.09,14.47-0.9,28.92-2.53,43.3c-0.18,1.6-0.37,3.19-0.57,4.79
				c-0.77,6.25,0.53-3.37-0.39,2.86c-0.52,3.5-1.06,6.99-1.66,10.47c-1.26,7.29-2.73,14.53-4.37,21.74
				c-2.09,9.16,2.8,19.92,12.57,22.14c10.13,2.31,18.71-3.08,22.14-12.57c12.91-35.75,26.95-67.47,45.3-102.1
				c-10.97-4.62-21.93-9.25-32.9-13.87c-3.1,7.44-5.26,12.54-8.89,20.92c-3.37,7.78-6.79,15.54-10.27,23.28
				c-6.95,15.47-14.12,30.85-21.47,46.13c10.97,4.62,21.93,9.25,32.9,13.87c3.11-10.09,6.53-20.08,10.33-29.94
				c0.98-2.53,1.97-5.06,2.99-7.57c0.45-1.12,0.91-2.23,1.38-3.35c-0.74,1.78-0.06,0.13,0.3-0.7c2.15-4.99,4.38-9.94,6.7-14.85
				c9.03-19.1,19.43-37.51,31.02-55.17c-10.97-4.62-21.93-9.25-32.9-13.87c-2.48,16.41-6.19,32.61-11.22,48.43
				c-2.47,7.77-5.3,15.39-8.32,22.96c-1.48,3.73,0.49-0.99-0.99,2.37c-0.98,2.21-1.95,4.41-2.96,6.6
				c-1.78,3.83-3.64,7.62-5.56,11.38c10.36,6.06,20.72,12.11,31.08,18.17c8.94-18.46,17.87-36.92,26.81-55.38
				c4.32-8.93,8.65-17.86,12.97-26.8c1.96-4.05,3.98-8.01,6.13-11.95c1.15-1.65,1.03-1.56-0.34,0.29c0.58-0.68,1.2-1.32,1.86-1.92
				c-1.02,1.08-2.26,1.75-3.72,2.01c3.06-0.74,1.48-0.84-4.73-0.28c-4.19-7.38-8.38-14.76-12.57-22.14
				c-16.43,46.2-32.85,92.4-49.28,138.61c11.57,3.19,23.14,6.38,34.71,9.57c5.88-36.28,15.1-71.92,27.58-106.49
				c-11.57-3.19-23.14-6.38-34.71-9.57c-4.65,18.49-9.99,36.79-16.09,54.85c-3.05,9.03-6.28,18-9.69,26.9
				c-1.59,4.15-3.22,8.29-4.89,12.41c-0.95,2.36-1.92,4.71-2.9,7.05c-0.84,2.02-0.98,2.34-0.41,0.97c-0.5,1.17-1,2.34-1.51,3.5
				c-3.72,8.62-2.85,19.71,6.46,24.63c7.88,4.16,20.48,2.7,24.63-6.46c19.57-43.24,39.13-86.48,58.7-129.73
				c3.87-8.56,2.74-19.77-6.46-24.63c-8.53-4.51-19.67-2.29-24.63,6.46c-17.06,30.12-30.8,62.2-40.89,95.32
				c-2.62,8.6,2.43,17.86,10.42,21.23c8.46,3.57,17.53,0.22,22.48-7.36c21.64-33.19,43.28-66.37,64.93-99.56
				c-10.97-4.62-21.93-9.25-32.9-13.87c-6.03,21.44-12.76,42.67-20.26,63.64c-3.64,10.18-7.46,20.31-11.44,30.36
				c-2.11,5.32-4.27,10.63-6.48,15.91c-0.23,0.55-1.14,2.7-0.41,0.98c-0.5,1.17-1,2.34-1.5,3.51c-1.26,2.92-2.53,5.84-3.81,8.75
				c11.18,3.03,22.36,6.06,33.54,9.08c0.06-0.63,0.94-7.5,0.47-4.35c0.27-1.82,0.57-3.64,0.89-5.45c0.75-4.23,1.66-8.43,2.7-12.59
				c2.1-8.34,4.81-16.48,8.02-24.46c-11.57-3.19-23.14-6.38-34.71-9.57c-7.27,27.02-14.53,54.04-21.8,81.06
				c-2.44,9.08,3.05,19.97,12.57,22.14c9.47,2.16,19.53-2.84,22.14-12.57c7.27-27.02,14.53-54.04,21.8-81.06
				c2.44-9.08-3.05-19.97-12.57-22.14c-10.41-2.37-18.37,3.19-22.14,12.57c-7.29,18.14-11.39,36.99-13.36,56.41
				c-0.76,7.47,6.1,15.74,13.21,17.36c7.17,1.63,17.07-0.87,20.33-8.27c18.84-42.8,34.87-86.73,47.53-131.75
				c2.44-8.67-2.3-17.81-10.42-21.23c-8.46-3.57-17.53-0.22-22.48,7.36c-21.64,33.19-43.28,66.37-64.93,99.56
				c10.97,4.62,21.93,9.25,32.9,13.87c2.32-7.62,4.81-15.19,7.53-22.68c1.46-4.03,2.98-8.04,4.56-12.03
				c0.68-1.71,1.36-3.41,2.06-5.12c0.46-1.13,0.93-2.27,1.41-3.4c-0.5,1.2-0.5,1.22-0.01,0.07c6.46-14.91,13.71-29.44,21.72-43.57
				c-10.36-6.06-20.72-12.11-31.08-18.17c-19.57,43.24-39.13,86.48-58.7,129.73c10.36,6.06,20.72,12.11,31.08,18.17
				c16-37.07,29.26-75.12,39.11-114.28c2.29-9.12-2.95-19.95-12.57-22.14c-10.13-2.31-18.72,3.07-22.14,12.57
				c-12.47,34.57-21.7,70.21-27.58,106.49c-1.5,9.26,2.39,19.82,12.57,22.14c10.09,2.3,18.76-3.06,22.14-12.57
				c16.43-46.2,32.85-92.4,49.28-138.61c3-8.43-3.44-20.73-12.57-22.14c-7.5-1.16-14.25-0.82-20.9,3.16
				c-5.33,3.19-9.5,8.12-12.83,13.28c-5.93,9.2-10.01,19.97-14.78,29.81c-10.38,21.44-20.76,42.88-31.14,64.31
				c-4.1,8.46-2.59,19.85,6.46,24.63c8.22,4.34,20.06,2.5,24.63-6.46c16.1-31.53,27.4-65.32,32.68-100.34
				c1.36-8.99-1.51-17.47-10.42-21.23c-8.48-3.58-17.5-0.21-22.48,7.36c-24.35,37.11-43.28,77.77-56.35,120.18
				c-2.65,8.59,2.45,17.87,10.42,21.23c7.67,3.24,18.58,0.73,22.48-7.36c15.67-32.56,30.36-65.57,44.26-98.93
				c3.44-8.25-3.06-18.13-10.42-21.23c-7.91-3.34-18.26-0.59-22.48,7.36c-18.9,35.67-35.22,72.73-48.93,110.7
				c11.57,3.19,23.14,6.38,34.71,9.57c6.93-30.38,10.62-61.56,10.82-92.73c0.09-15.04-20.11-24.48-30.73-12.73
				c-19.37,21.43-30.57,47.39-33.8,75.99c-0.84,7.45,6.16,15.75,13.21,17.36c7.24,1.65,16.97-0.9,20.33-8.27
				c20.16-44.21,36.14-90.14,47.13-137.48c2.04-8.8-2.01-17.68-10.42-21.23c-7.93-3.35-18.23-0.58-22.48,7.36
				c-9.05,16.94-18.1,33.88-27.14,50.82c-4.37,8.18-8.74,16.36-13.1,24.54c-2.18,4.09-4.37,8.18-6.55,12.27
				c-1.25,2.34-2.5,4.67-3.74,7.01c-0.62,1.17-1.25,2.34-1.87,3.51c-2.92,4.37,0.36,2.87,9.84-4.51c3.03,0.82,6.06,1.64,9.08,2.46
				c-0.35-0.16-0.71-0.31-1.06-0.47c2.97,5.18,5.94,10.36,8.92,15.54c-0.72-10.06-0.8-20.14-0.1-30.2c0.17-2.51,0.39-5.02,0.66-7.53
				c0.13-1.25,0.28-2.5,0.43-3.75c-0.23,1.66-0.19,1.39,0.13-0.83c0.8-4.98,1.72-9.92,2.81-14.84c-11.57,0-23.14,0-34.71,0
				c9.64,30.69,19.28,61.37,28.91,92.06c2.82,8.97,12.66,15.64,22.14,12.57c10.15-3.28,14.13-12.14,12.57-22.14
				c-0.4-2.56-0.78-5.11-1.15-7.67c-0.9-6.18,0.2,1.69-0.26-1.94c-0.16-1.28-0.32-2.57-0.48-3.85c-0.69-5.78-1.28-11.57-1.76-17.37
				c-0.43-5.15-0.78-10.32-1.03-15.48c-0.14-2.76-0.38-5.63-0.09-8.4c-0.1,0.96-0.69,2.65,0.31-0.66c-0.71,2.36-0.37,0.69,0.46-0.7
				c0.49-0.81,2.65-3.32,0.46-0.83c0.7-0.8,1.42-1.58,2.17-2.35c1.46-1.5,3.01-2.92,4.57-4.32c1.53-1.37,3.14-2.64,4.7-3.97
				c-2.56,2.18-0.6,0.44-0.01,0.01c1.23-0.9,2.46-1.79,3.72-2.66c7.1-4.89,14.68-8.94,22.51-12.53c3.11-1.43,0.53-0.25-0.1,0.01
				c0.94-0.39,1.89-0.77,2.83-1.14c1.9-0.75,3.81-1.46,5.74-2.14c4.36-1.55,8.78-2.94,13.24-4.19c8.79-2.47,17.72-4.43,26.71-6.05
				c4.41-0.8,8.83-1.51,13.27-2.17c1.14-0.17,6.95-0.98,3.06-0.46c2.36-0.32,4.71-0.61,7.07-0.9c9.11-1.11,18.25-2.06,27.38-3.01
				c88.24-9.18,175.89-23.7,262.24-44.11c48.26-11.41,96.08-24.61,143.37-39.53c8.97-2.83,15.64-12.65,12.57-22.14
				c-3.28-10.13-12.15-14.15-22.14-12.57c-19.07,3.02-38.18,6.04-56.94,10.69c-18.37,4.55-36.05,11.21-53.94,17.31
				c-35.9,12.24-72.94,16.77-110.24,22.62c-18.5,2.9-36.86,6.5-54.83,11.82c-17.42,5.16-34.47,11.5-51.67,17.34
				c-17.59,5.98-35.39,11.37-53.71,14.61c-2.19,0.39-4.39,0.75-6.59,1.09c-1.26,0.19-2.51,0.38-3.77,0.55
				c0.83-0.11,2.87-0.34-0.88,0.1c-4.73,0.56-9.47,1.04-14.22,1.42c-9.52,0.76-19.06,1.17-28.6,1.35
				c-43.19,0.83-86.43-2.78-129.56,0.8c-9.36,0.78-18.46,7.72-18,18C460.47,355.36,468.01,365.11,478.06,364.27L478.06,364.27z"/>
		</g>
	</g>
	<g>
		<g>
			<path d="M608.27,364.29c-14.31,52.62-29.01,105.14-44.11,157.54c10.97-1.43,21.93-2.87,32.9-4.3c-0.98-1.87-0.99-1.88-0.03-0.04
				c-0.13-0.5-0.25-1-0.38-1.5c0.22,2.23,0.27,2.28,0.13,0.14c-0.02-0.79,0-1.59,0.06-2.38c0.1-1.32,0.04-1.06-0.19,0.78
				c0.13-0.81,0.29-1.61,0.48-2.41c0.35-1.62,0.79-3.22,1.27-4.8c2.18-7.22,5.1-14.25,7.82-21.28c2.75-7.12,5.56-14.22,8.44-21.3
				c1.44-3.54,2.89-7.07,4.35-10.6c0.73-1.76,1.47-3.53,2.21-5.28c-0.92,2.17,1.29-3.01,1.55-3.61
				c12.41-28.96,25.87-57.45,40.28-85.47c-10.97-4.62-21.93-9.25-32.9-13.87c-15.47,55.91-30.94,111.81-46.4,167.72
				c-2.4,8.68,2.27,17.79,10.42,21.23c8.53,3.6,17.44,0.18,22.48-7.36c10.43-15.6,21.25-30.94,32.64-45.86
				c0.56-0.73,1.12-1.47,1.68-2.2c-0.93,1.21-0.74,0.97,0.58-0.73c1.52-1.93,3.04-3.87,4.57-5.79c2.88-3.61,5.79-7.18,8.73-10.73
				c6.09-7.33,12.35-14.53,18.75-21.59c-10.03-5.84-20.06-11.68-30.08-17.51c-2.64,11.6-5.86,23.05-9.73,34.29
				c-1.89,5.48-3.97,10.88-6.1,16.27c-0.23,0.56-0.46,1.13-0.69,1.69c0.52-1.21,0.53-1.24,0.04-0.09c-0.6,1.4-1.21,2.8-1.83,4.19
				c-1.24,2.78-2.53,5.55-3.85,8.3c-3.91,8.18-2.83,17.45,4.64,23.22c6.82,5.27,17.51,5.21,23.63-1.41
				c11.47-12.38,22.95-24.77,34.42-37.15c11.05-11.92,21.85-24.21,33.99-35.05c2.73-2.43,5.53-4.8,8.42-7.04
				c-2.35,1.82,0.67-0.46,1.5-1.05c1.51-1.1,3.05-2.17,4.6-3.22c5.73-3.88,11.69-7.43,17.81-10.66c3.06-1.62,6.17-3.16,9.3-4.62
				c1.45-0.68,2.91-1.33,4.37-1.99c0.2-0.09,2.63-1.16,0.79-0.36c-2.09,0.9,1.9-0.78,2.3-0.94c6.49-2.6,13.08-4.94,19.75-7.04
				c27.31-8.61,55.65-13.41,83.95-17.37c1.61-0.23,3.22-0.45,4.83-0.67c0.8-0.11,1.61-0.22,2.41-0.33c-0.09,0.01,3.1-0.42,1.49-0.2
				c2.17-0.29,8.44-1.11,12.18-1.6c8.42-1.09,16.85-2.14,25.28-3.16c17.19-2.07,34.4-4,51.62-5.77c11.63-1.2,23.22-1.57,31.01-11.65
				c5.49-7.1,9.41-15.53,13.51-23.49c9.09-17.63,17.1-35.82,24.25-54.32c5.23-13.52-9.99-25.04-22.14-22.14
				c-60.21,14.34-119.45,32.41-179.66,46.73c-58.04,13.8-117.22,23.65-173.79,43.05c-15.08,5.17-30.86,11.99-38.25,27.18
				c-8.05,16.54-4.05,34.52,2.28,50.88c4.22,10.91,15.45,16.79,26.44,10.76c12.4-6.8,23.95-15.77,33.34-26.37
				c6.18-6.98,13.21-15.16,12.86-25.14c-0.43-12.19-10.31-23.65-23.16-22.86c-6.02,0.37-12.75,3.08-15.54,8.92
				c-7.49,15.63-9.62,32.21-5.62,49.16c3.24,13.73,20.53,16.73,30.08,7.94c9-8.28,18-16.65,27.7-24.12
				c-0.62,0.48-2.34,1.73,0.52-0.36c1.17-0.86,2.34-1.71,3.53-2.55c2.13-1.51,4.29-2.97,6.49-4.37c5.42-3.46,11.05-6.44,16.86-9.17
				c5.02-2.35-1.72,0.52,1.36-0.58c1.37-0.49,2.72-1.06,4.1-1.56c2.75-0.99,5.52-1.91,8.32-2.75c5.61-1.69,11.31-3.09,17.05-4.29
				c5.78-1.21,11.6-2.2,17.43-3.09c1.46-0.22,2.93-0.43,4.39-0.64c0.79-0.11,4.61-0.62,1.38-0.2c3.53-0.46,7.06-0.9,10.59-1.33
				c52.95-6.48,104.98-16.76,157.03-28.32c8.23-1.83,16.76-3.05,23.22-8.99c6.97-6.4,9.85-16.91,7.61-26.04
				c-2.15-8.77-9.11-15.94-17.77-18.47c-9.73-2.84-18.79,0.07-26.35,6.38c-11.94,9.95-2.23,31.49,12.73,30.73
				c6.28-0.32,12.57-0.64,18.85-0.96c9.39-0.48,18.45-7.94,18-18c-0.42-9.34-7.93-18.51-18-18c-6.28,0.32-12.57,0.64-18.85,0.96
				c4.24,10.24,8.49,20.49,12.73,30.73c-4.03,3.36-4.66,2.68-8.61,2.81c-0.4-0.08-0.81-0.16-1.21-0.23
				c2.02,0.65,1.58,0.28-1.32-1.11c-3.44-1.98-5.63-4.11-5.41-8.87c0.04-0.85,1.39-3.78,0.15-1.28c1.28-2.57,2.5-4.45,4.67-6.24
				c1.82-1.51,0.82-0.41-0.46-0.25c-3.19,0.4-6.41,1.43-9.55,2.12c-11.46,2.54-22.92,5.07-34.4,7.52
				c-22.95,4.9-45.97,9.51-69.13,13.34c-23.21,3.84-42.19,5.64-66.35,9.1c-21.99,3.15-43.47,8.16-63.55,17.91
				c-22.35,10.85-41.07,28.04-59.19,44.71c10.03,2.65,20.06,5.3,30.08,7.94c-0.26-1.12-0.47-2.25-0.73-3.37
				c0.73,3.12-0.02-0.41-0.07-1.21c-0.16-2.61-0.02-5.16,0.11-7.76c-0.09,1.88-0.22,1.1,0.08-0.34c0.24-1.13,0.48-2.25,0.77-3.36
				c0.36-1.39,0.94-2.73,1.28-4.12c0.68-2.74-1.63,3.28,0.55-1.26c-5.18,2.97-10.36,5.94-15.54,8.92c-1.84-0.44-3.68-0.88-5.52-1.32
				c-2.15-2.15-4.3-4.31-6.46-6.46c2.82,4.08,2.86,0.8,0.15-9.85c-1.18,1.73-1.22,1.85-0.12,0.37c-0.99,1.32-2.11,2.56-3.21,3.8
				c-2.74,3.1-5.67,6.04-8.75,8.81c-1.44,1.29-2.91,2.54-4.41,3.76c2.7-2.2-1.74,1.26-2.32,1.66c-3.4,2.38-6.94,4.52-10.57,6.52
				c8.81,3.59,17.63,7.17,26.44,10.76c-2.18-5.64-3.9-11.28-5.38-17.13c-1.2-4.72-0.22,3.23-0.21-1.55c0-1.24,0.1-2.67-0.03-3.89
				c-0.26-2.4-1.29,3.54,0.07-0.52c0.23-0.99,0.53-1.97,0.88-2.92c-0.81,1.93-0.74,1.97,0.23,0.11c0.27-0.41,0.54-0.81,0.81-1.22
				c-1.21,1.54-1.38,1.83-0.51,0.87c0.75-0.54,3.22-2.85,0.15-0.5c2.14-1.63,4.54-2.93,6.96-4.09c0.89-0.43,4.02-1.61,0.49-0.27
				c1.39-0.53,2.78-1.06,4.19-1.56c3.45-1.23,6.93-2.39,10.41-3.52c27.14-8.89,54.9-15.74,82.74-22.01
				c27.92-6.29,55.98-12,83.83-18.63c27.88-6.63,55.56-14.08,83.22-21.58c32.06-8.7,64.11-17.45,96.43-25.15
				c-7.38-7.38-14.76-14.76-22.14-22.14c-3.26,8.42-5.16,13.04-8.34,20.15c-3.34,7.48-6.86,14.89-10.56,22.2
				c-3.7,7.3-7.5,14.59-11.64,21.66c-0.34,0.57-0.73,1.14-1.03,1.73c-0.9,1.73,0.58-0.88,0.76-1.02c-0.38,0.3,6.38-3.57,3.49-2.4
				c-1.8,0.73,0.66-0.04,1.06-0.09c-4.21,0.51-8.45,0.86-12.67,1.3c-34.24,3.59-68.42,7.73-102.51,12.5
				c-57.02,7.98-114.74,20.53-160.89,57c-13.68,10.81-25.33,23.84-37.14,36.59c-13.02,14.05-26.04,28.1-39.06,42.15
				c9.42,7.27,18.85,14.54,28.27,21.81c11.19-23.45,20.02-47.91,25.79-73.25c1.72-7.53-1.06-16.52-8.27-20.33
				c-6.85-3.62-16.32-3.25-21.81,2.81c-26.64,29.4-50.56,61.22-72.59,94.2c10.97,4.62,21.93,9.25,32.9,13.87
				c15.47-55.91,30.94-111.81,46.4-167.72c2.4-8.68-2.27-17.79-10.42-21.23c-7.83-3.31-18.36-0.64-22.48,7.36
				c-15.79,30.69-30.39,61.97-43.81,93.77c-6.74,15.96-13.23,32.02-19.38,48.22c-6.53,17.21-11.93,34.62-2.79,52.09
				c7.36,14.07,28.77,10.03,32.9-4.3c15.1-52.4,29.81-104.91,44.11-157.54c2.47-9.08-3.07-19.98-12.57-22.14
				C620.93,349.56,610.92,354.57,608.27,364.29L608.27,364.29z"/>
		</g>
	</g>
</g>
</svg>
