<?xml version="1.0" encoding="utf-8"?>
<!-- Generator: Adobe Illustrator 24.1.3, SVG Export Plug-In . SVG Version: 6.00 Build 0)  -->
<svg version="1.1" id="Layer_1" xmlns="http://www.w3.org/2000/svg" xmlns:xlink="http://www.w3.org/1999/xlink" x="0px" y="0px"
	 viewBox="0 0 1280 720" style="enable-background:new 0 0 1280 720;" xml:space="preserve">
<g>
	<g>
		<path d="M186.45,355.98c114.17,33.86,233.12,49.96,351.98,53.71c118.43,3.74,236.96-4.61,354.49-18.77
			c67.03-8.08,133.82-17.99,200.45-28.83c9.32-1.52,15.34-13.58,12.57-22.14c-3.27-10.1-12.15-14.2-22.14-12.57
			c-116.93,19.03-229.37,34.66-348.56,42.45c-116.74,7.63-233.83,6.4-349.97-8.33c-3.5-0.44,4.25,0.59-1.67-0.22
			c-2.46-0.34-4.91-0.68-7.37-1.03c-4.3-0.61-8.59-1.24-12.88-1.89c-7.97-1.21-15.93-2.49-23.87-3.84
			c-15.9-2.71-31.75-5.71-47.54-9.02c-32.29-6.76-64.3-14.83-95.93-24.21c-9.02-2.68-20.01,3.22-22.14,12.57
			C171.68,343.51,176.79,353.11,186.45,355.98L186.45,355.98z"/>
	</g>
</g>
<g>
	<g>
		<path d="M1109.04,235.54c-14.84,32.7-29.96,66.66-30.32,103.25c-0.34,35.57,15.22,68.3,33.67,97.83
			c4.99,7.98,16.29,11.83,24.63,6.46c8-5.16,11.8-16.08,6.46-24.63c-4.06-6.5-8-13.09-11.63-19.84c-1.96-3.64-3.82-7.32-5.58-11.06
			c-0.75-1.6-1.47-3.21-2.19-4.82c1.33,2.98-0.84-2.11-0.88-2.21c-2.76-7.06-5.03-14.33-6.62-21.75c-0.36-1.71-0.65-3.44-0.98-5.15
			c-0.33-2.17-0.36-2.31-0.11-0.42c-0.11-0.87-0.2-1.75-0.28-2.62c-0.37-3.92-0.54-7.85-0.5-11.78c0.04-3.62,0.24-7.23,0.59-10.83
			c0.12-1.2,0.25-2.4,0.4-3.59c-0.2,1.5-0.2,1.6-0.01,0.31c0.42-2.07,0.7-4.17,1.12-6.24c1.56-7.76,3.7-15.4,6.19-22.92
			c2.52-7.6,5.41-15.08,8.51-22.47c-1.12,2.67,1-2.32,1.09-2.52c0.74-1.7,1.48-3.39,2.23-5.08c1.74-3.93,3.51-7.84,5.28-11.75
			c3.88-8.55,2.74-19.77-6.46-24.63C1125.78,224.91,1113.2,226.38,1109.04,235.54L1109.04,235.54z"/>
	</g>
</g>
</svg>
