<?xml version="1.0" encoding="utf-8"?>
<!-- Generator: Adobe Illustrator 24.1.3, SVG Export Plug-In . SVG Version: 6.00 Build 0)  -->
<svg version="1.1" xmlns="http://www.w3.org/2000/svg" xmlns:xlink="http://www.w3.org/1999/xlink" x="0px" y="0px"
	 viewBox="0 0 1280 720" style="enable-background:new 0 0 1280 720;" xml:space="preserve">
<style type="text/css">
	.st0{fill:#FFFFFF;}
</style>
<g id="Color">
	<g>
		<g>
			<path class="st0" d="M272.08,227.79c11.68,10.47,22.54,21.81,32.45,33.97c1.02,1.26,2.03,2.53,3.04,3.8
				c1.28,1.63,1.33,1.7,0.17,0.2c0.66,0.86,1.31,1.72,1.95,2.59c2.26,3.03,4.47,6.11,6.61,9.23c4.29,6.23,8.35,12.63,12.17,19.17
				c3.82,6.54,7.39,13.22,10.7,20.02c1.66,3.4,3.25,6.83,4.78,10.29c0.44,0.99,0.87,1.98,1.3,2.97c-0.76-1.81-0.74-1.75,0.07,0.19
				c0.61,1.5,1.22,3.01,1.81,4.52c5.72,14.6,10.24,29.64,13.62,44.96c2.03,9.21,13.22,15.46,22.14,12.57
				c9.67-3.13,14.75-12.28,12.57-22.14c-14.16-64.2-48.99-123.89-97.93-167.79c-7.01-6.29-18.64-7.43-25.46,0
				C265.77,209.2,264.59,221.07,272.08,227.79L272.08,227.79z"/>
		</g>
	</g>
	<g>
		<g>
			<path class="st0" d="M380.25,385.62c87.63-1.15,175.26-2.98,262.86-5.71c87.48-2.73,174.58-8.27,261.27-20.7
				c47.7-6.83,95.11-15.54,142.14-26.03c9.2-2.05,15.46-13.21,12.57-22.14c-3.13-9.66-12.28-14.77-22.14-12.57
				c-41.63,9.28-83.56,17.17-125.72,23.6c-5.15,0.78-10.3,1.55-15.46,2.29c-2.58,0.37-5.16,0.74-7.74,1.1
				c-1.29,0.18-2.58,0.36-3.87,0.54c-0.77,0.11-4.37,0.6-1.99,0.28c-10.65,1.43-21.31,2.76-31.98,4
				c-21.02,2.44-42.08,4.53-63.17,6.25c-86.2,7.05-172.86,8.5-259.29,10.46c-49.16,1.12-98.32,2-147.49,2.64
				c-9.41,0.12-18.44,8.19-18,18C362.68,377.27,370.16,385.75,380.25,385.62L380.25,385.62z"/>
		</g>
	</g>
	<g>
		<g>
			<path class="st0" d="M1063.32,318.55c-0.18-9.64-0.34-19.29-0.08-28.94c0.13-4.81,0.37-9.63,0.76-14.43
				c0.2-2.39,0.45-4.77,0.72-7.15c0.27-2.19,0.29-2.37,0.07-0.54c0.13-0.88,0.27-1.77,0.42-2.65c1.52-9.12,3.89-18.07,7.3-26.67
				c4.42-11.14,7.84-21.6,4.75-33.7c-1.8-7.07-9.7-13.91-17.36-13.21c-82.16,7.44-163.84,20.27-244.28,38.58
				c-9.19,2.09-15.47,13.18-12.57,22.14c3.11,9.62,12.3,14.81,22.14,12.57c39.12-8.91,78.52-16.55,118.14-22.85
				c39.34-6.25,75.68-10.75,116.57-14.45c-5.79-4.4-11.57-8.81-17.36-13.21c0.54,2.16,0.58,2.29,0.13,0.4
				c-0.11,2.17-0.1,2.32,0.04,0.44c-0.5,2.37-1.32,4.67-2.17,6.94c-1.49,3.96-3.25,7.82-4.64,11.83
				c-3.21,9.23-5.12,18.78-6.42,28.44c-2.52,18.78-2.53,37.55-2.18,56.47c0.17,9.41,8.16,18.44,18,18
				C1054.93,336.12,1063.51,328.64,1063.32,318.55L1063.32,318.55z"/>
		</g>
	</g>
	<g>
		<g>
			<path class="st0" d="M1012.33,237.06c1.06,10.33,1.29,20.71,0.54,31.07c-0.18,2.51-0.43,5.01-0.71,7.51
				c-0.36,3.14,0.37-2.3-0.11,0.82c-0.19,1.24-0.39,2.48-0.6,3.72c-0.43,2.47-0.89,4.95-1.45,7.4c-0.13,0.57-0.38,3.74-0.09,1.23
				c0.64-1.3,0.58-1.23-0.18,0.24c0.43-0.57,0.86-1.13,1.29-1.7c3.71,0.82,7.43,1.64,11.14,2.47c8.79,5.42,12.39,5.83,10.82,1.22
				c0.2,0.8,0.48,4.83,0.09,0.34c-0.22-2.58-0.49-5.15-0.73-7.73c-0.52-5.48-1.04-10.95-1.56-16.43
				c-1.08-11.33-0.88-23.78-6.75-33.9c-7.08-12.22-24.15-18.25-36.64-10.54c-11.65,7.19-14.73,20.81-15.76,33.51
				c-0.75,9.21,0.4,18.45-0.2,27.66c-0.07,1.11-0.13,2.28-0.3,3.39c0.49-3.32-0.02-0.37-0.18,0.21c-0.3,1.08-0.57,2.18-0.86,3.26
				c-1.17,4.37-0.31,0.18,0.06,0.14c0.2-0.22,0.4-0.44,0.6-0.66c4.64-5.53,11.53-4.66,20.67,2.61c0.48,0.92,1.15,4.19,0.28,0.3
				c-0.27-1.19-0.58-2.36-0.84-3.56c-0.1-0.6-0.21-1.2-0.31-1.8c0.22,1.45,0.26,1.52,0.12,0.22c0.16-21.08-4.16-50.08-28.18-56.66
				c-16.38-4.48-27.5,8.98-32.73,22.51c-3.59,9.28-4.46,19.52-4.91,29.38c-0.21,4.55-0.29,9.11-0.57,13.66
				c-0.07,1.13-0.17,2.25-0.25,3.38c-0.31,4.77,0.04-0.72,0.13-0.69c-0.27-0.11-0.28,2.36-0.62,2.41c0.25-1.17,0.78-2.16,1.6-2.98
				c1.09-1.63,2.75-2.5,4.96-2.6c1.41-0.57,2.82-1.14,4.23-1.7c5.06,1.85,6.53,2.16,4.4,0.94c-2.11-1.06,1.59,2.01,0.32,0.15
				c-0.32-0.47-2.41-2.65-0.83-0.73c1.53,1.87-0.18-0.4-0.51-0.94c-0.46-0.77-0.82-1.59-1.27-2.36c-1.25-2.14,0.86,2.97,0.26,0.54
				c-0.5-2.03-1.24-3.98-1.69-6.03c-0.41-1.87-0.66-3.77-1.02-5.65c0.88,4.52-0.17-1.51-0.28-2.48c-0.6-5.23-1.19-10.46-1.99-15.67
				c-2.23-14.52-13.77-26.44-29.48-22.47c-14.52,3.68-22.12,19.7-20.58,33.66c1.5,13.64,9.16,24.63,19.59,33.18
				c19.69,16.13,42.93,25.55,68.56,21.26c5.36-0.9,9.68-5.71,11.66-10.42c2.42-5.73,1.44-10.49-0.91-16.02
				c-5.57-13.14-14.85-24.64-25.04-34.51c-4.74-4.59-9.76-8.89-14.87-13.07c-1.2-0.98-2.42-1.95-3.61-2.95
				c-0.4-0.34-3.76-3.56-2.2-1.79c0.76,1.1,0.68,0.92-0.24-0.55c0.66,0.9,1.04,1.9,1.14,2.99c0.83,3.3-0.24,6.4-3.19,9.31
				c-8.46,6.74-15.74,4.64-21.83-6.31c3.46,8.72,12.19,15.79,22.14,12.57c8.45-2.74,16.29-12.77,12.57-22.14
				c-3.34-8.42-9.15-14.6-18.49-15.85c-7.6-1.02-14.79,1.28-20.24,6.77c-11.84,11.92-6.64,30.67,4.88,40.47
				c7.69,6.54,15.56,12.77,22.54,20.11c1.69,1.78,3.34,3.6,4.92,5.48c0.81,0.96,2.26,2.86,0.73,0.82c0.65,0.87,1.28,1.74,1.9,2.63
				c3.09,4.47,5.68,9.21,7.8,14.21c3.59-8.81,7.17-17.63,10.76-26.44c3.81-0.64-1.81,0.09-2.66,0.1c-1.65,0.03-3.3-0.17-4.95-0.16
				c-1.33-0.13-1.1-0.08,0.68,0.14c-1.09-0.18-2.18-0.39-3.26-0.64c-1.63-0.37-3.24-0.81-4.83-1.31c-1.6-0.51-3.2-1.06-4.74-1.7
				c3.28,1.35-1.66-0.9-1.86-1c-3.28-1.68-6.44-3.6-9.48-5.69c-0.51-0.35-4.18-3.13-2.94-2.12c1.16,0.94-2.67-2.33-3.14-2.76
				c-1.18-1.09-2.25-2.27-3.39-3.39c-2.49-2.47,0.76,1.93-1.03-1.4c-0.43-0.67-0.81-1.36-1.16-2.07c-0.58-1.15-0.49-0.94,0.28,0.61
				c-0.47-2.09-0.58-2.07-0.31,0.07c-0.03-0.53-0.06-1.06-0.08-1.59c0.09-2.15,0.06-2.12-0.11,0.09c0.15-0.5,0.3-1,0.46-1.5
				c-0.19,1.14-0.69,2.14-1.49,2.99c-8.51,1.89-10.74,2.99-6.7,3.3c-3.03-0.82-6.06-1.64-9.08-2.46c-1.7-0.74-2.53-3.93-3.92-4.86
				c-1.03-0.69-0.29-0.97-0.12,0.49c0.07,0.57,0.95,5.66,0.59,3.28c-0.35-2.32,0.23,2,0.31,2.68c0.22,1.95,0.43,3.9,0.67,5.85
				c0.89,7.44,1.66,15.1,4.26,22.18c2.76,7.52,6.71,14.9,12.93,20.14c9.59,8.08,22.84,11.3,33.53,3.05
				c14.31-11.05,11.29-31.57,12.47-47.57c0.08-1.12,0.19-2.25,0.29-3.37c0.02-0.23,0.43-2.95,0.1-0.93
				c-0.27,1.64,0.55-2.59,0.72-3.33c0.44-1.89,1.06-3.69,1.63-5.54c-0.88,2.89,0.91-1.4,1.32-2.37c0.74-1.76-0.2,0.55-0.59,0.74
				c-1.72,0.81-10.07,3.2-11.82,2.6c-0.56-0.2-3.2-2.11-1.63-0.67c1.44,1.33-0.29-0.49-0.46-0.77c0.78,1.28,1.56,2.54,2.18,3.91
				c-0.2-0.44-0.73-2.58-0.47-0.76c0.18,1.23,0.73,2.47,1,3.71c0.32,1.47,0.5,4.5,0.31,1.3c0.1,1.73,0.28,3.47,0.38,5.2
				c0.24,4.31,0.36,8.61,0.84,12.9c1.21,10.79,3.67,22.9,13.88,28.83c11.89,6.91,26,0.76,32.41-10.51
				c4.69-8.23,6.01-18.44,6.31-27.74c0.24-7.51-0.42-15.02-0.07-22.52c0.05-1.03,0.75-6.21,0.14-2.88c0.31-1.69,0.75-3.33,1.14-5
				c0.71-2.99-1.37,1.71,0.43-0.76c-3.12,4.27-10.91,7.38-15.23,2.69c-1.03-1.11-1.7-4.29-0.97-1.37c0.26,1.04,0.45,2.07,0.67,3.12
				c-0.07-0.32-0.23-2.88-0.15-0.8c0.16,4.44,0.85,8.94,1.27,13.36c0.8,8.37,1.53,16.75,2.39,25.12c0.57,5.54,1.17,11.2,4.24,16.04
				c4.11,6.49,11.06,10.84,18.82,11c12.92,0.27,21.82-10.55,24.5-22.24c4.49-19.58,5.67-40.13,3.62-60.09
				c-0.96-9.34-7.59-18.47-18-18C1021.41,219.46,1011.3,227.03,1012.33,237.06L1012.33,237.06z"/>
		</g>
	</g>
	<g>
		<g>
			<path class="st0" d="M872.69,253.11c-1.16,26.01,0.62,51.85,4.57,77.57c8.81-6.78,17.63-13.55,26.44-20.33
				c1.47,0.75,2.61,1.85,3.42,3.29c-0.91-1.69-0.75-1.25,0.47,1.31c-0.45-1.92-0.42-1.42,0.08,1.5c-0.04-0.75-0.02-1.5,0.05-2.24
				c-0.45,2.91-0.44,3.41,0.05,1.5c-1.18,2.55-1.32,2.98-0.4,1.3c-1.79,2.12-2.02,2.51-0.69,1.15c-2.24,1.62-2.52,1.97-0.84,1.05
				c13.91-6.83,10.24-29.44-4.3-32.9c-0.16-0.04-3.95-0.97-3.9-1.14c2.04,0.9,2.46,1.05,1.27,0.46c-0.59-0.29-1.17-0.61-1.73-0.96
				c-1.01-0.61-3.78-3.19-0.65-0.29c-0.82-0.76-1.67-1.49-2.46-2.29c-0.97-0.97-1.82-2.04-2.76-3.03c-1.44-1.53,1.72,2.58-0.15-0.23
				c-1.58-2.37-3.11-4.75-4.51-7.23c-6.36-11.33-11.3-23.53-16.73-35.32c-5.93-12.88-24.52-10.51-31.08,0
				c-8.96,14.35-2.96,30,3.1,44.01c4.81,11.11,10.62,21.76,17.43,31.76c4.36,6.41,8.81,12.19,15.14,16.76
				c6.04,4.37,13.49,6.22,20.83,6.7c6.21,0.4,12.61-0.78,18.68-1.95c2.94-0.57,5.86-1.22,8.8-1.79c1.33-0.26,2.66-0.5,4-0.71
				c-3.2,0.5,0.22,0.06,1.53-0.02c-1.6-11.79-3.19-23.57-4.79-35.36c-1.99,0.41-3.99,0.71-5.98,1.1c-1.31,0.2-1.14,0.18,0.5-0.04
				c-0.86,0.11-1.72,0.2-2.58,0.28c-3.74,0.38-7.49,0.6-11.24,0.7c-6.98,0.18-13.97-0.07-20.94-0.54
				c-14.93-0.99-29.77-2.97-44.7-3.96c-15.44-1.03-30.8-0.66-46.06,2.14c-7.22,1.33-14.08,3.61-20.99,6.03
				c-3.37,1.18-6.76,2.35-10.23,3.17c-0.94,0.22-5.23,0.63-2.07,0.47c-0.96,0.05-7.17-0.67-3.79,0.02
				c-1.6,11.79-3.19,23.57-4.79,35.36c28.72,0.63,57.45-0.12,86.1-2.25c10.69-0.8,21.67-11,17.36-22.79
				c-7.1-19.4-12.11-39.44-14.97-59.9c-10.97,4.62-21.93,9.25-32.9,13.87c12.27,23.69,27.48,45.67,44.88,65.87
				c4.97,5.77,15.5,6.88,21.81,2.81c6.91-4.46,10.15-12.27,8.27-20.33c-3.98-17.06-12.84-32.68-25.07-45.18
				c-6.6-6.74-18.93-7.11-25.46,0c-6.65,7.25-7.04,18.26,0,25.46c1.16,1.18,2.3,2.38,3.39,3.62c0.21,0.23,3.32,4.37,1.32,1.52
				c1.9,2.72,3.73,5.46,5.33,8.37c0.8,1.45,1.51,2.95,2.25,4.43c1.68,3.36-0.52-2.1,0.73,1.81c1.01,3.17,2.03,6.28,2.79,9.53
				c10.03-5.84,20.06-11.68,30.08-17.51c-1.95-2.26-3.88-4.54-5.77-6.86c-1.13-1.39-2.25-2.79-3.37-4.19
				c-0.54-0.68-1.64-2.12-0.48-0.61c-3.8-4.99-7.46-10.1-10.96-15.3c-6.84-10.17-13.04-20.75-18.68-31.63
				c-4.12-7.96-14.65-10.67-22.48-7.36c-8.94,3.77-11.69,12.18-10.42,21.23c2.86,20.46,7.86,40.5,14.97,59.9
				c5.79-7.6,11.57-15.19,17.36-22.79c-28.65,2.13-57.37,2.88-86.1,2.25c-8.96-0.2-16.52,7-17.68,15.61
				c-1.12,8.3,4.09,17.96,12.89,19.75c9.63,1.95,18.99,1.35,28.42-1.41c7.38-2.16,14.44-5.21,21.93-7.03
				c2.23-0.54,4.47-1.01,6.73-1.4c0.77-0.14,5.69-0.75,1.99-0.34c3.41-0.37,6.83-0.65,10.26-0.8c7.8-0.33,15.61-0.08,23.39,0.44
				c31.74,2.11,62.86,7.65,94.51,1.17c8.76-1.79,14.01-11.46,12.89-19.75c-1.12-8.37-8.71-16.15-17.68-15.61
				c-5.61,0.34-11.2,1.22-16.71,2.33c-2.14,0.43-4.27,0.89-6.4,1.31c-1.05,0.21-2.14,0.34-3.18,0.6c-2.66,0.67,2.76-0.15,0.09,0.03
				c-2.28,0.16-4.55,0.1-6.82,0.2c1.36-0.06,2.63,0.38,0.44-0.03c-1.88-0.36-1.19-0.49,0.17,0.31c-0.87-0.51-1.83-0.92-2.62-1.56
				c1.5,1.2,0.69,0.42-0.08-0.52c-0.79-0.97-1.43-1.78-0.33-0.29c-0.86-1.16-1.67-2.36-2.48-3.55
				c-5.47-8.05-10.33-16.52-14.51-25.31c-1.01-2.13-2-4.28-2.92-6.45c0.75,1.78,0.16,0.36-0.22-0.61c-0.4-1.04-0.82-2.07-1.19-3.12
				c-0.45-1.26-0.85-2.52-1.19-3.81c-0.13-0.48-0.52-3.64-0.4-1.5c0.1,1.85,1.08-1.55-0.01,0.22c-0.28,0.46-2.06,4.3-0.09,1.14
				c-10.36,0-20.72,0-31.08,0c11.58,25.12,22.68,59.31,53.14,66.57c-1.43-10.97-2.87-21.93-4.3-32.9
				c-9.81,4.82-15.31,15.5-15.95,26.08c-0.69,11.49,4.98,20.54,13.8,27.23c5.64,4.28,14.92,2.51,19.99-1.41
				c6.16-4.76,7.59-11.52,6.45-18.92c-0.24-1.58-0.48-3.17-0.71-4.75c-0.46-3.17,0.27,2.25-0.13-0.93
				c-0.36-2.86-0.69-5.72-0.98-8.59c-0.62-6.05-1.08-12.12-1.39-18.2c-0.61-11.84-0.6-23.69-0.07-35.53c0.42-9.42-8.58-18.42-18-18
				C880.58,235.56,873.14,243.02,872.69,253.11L872.69,253.11z"/>
		</g>
	</g>
	<g>
		<g>
			<path class="st0" d="M828.49,226.58c-89.06,2.13-178.19,3.55-267.28,2.83c-11.99-0.1-23.99-0.35-35.95-1.35
				c-2.82-0.24-5.64-0.52-8.45-0.84c-0.38-0.04-4.22-0.55-2.28-0.28c1.77,0.25-2.79-0.45-3.2-0.51c-6.21-1.03-12.34-2.37-18.41-4.02
				c-9.08-2.46-19.98,3.07-22.14,12.57c-2.16,9.48,2.85,19.5,12.57,22.14c21.61,5.86,44.17,7.66,66.49,8.13
				c22.29,0.47,44.6,0.3,66.89,0.25c44.95-0.09,89.91-0.57,134.85-1.34c25.64-0.44,51.27-0.98,76.91-1.59
				c9.41-0.22,18.44-8.12,18-18C846.06,235.02,838.57,226.34,828.49,226.58L828.49,226.58z"/>
		</g>
	</g>
	<g>
		<g>
			<path class="st0" d="M487.1,219.73c-27.37,1.76-54.85,1.3-82.15-1.49c-3.17-0.32-6.34-0.68-9.51-1.07
				c0.05,0.01-5.76-0.74-2.8-0.34c-1.58-0.21-3.16-0.44-4.73-0.68c-6.62-0.98-13.23-2.09-19.8-3.34
				c-13.79-2.62-27.44-5.85-40.96-9.62c-15.06-4.2-28.36,12.93-20.33,26.44c26.94,45.36,53.89,90.73,80.83,136.09
				c4.59,7.73,14.27,10.83,22.48,7.36c7.77-3.28,13.38-12.72,10.42-21.23c-6.81-19.63-13.62-39.28-19.35-59.26
				c-2.77-9.66-5.29-19.4-7.41-29.22c-1.13-5.21-2.15-10.44-3.04-15.7c-0.42-2.47-0.77-4.96-1.17-7.44c-0.5-3.1,0.25,2.31-0.11-0.81
				c-0.18-1.56-0.38-3.12-0.55-4.68c-11.79,1.6-23.57,3.19-35.36,4.79c9.86,40.14,20.63,80.06,32.3,119.71
				c2.54,8.63,10.87,14.09,19.75,12.89c8.74-1.18,15.62-8.66,15.61-17.68c-0.03-19.87,0.74-39.73,2.39-59.53
				c0.81-9.74,1.83-19.46,3.06-29.15c0.12-0.97,0.25-1.94,0.37-2.91c-0.21,1.56-0.17,1.22,0.14-1.02c0.36-2.58,0.73-5.16,1.12-7.74
				c0.78-5.15,1.62-10.3,2.51-15.43c-11.79-1.6-23.57-3.19-35.36-4.79c-1.26,41.27-2.51,82.53-3.77,123.8
				c-0.61,20.1,30.77,24.71,35.36,4.79c7.74-33.64,17.57-66.75,29.42-99.18c-11.79-1.6-23.57-3.19-35.36-4.79
				c0.74,15.5,1.48,30.99,2.22,46.49c0.36,7.58,0.72,15.17,1.09,22.75c0.19,3.96,0.38,7.91,0.57,11.87c0.08,1.65,0.16,3.3,0.24,4.95
				c0.05,0.99,0.09,1.98,0.14,2.97c0.14-4.02,2.17-7.23,6.09-9.64c3.03-0.82,6.06-1.64,9.08-2.46c-0.28,0.02-0.56,0.03-0.84,0.05
				c3.03,0.82,6.06,1.64,9.08,2.46c-0.29-0.15-0.57-0.31-0.86-0.46c2.76,3.59,5.51,7.17,8.27,10.76c-0.6-3.47-0.01,2.31,0.02,0.06
				c0.01-0.89-0.11-1.8-0.13-2.69c-0.01-0.57,0.63-5.68,0.26-6.02c-0.35,2.34-0.41,2.82-0.19,1.45c0.07-0.44,0.14-0.89,0.23-1.33
				c0.21-1.11,0.44-2.22,0.7-3.32c0.47-2,1.04-3.99,1.66-5.95c0.63-1.99,1.33-3.97,2.06-5.93c0.41-1.1,0.85-2.19,1.28-3.28
				c0.16-0.39,1.35-3.28,0.45-1.13c-1,2.39,0.58-1.32,0.78-1.78c0.38-0.87,0.77-1.75,1.15-2.62c0.96-2.18,1.94-4.36,2.89-6.54
				c8.33-19.05,14.88-37.8,10.66-58.83c-1.86-9.25-13.34-15.42-22.14-12.57c-10.26,3.32-13.99,12.11-12.57,22.14
				c0.55,3.89-0.04-0.62,0.4,2.96c0.24,1.94,0.48,3.88,0.69,5.82c0.44,3.88,0.82,7.77,1.16,11.66c0.64,7.46,1.1,14.93,1.37,22.42
				c0.56,15.3,0.3,30.6-0.67,45.88c12,0,24,0,36,0c0.06-6.65,0.39-13.29,1.09-19.91c0.06-0.56,0.7-5.53,0.25-2.41
				c0.25-1.79,0.54-3.59,0.85-5.37c0.56-3.28,1.21-6.54,1.93-9.78c1.45-6.49,3.23-12.9,5.32-19.21c1.05-3.15,2.17-6.28,3.38-9.38
				c0-0.01,2.14-5.21,0.94-2.41c0.71-1.67,1.47-3.32,2.23-4.96c-10.97-1.43-21.93-2.87-32.9-4.3c5.69,25.21,8.08,47.05,7.95,73.97
				c-0.04,9.42,8.31,18.43,18,18c9.9-0.44,17.81-7.91,18-18c0.13-7.02,0.47-14.04,1.08-21.03c0.28-3.18,0.62-6.35,0.99-9.52
				c0.72-6.19-0.55,3.36,0.37-2.81c0.24-1.58,0.48-3.16,0.74-4.73c2.22-13.55,5.42-26.91,9.47-40.04c-11.57,0-23.14,0-34.71,0
				c0.55,3.22,1.08,6.44,1.56,9.68c-0.02-0.1,0.82,5.71,0.45,2.98c0.18,1.29,0.34,2.59,0.5,3.89c0.84,6.81,1.52,13.64,2.04,20.48
				c1.02,13.36,1.41,26.75,1.25,40.15c-0.11,9.42,8.36,18.43,18,18c9.85-0.44,17.88-7.91,18-18c0.35-29.09-2.2-58.07-7.08-86.74
				c-1.26-7.41-10.08-13.54-17.36-13.21c-8.11,0.36-14.94,5.37-17.36,13.21c-8.75,28.36-13.38,58.04-13.93,87.7c12,0,24,0,36,0
				c0.13-28.07-3.06-56.17-9.24-83.54c-1.56-6.92-8.26-11.99-14.96-12.89c-6.53-0.88-14.97,2.14-17.94,8.59
				c-13.3,28.89-20.64,59.74-20.92,91.61c-0.08,9.42,8.34,18.43,18,18c10.27-0.46,17.36-7.91,18-18c2.1-32.92,0.38-65.66-4.24-98.3
				c-11.57,3.19-23.14,6.38-34.71,9.57c0.13,0.67,0.24,1.35,0.38,2.02c0.45,2.1-0.3-1.38-0.21-1.43c-0.14,0.07,0.17,4.19,0.16,4.68
				c-0.02,1.34-0.18,2.66-0.23,3.99c-0.1,2.57,0.67-3.33,0.11-0.81c-0.19,0.87-0.32,1.77-0.5,2.65c-1.3,6.11-3.44,11.97-5.77,17.75
				c-1.31,3.25,1.01-2.28-0.4,0.94c-0.67,1.53-1.34,3.06-2.01,4.58c-1.35,3.05-2.71,6.1-4.01,9.17c-2.89,6.79-5.81,13.61-7.77,20.74
				c-4.34,15.82-7.2,47.51,17.07,47.29c13.89-0.12,21.6-13.38,21.15-25.91c-0.32-8.9-0.85-17.81-1.27-26.71
				c-0.96-20.11-1.92-40.22-2.88-60.34c-0.43-9-6.52-16.46-15.61-17.68c-9.28-1.25-16.63,4.36-19.75,12.89
				c-11.85,32.42-21.67,65.54-29.42,99.18c11.79,1.6,23.57,3.19,35.36,4.79c1.26-41.27,2.51-82.53,3.77-123.8
				c0.27-8.96-7.06-16.53-15.61-17.68c-8.11-1.09-18.22,4.05-19.75,12.89c-7.15,41.41-10.94,83.32-10.88,125.35
				c11.79-1.6,23.57-3.19,35.36-4.79c-11.67-39.66-22.44-79.57-32.3-119.71c-2.14-8.71-11.19-14.04-19.75-12.89
				c-8.04,1.08-16.61,8.77-15.61,17.68c4.91,43.79,18.54,85.24,32.92,126.68c10.97-4.62,21.93-9.25,32.9-13.87
				c-26.94-45.36-53.89-90.73-80.83-136.09c-6.78,8.81-13.55,17.63-20.33,26.44c54.95,15.32,112.59,21.48,169.52,17.82
				c9.38-0.6,18.45-7.85,18-18C504.68,228.49,497.16,219.08,487.1,219.73L487.1,219.73z"/>
		</g>
	</g>
	<g>
		<g>
			<path class="st0" d="M543.02,348.51c0.55-28.13,1.09-56.25,1.64-84.38c-11.79,1.6-23.57,3.19-35.36,4.79
				c3.61,26.75,7.23,53.5,10.84,80.24c1.19,8.83,11.93,13.94,19.75,12.89c8.83-1.19,15.5-8.65,15.61-17.68
				c0.08-6.22,0.36-12.44,0.93-18.64c0.17-1.86,0.37-3.71,0.58-5.57c0.11-0.95,0.35-2.75,0.08-0.77c0.47-3.39,1.04-6.77,1.68-10.13
				c2.37-12.55,5.84-24.84,10.25-36.83c-11.79-1.6-23.57-3.19-35.36-4.79c2.16,26.72,1.54,53.55-1.87,80.14c12,0,24,0,36,0
				c0.29-3.33,0.65-6.65,1.04-9.97c0.16-1.3,0.15-1.21-0.04,0.27c0.09-0.6,0.18-1.2,0.27-1.8c0.29-1.8,0.57-3.6,0.88-5.4
				c1.15-6.58,2.57-13.12,4.26-19.59c1.68-6.47,3.64-12.87,5.85-19.17c1-2.87,2.06-5.72,3.17-8.54c0,0.01,2.12-5.22,0.95-2.44
				c0.71-1.68,1.46-3.34,2.21-5c-11.18-3.03-22.36-6.06-33.54-9.08c2.83,26.52,3.59,53.18,2.28,79.82c-0.46,9.42,8.61,18.42,18,18
				c10.75-0.48,16.74-7.95,18-18c0.03-0.25,0.74-5.76,0.34-2.77c0.25-1.89,0.52-3.77,0.8-5.66c0.55-3.77,1.14-7.53,1.76-11.29
				c1.3-7.83,2.75-15.63,4.36-23.41c3.15-15.24,6.91-30.34,11.22-45.29c-11.57,0-23.14,0-34.71,0c0.68,2.31,1.22,4.6,1.74,6.95
				c0.02,0.11,0.55,3,0.25,1.12c-0.34-2.07,0.16,1.57,0.2,2.02c0.39,4.46,0.44,8.93,0.29,13.4c-0.3,9.4-1.44,18.75-2.14,28.13
				c-0.69,9.27-1.88,20.41,0.76,29.46c2.01,6.91,6.38,12.43,13.06,15.25c5.81,2.45,11.84,1.96,17.98,1.74
				c20.17-0.73,40.35-1.46,60.52-2.2c19.03-0.69,38.15-0.96,57.12-2.78c36.35-3.49,84.45-12.72,92-55.55
				c1.58-8.97,3.72-20.74,1.39-29.77c-3.16-12.26-14.26-19.06-26.54-18.77c-9.97,0.24-20.25,3.35-30.08,4.95
				c-4.45,0.72-8.91,1.38-13.37,2.03c-0.32,0.05-3.51,0.49-0.96,0.14c-0.96,0.13-1.92,0.25-2.87,0.37
				c-2.88,0.37-5.75,0.72-8.63,1.05c-43.54,4.98-87.52,5.5-131.18,1.71c-6.16-0.53-12.55,3.8-15.54,8.92
				c-3.49,5.97-2.77,12.17,0,18.17c1.69,3.67-0.28-1.21,0.99,2.26c0.61,1.68,1.22,3.35,1.77,5.05c1.08,3.4,1.96,6.86,2.65,10.36
				c0.14,0.69,0.91,5.71,0.47,2.26c0.23,1.77,0.37,3.55,0.48,5.33c0.22,3.57,0.2,7.13,0.04,10.7c-0.81,18.24,24.73,23.96,33.54,9.08
				c2.07-3.5-2.61,2.16,0.31-0.51c2.33-2.14-2,0.64-0.12,0.05c0.91-0.29,1.87-1.5,2.86-1.56c-2.06,0.84-2.46,1.03-1.2,0.58
				c0.64-0.23,1.29-0.43,1.94-0.62c1.33-0.38,2.68-0.69,4.03-0.96c0.55-0.11,4.5-0.75,1.75-0.34c-2.75,0.4,1.19-0.1,1.75-0.15
				c1.56-0.14,3.13-0.25,4.69-0.37c14.18-1.06,28.36-2.09,42.53-3.14c28.68-2.12,57.37-4.24,86.05-6.36c9.37-0.69,18.46-7.78,18-18
				c-0.41-9.16-7.94-18.74-18-18c-31.32,2.31-62.64,4.63-93.97,6.94c-14.45,1.07-29.07,1.6-43.46,3.39
				c-15.29,1.91-29.97,6.87-38.27,20.88c11.18,3.03,22.36,6.06,33.54,9.08c0.84-18.89-3.43-37.06-11.31-54.13
				c-5.18,9.03-10.36,18.06-15.54,27.08c34.66,3.01,69.54,3.33,104.24,0.81c18.31-1.33,36.56-3.47,54.71-6.2
				c8.28-1.25,16.54-2.66,24.76-4.22c1.26-0.24,2.54-0.47,3.79-0.73c1.3-0.28,1.5,0.36,0.08-0.05c-3.48-1,3.91,1.22,0.21-0.01
				c-1.17-0.39-2.26-0.46-3.4-1.11c-1.86-2.35-3.72-4.71-5.58-7.06c-0.13-0.71-0.26-1.41-0.4-2.12c-0.06,0.01-0.2,4.92-0.23,5.36
				c-0.1,1.88-0.22,3.77-0.39,5.65c-0.12,1.3-0.81,4.72-0.14,1.62c-0.39,1.82-0.67,3.65-1.15,5.46c-0.29,1.09-1.85,5.46-0.51,2.39
				c-0.74,1.7-1.84,3.18-2.66,4.83c-0.87,1.75,0.22-0.24,0.51-0.57c-0.51,0.56-1.01,1.13-1.53,1.68c-0.72,0.75-4.51,3.66-1.53,1.63
				c-1.48,1.01-2.96,1.99-4.52,2.88c-1.57,0.89-3.21,1.62-4.81,2.45c2.71-1.41-0.23,0.09-1.43,0.54c-3.86,1.43-7.8,2.63-11.77,3.68
				c-3.87,1.03-7.78,1.9-11.71,2.65c-1.82,0.35-3.64,0.67-5.47,0.96c-1.22,0.2-2.44,0.38-3.66,0.56c-3.07,0.46,2.36-0.21-0.73,0.08
				c-34.31,3.18-68.84,3.67-103.27,4.92c-5.29,0.19-10.58,0.38-15.87,0.58c-2.32,0.08-4.63,0.17-6.95,0.25
				c-0.99,0.04-1.98,0.08-2.98,0.11c-5.36,0.17-4.94-1.42,2.79,6.06c8.49,8.2,6.06,6.77,5.85,0.56c-0.08-2.41-0.08-4.83-0.02-7.25
				c0.11-4.56,0.44-9.1,0.82-13.64c1.62-19.32,3.67-38.61-1.91-57.55c-5.01-17.03-29.76-17.2-34.71,0
				c-9.24,32.12-15.61,64.83-19.76,97.99c12,0,24,0,36,0c1.31-26.63,0.55-53.3-2.28-79.82c-0.82-7.68-4.99-15.48-13.21-17.36
				c-7.22-1.64-17,0.89-20.33,8.27c-12.93,28.67-20.79,58.47-23.5,89.82c-0.81,9.41,8.86,18.41,18,18c10.78-0.48,16.71-7.95,18-18
				c3.41-26.59,4.04-53.42,1.87-80.14c-0.73-9.01-6.29-16.43-15.61-17.68c-9.3-1.25-16.61,4.37-19.75,12.89
				c-9.58,26.03-14.46,53.78-14.79,81.51c11.79-1.6,23.57-3.19,35.36-4.79c-3.61-26.75-7.23-53.5-10.84-80.24
				c-1.19-8.83-11.93-13.94-19.75-12.89c-8.88,1.19-15.43,8.64-15.61,17.68c-0.55,28.13-1.09,56.25-1.64,84.38
				c-0.18,9.42,8.41,18.43,18,18C534.93,366.06,542.82,358.6,543.02,348.51L543.02,348.51z"/>
		</g>
	</g>
	<g>
		<g>
			<path class="st0" d="M365.68,407.13c0,32.95,0,65.9,0,98.85c0,9.42,8.28,18.44,18,18c9.75-0.44,18-7.91,18-18
				c0-32.95,0-65.9,0-98.85c0-9.42-8.28-18.44-18-18C373.93,389.56,365.68,397.04,365.68,407.13L365.68,407.13z"/>
		</g>
	</g>
	<g>
		<g>
			<path class="st0" d="M400.97,446.26c15.06-1.23,26.81-8.02,35.63-20.25c4.27-5.92,2.85-17.1-2.81-21.81
				c-9.01-7.49-20.63-10.74-32.05-6.8c-10.54,3.64-20.25,12.2-22.24,23.64c-2.52,14.48,7.99,24.21,22.14,22.14
				c10.02-1.47,20.04-2.93,30.08-4.32c1.29-0.18,2.59-0.36,3.88-0.53c2.12-0.29,0.51-0.07,0.07-0.01c2.59-0.35,5.18-0.69,7.77-1.02
				c5.18-0.66,10.37-1.3,15.56-1.89c20.19-2.31,40.46-3.92,60.78-4.52c40.5-1.19,80.93,1.36,121.16,5.89
				c19.69,2.22,39.4,4.61,59.23,5.1c20.91,0.52,41.64-1.72,62.24-5.16c39.67-6.64,79-15.94,118.37-24.15
				c44.46-9.27,89.07-18.07,132.98-29.73c9.1-2.42,15.55-12.95,12.57-22.14c-3.24-10.01-12.18-14.31-22.14-12.57
				c-45.83,8.01-86.55,13.52-132.76,17.88c-45.46,4.29-91,6.34-136.62,7.79c-46.54,1.48-93.05,3.39-139.16,10.29
				c-44.44,6.64-87.93,18.23-131.15,30.28c-21.75,6.06-46.87,11.02-61.9,29.48c-14.77,18.14-18.39,41.65-16.91,64.45
				c0.57,8.68,5.33,14.31,13.21,17.36c17.73,6.85,31.67-9.78,37.23-24.38c5.07-13.3,9.61-26.82,14.41-40.22
				c-11.79-1.6-23.57-3.19-35.36-4.79c0.54,21.2,1.07,42.4,1.61,63.6c0.23,8.99,6.68,16.48,15.61,17.68
				c8.17,1.1,18.15-4.06,19.75-12.89c1.89-10.45,4.39-20.78,7.61-30.91c1.56-4.92,3.28-9.78,5.15-14.59
				c0.44-1.13,0.89-2.26,1.35-3.38c0.33-0.81,1.07-2.5,0.3-0.73c1.21-2.78,2.48-5.54,3.78-8.28c-11.18-3.03-22.36-6.06-33.54-9.08
				c2.14,21.89,2.49,43.87,1.05,65.82c-0.58,8.92,7.3,16.56,15.61,17.68c8.05,1.08,18.31-4.04,19.75-12.89
				c1.89-11.61,4.56-23.07,8.11-34.3c1.73-5.46,3.65-10.86,5.76-16.19c0.15-0.37,1.86-4.49,1.16-2.87
				c-0.62,1.45,1.31-2.93,1.26-2.82c1.24-2.75,2.54-5.47,3.88-8.17c-11.18-3.03-22.36-6.06-33.54-9.08
				c-0.57,12.53-1.39,25.04-2.51,37.53c-0.53,5.92-1.13,11.83-1.78,17.73c-0.37,3.28-0.75,6.56-1.16,9.83
				c-0.43,3.46-0.65,5.21-0.9,6.99c-0.9,6.6-0.37,12.52,4.63,17.51c4.9,4.9,10.99,5.71,17.51,4.63c2.23-0.37,4.45-0.73,6.68-1.07
				c1.27-0.19,2.55-0.38,3.82-0.56c2.12-0.31,0.43-0.07,0-0.01c4.79-0.65,9.59-1.18,14.39-1.68c9.29-0.96,18.61-1.69,27.93-2.31
				c18.67-1.24,37.38-2.01,56.06-3.16c35.85-2.22,71.49-6.62,106.53-14.67c66.1-15.19,129.5-41.61,188.83-74.22
				c33.39-18.35,65.57-38.82,96.72-60.75c-8.81-3.59-17.63-7.17-26.44-10.76c3.53,11.36,9.06,20.99,16.4,30.25
				c1.21-9.42,2.43-18.85,3.64-28.27c-1.58,0.77-3.17,1.5-4.77,2.25c2.47-1.16-1.39,0.56-2.16,0.86c-3.8,1.45-7.66,2.73-11.57,3.86
				c-7.01,2.02-14.15,3.56-21.33,4.79c-1.74,0.3-3.48,0.57-5.22,0.83c-0.87,0.13-1.75,0.26-2.62,0.38c0.36-0.05,2.54-0.31,0.41-0.06
				c-4.11,0.49-8.21,0.97-12.33,1.38c-7.37,0.73-14.74,1.32-22.12,1.94c-32.85,2.77-65.37,7.74-97.74,13.93
				c-31.76,6.08-63.35,13.01-95.21,18.58c-8.1,1.42-16.21,2.75-24.34,3.95c-1.87,0.28-3.75,0.54-5.63,0.81
				c0.01,0-3.07,0.43-1.36,0.19c1.71-0.23-1.37,0.18-1.36,0.18c-4.38,0.56-8.77,1.09-13.16,1.57c-16.15,1.75-32.36,2.84-48.6,3.03
				c-38.01,0.44-75.87-3.62-113.61-7.67c1.6,11.79,3.19,23.57,4.79,35.36c10.57-2.67,21.23-4.97,31.97-6.84
				c2.84-0.49,5.69-0.96,8.54-1.39c1.27-0.19,2.54-0.38,3.81-0.56c0.33-0.05,3.7-0.5,2.37-0.33c-1.64,0.21,2.91-0.35,3.33-0.4
				c1.27-0.15,2.55-0.3,3.82-0.44c2.87-0.31,5.74-0.6,8.61-0.85c22.05-1.96,44.21-2.15,66.29-0.7c-1.6-11.79-3.19-23.57-4.79-35.36
				c-19.63,7.38-39.41,14.34-59.35,20.83c-9.82,3.19-19.67,6.28-29.55,9.25c-4.56,1.37-9.12,2.88-13.77,3.91
				c-0.41,0.09-3.7,0.54-1.57,0.36c2.18-0.19-1.2-0.11-1.54-0.05c-2.11,0.42,2.24,0.74,0.25,0.09c-2.45-0.8,3.45,2.13-0.53-0.35
				c-11.31-7.07-27.67,2.03-27.08,15.54c0.65,15.12,1.31,30.24,1.96,45.37c0.31,7.24,5.32,16.05,13.21,17.36
				c61.65,10.24,124.07,15.05,186.56,13.79c9.41-0.19,18.44-8.14,18-18c-0.43-9.59-7.91-18.2-18-18
				c-30.09,0.61-60.2-0.12-90.22-2.26c-15.01-1.07-29.99-2.49-44.93-4.25c-14.17-1.67-26.27-3.41-41.84-6
				c4.4,5.79,8.81,11.57,13.21,17.36c-0.65-15.12-1.31-30.24-1.96-45.37c-9.03,5.18-18.06,10.36-27.08,15.54
				c10.94,6.84,23.89,5.76,35.79,2.38c11.11-3.16,22.14-6.64,33.13-10.17c21.81-7,43.43-14.55,64.87-22.61
				c8.47-3.19,14.16-10.36,12.89-19.75c-1.23-9.18-8.63-15.01-17.68-15.61c-46.38-3.04-93.25,1.43-138.32,12.8
				c-8.7,2.19-14.05,11.14-12.89,19.75c1.27,9.44,8.63,14.64,17.68,15.61c34.14,3.66,68.35,7.33,102.72,7.68
				c33.85,0.34,67.5-3.31,100.88-8.66c32.55-5.22,64.77-12.2,97.1-18.58c16.17-3.19,32.37-6.23,48.65-8.83
				c3.75-0.6,7.51-1.18,11.27-1.72c2.19-0.32,4.39-0.63,6.58-0.93c-0.41,0.06-2.21,0.29-0.08,0.02c1.26-0.16,2.51-0.32,3.77-0.48
				c7.97-0.99,15.95-1.82,23.95-2.52c36.29-3.19,72.8-5.39,106.06-21.68c4.97-2.43,7.89-7.93,8.59-13.15
				c0.82-6.08-1.25-10.45-4.95-15.12c2.07,2.62-0.8-1.25-1.18-1.82c-1.08-1.66-2.07-3.36-3-5.11c-0.29-0.55-2.23-4.79-1.6-3.22
				c0.47,1.11,0.36,0.77-0.33-1c-0.38-1.06-0.73-2.14-1.05-3.22c-3.19-10.27-16.55-17.72-26.44-10.76
				c-27.34,19.25-55.47,37.37-84.53,53.92c-14.66,8.35-29.54,16.3-44.65,23.79c-7.28,3.61-14.62,7.11-22.01,10.5
				c-3.69,1.69-7.39,3.36-11.11,4.99c-1.86,0.82-3.72,1.63-5.58,2.43c-1.06,0.46-2.13,0.91-3.2,1.37c1.77-0.75,0.55-0.23-0.51,0.21
				c-30.69,12.71-62.19,23.46-94.43,31.51c-16.24,4.05-32.64,7.43-49.17,10.06c-3.71,0.59-7.43,1.13-11.15,1.66
				c3.29-0.46-2.1,0.26-2.96,0.37c-2.65,0.33-5.31,0.64-7.96,0.92c-8.98,0.97-17.98,1.73-26.98,2.36
				c-42.8,3.01-85.7,3.67-128.12,10.72c7.38,7.38,14.76,14.76,22.14,22.14c3.71-27.11,6.39-54.31,7.63-81.65
				c0.79-17.41-25.64-25.11-33.54-9.08c-11.39,23.09-19.66,47.51-23.8,72.94c11.79,1.6,23.57,3.19,35.36,4.79
				c1.44-21.95,1.08-43.93-1.05-65.82c-0.75-7.68-5.03-15.49-13.21-17.36c-7.33-1.67-16.84,0.94-20.33,8.27
				c-10.07,21.21-17.63,43.37-21.81,66.49c11.79,1.6,23.57,3.19,35.36,4.79c-0.54-21.2-1.07-42.4-1.61-63.6
				c-0.23-8.99-6.68-16.48-15.61-17.68c-9.24-1.24-16.69,4.35-19.75,12.89c-3.54,9.9-7.08,19.8-10.63,29.7
				c-0.86,2.4-1.72,4.8-2.58,7.2c-0.15,0.42-1.53,4.22-0.57,1.81c0.89-2.25-0.34,0.59-0.57,1.02c-0.46,0.84-1.01,1.62-1.48,2.44
				c-1.27,2.21,1.79-2.24,0.19-0.45c-1.02,1.15,1.61-1.04,2.24-1.31c1.27-0.7,2.65-0.86,4.15-0.48c3.43,0.35,4.06,0.19,1.9-0.48
				c4.4,5.79,8.81,11.57,13.21,17.36c-0.26-4.01-0.4-8.02-0.31-12.03c0.05-2.02,0.14-4.04,0.3-6.06c0-0.05,0.47-5,0.16-2.12
				c-0.28,2.59,0.27-1.56,0.36-2.07c0.72-3.9,1.79-7.67,3.11-11.41c1.13-3.18,0.18-0.29-0.12,0.27c0.46-0.85,0.84-1.74,1.3-2.59
				c0.46-0.84,0.94-1.68,1.45-2.5c0.41-0.66,3.22-4.07,0.55-1.06c1.31-1.47,2.64-2.87,4.03-4.26c0.44-0.45,2.62-2.19,0.04-0.21
				c0.83-0.64,1.73-1.23,2.61-1.79c1.78-1.14,3.63-2.16,5.53-3.09c0.95-0.47,1.92-0.92,2.89-1.34c-3.57,1.53,1.34-0.41,1.67-0.53
				c9.1-3.25,18.56-5.57,27.86-8.16c41.98-11.71,84.19-23.02,127.29-29.8c2.56-0.4,5.13-0.79,7.69-1.16c1.3-0.19,2.6-0.37,3.9-0.55
				c-2.43,0.33,0.8-0.1,1.07-0.14c5.85-0.74,11.71-1.43,17.58-2.03c11.09-1.14,22.2-2.04,33.31-2.77
				c21.94-1.44,43.92-2.22,65.9-2.93c44.31-1.42,88.55-3.19,132.72-7.13c50.63-4.52,101.08-11.23,151.16-19.98
				c-3.19-11.57-6.38-23.14-9.57-34.71c-39.12,10.39-78.79,18.44-118.4,26.69c-39.58,8.25-79.09,17-118.8,24.63
				c-4.71,0.9-9.43,1.77-14.15,2.56c-2.2,0.37-4.41,0.72-6.62,1.06c-0.95,0.14-1.89,0.28-2.84,0.42c-6.18,0.91,3.4-0.37-2.81,0.38
				c-9.54,1.15-19.12,1.92-28.73,2.08c-20.15,0.32-40.24-1.72-60.24-3.96c-40.23-4.51-80.44-7.9-120.96-7.33
				c-46.56,0.65-92.58,7.09-138.58,13.82c7.38,7.38,14.76,14.76,22.14,22.14c0.07-0.43,1.01-3.94,0.01-1.02
				c-0.67,1.46-0.64,1.53,0.08,0.22c-0.49,0.64-0.98,1.28-1.48,1.92c2.1-2.32-2.51,1.44-0.7,0.33c2.76-1.69-0.22,0.57-0.82,0.05
				c0.02,0.02,2.13-0.6,2.15-0.64c-0.47,1.36-4.16-0.09-0.93,0.24c2.18,0.22-4.02-1.21-1.01-0.1c-0.76-0.34-1.52-0.68-2.28-1.03
				c1.62,0.96,1.32,0.65-0.91-0.94c-0.94-7.27-1.88-14.54-2.81-21.81c2.35-3.26-0.73,0.42-1.09,0.86c1.53-1.07,1.77-1.24,0.71-0.51
				c-0.61,0.43-1.24,0.83-1.9,1.19c-2.85,1.87,2.42-0.16-1.19,0.51c-1.04,0.2-5.36,0.72-1.08,0.37c-9.36,0.76-18.46,7.73-18,18
				C383.37,437.35,390.92,447.07,400.97,446.26L400.97,446.26z"/>
		</g>
	</g>
	<g>
		<g>
			<path class="st0" d="M530.81,511.13c69.68-0.43,139.3-7.14,207.82-19.81c19.35-3.58,38.6-7.67,57.75-12.22
				c9.17-2.18,15.49-13.12,12.57-22.14c-3.09-9.55-12.32-14.91-22.14-12.57c-32.96,7.83-66.24,14.26-99.76,19.18
				c-9.41,1.38-13.01,1.87-22.07,2.98c-8.65,1.06-17.3,2.03-25.97,2.89c-16.69,1.67-33.42,2.97-50.17,3.91
				c-19.33,1.08-38.68,1.66-58.03,1.78c-9.41,0.06-18.44,8.24-18,18C513.24,502.83,520.72,511.19,530.81,511.13L530.81,511.13z"/>
		</g>
	</g>
	<g>
		<g>
			<path class="st0" d="M799.77,473.42c6.51-0.44,13.02-0.89,19.53-1.33c9.37-0.64,18.46-7.82,18-18c-0.41-9.2-7.94-18.69-18-18
				c-6.51,0.44-13.02,0.89-19.53,1.33c-9.37,0.64-18.46,7.82-18,18C782.18,464.62,789.71,474.1,799.77,473.42L799.77,473.42z"/>
		</g>
	</g>
	<g>
		<g>
			<path class="st0" d="M943.08,403.6c-37.38,9.87-72.27,27.33-106.13,45.63c-16.63,8.99-33.12,18.23-49.88,26.95
				c-8.2,4.26-16.46,8.41-24.82,12.32c-4.04,1.89-8.1,3.73-12.19,5.5c-0.82,0.36-4.07,1.72-0.75,0.34c-0.96,0.4-1.93,0.8-2.9,1.2
				c-2.41,0.99-4.84,1.94-7.28,2.88c-9.71,3.72-19.59,6.99-29.64,9.65c-4.78,1.27-9.6,2.39-14.44,3.36
				c-2.56,0.51-5.13,0.98-7.71,1.41c-1.29,0.21-2.59,0.4-3.88,0.61c-3.97,0.62,2.9-0.35-1.47,0.18c-9.31,1.12-18.47,7.47-18,18
				c0.39,8.79,7.99,19.21,18,18c39.93-4.81,76.88-19.01,112.67-36.94c34-17.04,66.56-36.85,100.95-53.13
				c4.78-2.26,9.6-4.46,14.45-6.56c0.46-0.2,3.53-1.51,1.49-0.65c-1.93,0.82,2.47-1.01,2.97-1.21c2.44-0.99,4.89-1.96,7.36-2.89
				c10.09-3.84,20.36-7.18,30.8-9.94c9.1-2.4,15.54-12.96,12.57-22.14C962.2,406.81,952.84,401.02,943.08,403.6L943.08,403.6z"/>
		</g>
	</g>
	<g>
		<g>
			<path class="st0" d="M984.99,372.8c-2.63,2.69-5.41,5.16-8.31,7.57c-1.91,1.59,2.57-1.77,0.49-0.41
				c-0.74,0.48-1.44,1.03-2.16,1.52c-1.64,1.12-3.33,2.16-5.03,3.18c-8.1,4.81-11.75,16.42-6.46,24.63
				c5.25,8.15,15.96,11.6,24.63,6.46c8.11-4.82,15.71-10.73,22.3-17.48c6.59-6.74,7.22-18.83,0-25.46
				C1003.33,366.27,992.03,365.61,984.99,372.8L984.99,372.8z"/>
		</g>
	</g>
</g>
<g id="Layer_1">
	<g>
		<g>
			<path d="M186.45,189.31c114.17,33.86,233.12,49.96,351.98,53.71c118.43,3.74,236.96-4.61,354.49-18.77
				c67.03-8.08,133.82-17.99,200.45-28.83c9.32-1.52,15.34-13.58,12.57-22.14c-3.27-10.1-12.15-14.2-22.14-12.57
				c-116.93,19.03-229.37,34.66-348.56,42.45c-116.74,7.63-233.83,6.4-349.97-8.33c-3.5-0.44,4.25,0.59-1.67-0.22
				c-2.46-0.34-4.91-0.68-7.37-1.03c-4.3-0.61-8.59-1.24-12.88-1.89c-7.97-1.21-15.93-2.49-23.87-3.84
				c-15.9-2.71-31.75-5.71-47.54-9.02c-32.29-6.76-64.3-14.83-95.93-24.21c-9.02-2.68-20.01,3.22-22.14,12.57
				C171.68,176.84,176.79,186.45,186.45,189.31L186.45,189.31z"/>
		</g>
	</g>
	<g>
		<g>
			<path d="M182.15,187.5c10.64,5.42,21.01,11.36,31.03,17.84c5.01,3.24,9.94,6.62,14.77,10.12c2.2,1.59,4.37,3.22,6.54,4.85
				c4.29,3.23-2.68-2.2,1.5,1.17c1.27,1.02,2.55,2.03,3.81,3.06c18.52,15.07,35.48,32.05,50.52,50.6c1.02,1.26,2.03,2.54,3.05,3.82
				c3.35,4.2-2.04-2.8,1.16,1.51c1.62,2.18,3.25,4.35,4.83,6.55c3.58,4.98,7.03,10.05,10.32,15.22c3.53,5.53,6.86,11.19,9.87,17.02
				c1.37,2.65,2.63,5.33,3.88,8.04c2.4,5.21-1.05-3.1,0.94,2.28c0.62,1.68,1.26,3.34,1.83,5.03c2.25,6.6,3.92,13.39,5.25,20.23
				c1.48,7.64,2,11.78,2.72,17.83c1.7,14.31,3.01,28.66,3.98,43.04c2.2,32.73,2.47,65.56,0.94,98.33c-0.44,9.42,8.59,18.42,18,18
				c10.13-0.45,17.53-7.91,18-18c1.41-30.14,1.29-60.34-0.45-90.47c-0.87-15.06-2.14-30.1-3.8-45.09
				c-1.69-15.16-3.45-30.48-7.44-45.24c-7.19-26.61-22.21-50.48-38.77-72.22c-15.6-20.48-32.94-39.42-52.5-56.18
				c-21.99-18.85-46.01-35.26-71.81-48.41c-8.38-4.27-19.91-2.47-24.63,6.46C171.35,171.09,173.2,182.93,182.15,187.5L182.15,187.5z
				"/>
		</g>
	</g>
	<g>
		<g>
			<path d="M1062.12,176.74c2.17,6.56,3.99,13.21,5.39,19.97c0.67,3.23,1.22,6.47,1.73,9.73c0.13,0.81,0.36,3.53-0.03-0.27
				c0.08,0.75,0.18,1.51,0.26,2.26c0.19,1.76,0.36,3.52,0.51,5.28c0.55,6.8,0.72,13.62,0.53,20.44c-0.09,3.29-0.26,6.57-0.52,9.85
				c-0.14,1.77-0.3,3.53-0.48,5.3c-0.08,0.76-0.16,1.51-0.25,2.27c-0.06,0.49-0.63,4.71-0.26,2.14c0.31-2.12-0.35,2.2-0.47,2.89
				c-0.29,1.76-0.59,3.52-0.92,5.27c-0.66,3.51-1.41,7.01-2.24,10.49c-1.61,6.74-3.53,13.42-5.73,19.99
				c-1.06,3.18-2.19,6.34-3.39,9.48c-0.55,1.45-1.12,2.9-1.7,4.34c-0.39,0.96-0.78,1.92-1.18,2.88c0.65-1.58,0.68-1.57-0.02-0.01
				c-2.86,6.42-5.89,12.74-9.22,18.93c-6.66,12.41-14.29,24.29-22.76,35.54c-0.3,0.4-2.31,3-0.97,1.28
				c1.24-1.58-0.37,0.46-0.52,0.64c-0.98,1.22-1.95,2.44-2.94,3.64c-2.3,2.81-4.67,5.57-7.08,8.29c-4.92,5.54-10.07,10.86-15.4,16
				c-5.41,5.22-11,10.26-16.75,15.12c-2.76,2.33-5.55,4.63-8.38,6.88c-0.7,0.56-3.87,3.04-1.61,1.29c-1.76,1.36-3.54,2.69-5.32,4.01
				c-12.07,8.94-24.65,17.2-37.58,24.85c-13,7.7-26.36,14.8-39.94,21.43c-6.82,3.33-13.7,6.54-20.62,9.65
				c-3.34,1.5-6.69,2.97-10.05,4.43c-1.81,0.78-3.62,1.56-5.44,2.33c-1.91,0.82,0.09-0.04,0.41-0.17c-1.04,0.43-2.08,0.87-3.12,1.3
				c-29.54,12.25-59.65,23.36-90.03,33.34c-16.3,5.35-32.76,10.22-49.48,14.11c-8.34,1.94-16.75,3.64-25.2,5.03
				c-2.21,0.36-4.43,0.7-6.65,1.03c-2.12,0.31-0.45,0.08-0.02,0.02c-0.96,0.13-1.93,0.25-2.89,0.37c-4.81,0.59-9.64,1.09-14.47,1.5
				c-34.75,2.95-69.76,1.54-104.49-1.13c-17.15-1.32-34.27-3.04-51.34-5.17c-2.21-0.28-4.42-0.56-6.64-0.85
				c-2.13-0.28-0.37-0.04,0.05,0.01c-0.95-0.13-1.89-0.26-2.84-0.39c-4.42-0.61-8.83-1.25-13.24-1.91
				c-8.5-1.28-16.99-2.66-25.47-4.15c-34.2-5.98-68.12-13.6-101.59-22.82c-8.29-2.28-16.55-4.67-24.79-7.15
				c-9.02-2.71-20.02,3.24-22.14,12.57c-2.21,9.7,2.92,19.24,12.57,22.14c69,20.72,139.94,34.52,211.62,41.62
				c35.8,3.54,71.96,5.85,107.94,4.46c36.6-1.41,72.57-7.7,107.68-18.05c32.27-9.51,64.02-21.18,95.3-33.54
				c30.18-11.93,60.01-24.99,88.47-40.63c54.75-30.08,104.9-70.32,138.15-123.87c31.79-51.21,47.82-113.36,35.75-173.14
				c-1.42-7.02-3.3-13.92-5.55-20.72c-2.95-8.92-12.56-15.67-22.14-12.57C1065.8,157.48,1058.96,167.17,1062.12,176.74
				L1062.12,176.74z"/>
		</g>
	</g>
	<g>
		<g>
			<path d="M365.29,403.49c90.77,4.14,181.7,1.75,272.3-4.75c89.99-6.45,179.64-16.9,269.06-28.8
				c51.07-6.8,102.08-14.04,153.08-21.32c9.35-1.34,15.3-13.71,12.57-22.14c-3.32-10.25-12.12-14-22.14-12.57
				c-89.59,12.79-173.67,24.77-263.5,34.89c-89.44,10.07-179.23,17.57-269.23,19.96c-50.71,1.35-101.47,1.04-152.15-1.26
				c-9.42-0.43-18.42,8.59-18,18C347.74,395.61,355.2,403.03,365.29,403.49L365.29,403.49z"/>
		</g>
	</g>
</g>
</svg>
