<?xml version="1.0" encoding="utf-8"?>
<!-- Generator: Adobe Illustrator 24.1.3, SVG Export Plug-In . SVG Version: 6.00 Build 0)  -->
<svg version="1.1" xmlns="http://www.w3.org/2000/svg" xmlns:xlink="http://www.w3.org/1999/xlink" x="0px" y="0px"
	 viewBox="0 0 1280 720" style="enable-background:new 0 0 1280 720;" xml:space="preserve">
<style type="text/css">
	.st0{fill:#FF0000;}
	.st1{fill:none;stroke:#000000;stroke-width:22;stroke-miterlimit:10;}
</style>
<g id="Color">
	<g>
		<g>
			<path class="st0" d="M568.41,510.19c49.34-34.05,103.92-59.94,161.62-76.25c16.54-4.68,33.3-8.55,50.2-11.68
				c-4.52-5.88-9.03-11.75-13.55-17.63c-8.76,17.46-17.43,34.97-26.29,52.38c-7.76,15.26-16.31,29.37-29.56,40.49
				c-23.65,19.85-56.91,26.95-86.9,22.07c-20.04-3.26-38.82-10.59-56.15-21.07c0,6.91,0,13.82,0,20.72
				c8.53-5.57,19.82-5.57,27.38,0.99c2.83-6.83,5.66-13.66,8.49-20.49c2.59-0.11,3.85,2.09,4.65,3.91c0.69,1.56-1.04,1.14,0.81,0.15
				c4.02-2.17,7.67-4.27,11.79-5.87c-0.02,0.01-0.88-1.54-0.9-1.03c0.26,0.26,0.52,0.52,0.79,0.78c-0.39-0.26-0.63-0.6-0.71-1.04
				c-0.2-0.6-0.19-0.56,0.01,0.11c0.23,0.88,0.22,0.7-0.02-0.54c0.73-2.06,0.41-2.05,2.56-3.77c1.04-1.59,2.4-2,4.08-1.23
				c1.63-0.23,2.82,0.38,3.57,1.82c0.4,0.88-0.17,2.2-0.14,2.85c0.02,0.61,1.12-1.4,0.38-0.68c-0.82,0.79,2.06-1.3,2.07-1.3
				c-5.88-4.52-11.75-9.03-17.63-13.55c-2.12,11.18-5.47,22.05-10.45,32.3c-5.77,11.86,8.71,24.57,18.85,14.54
				c15.8-15.63,31.6-31.25,47.4-46.88c9.86-9.75-2.65-25.22-14.54-18.85c-12.18,6.52-24.35,13.04-36.53,19.56
				c4.85,6.28,9.69,12.56,14.54,18.85c17.69-19.19,37.91-35.44,60.51-48.49c-5.47-5.47-10.95-10.95-16.42-16.42
				c-2.92,4.97-7.09,7.96-12.57,9.37c2.13,7.71,4.25,15.43,6.38,23.14c22.85-7.59,45.95-14.35,69.29-20.28
				c-4.52-5.88-9.03-11.75-13.55-17.63c-12.58,21.29-25.17,42.59-37.75,63.88c-5.95,10.06,6.16,23.04,16.42,16.42
				c13.7-8.85,23.36-21.68,31.33-35.7c7.18-12.64,13.7-27.42,22.22-38.33c3.99-5.1,4.98-11.99,0-16.97c-4.3-4.3-12.75-4.96-16.97,0
				c-17.42,20.48-34.84,40.96-52.26,61.43c-6.62,7.78-13.33,17.09-23.01,21.25c-10.15,4.36-21.95,3.72-32.73,3.51
				c3.45,1.98,6.91,3.96,10.36,5.94c-0.18-0.4-0.36-0.79-0.54-1.19c0.55,2.02,1.09,4.04,1.64,6.06c-1.94,3.68-2,4.53-0.18,2.56
				c0.55-0.45,1.1-0.89,1.66-1.33c0.59-0.46,1.21-0.92,2.13-1.6c2.53-1.88,5.09-3.71,7.63-5.56c5.31-3.85,10.62-7.75,15.61-12.01
				c9.81-8.37,17.85-18.82,21.17-31.45c3.23-12.28-11.19-19.07-20.06-11.68c-14.69,12.25-22.94,31.69-21.86,50.76
				c0.56,9.93,12.96,16.4,20.49,8.49c14.4-15.16,26.61-32.34,35.94-51.05c-6.91,0-13.82,0-20.72,0c1.71,3.49,4.06,6.6,6.76,9.38
				c10.78,11.1,27.74-5.88,16.97-16.97c-1.37-1.42-2.13-2.73-3.01-4.53c-3.85-7.88-16.84-7.79-20.72,0
				c-8.46,16.96-19.13,32.45-32.19,46.19c6.83,2.83,13.66,5.66,20.49,8.49c-0.75-13.21,4.41-25.09,14.83-33.78
				c-6.69-3.89-13.37-7.78-20.06-11.68c-2.78,10.58-11.82,18.8-21.05,25.68c-12.06,8.98-33.88,19.2-25.66,37.33
				c1.72,3.79,6.46,5.87,10.36,5.94c12.48,0.25,25.64,0.34,37.58-3.8c13.05-4.52,22.64-13.37,31.47-23.68
				c18.71-21.85,37.28-43.82,55.92-65.73c-5.66-5.66-11.31-11.31-16.97-16.97c-9.58,12.26-16.44,25.85-23.89,39.43
				c-6.67,12.16-13.73,23.69-24.81,30.85c5.47,5.47,10.95,10.95,16.42,16.42c12.58-21.29,25.17-42.59,37.75-63.88
				c5.42-9.16-3.52-20.18-13.55-17.63c-23.33,5.93-46.44,12.69-69.29,20.28c-14.57,4.84-8.7,27.03,6.38,23.14
				c11.39-2.94,20.97-10.28,26.92-20.4c6.11-10.4-6.06-22.4-16.42-16.42c-24.25,14-46.39,31.66-65.37,52.24
				c-9.24,10.03,2.36,25.37,14.54,18.85c12.18-6.52,24.35-13.04,36.53-19.56c-4.85-6.28-9.69-12.56-14.54-18.85
				c-15.8,15.63-31.6,31.25-47.4,46.88c6.28,4.85,12.56,9.69,18.85,14.54c5.9-12.13,10.35-24.78,12.87-38.03
				c1.95-10.26-7.98-18.69-17.63-13.55c-7.62,4.06-13.75,11.78-13.95,20.69c-0.2,8.9,5.72,17.5,14.3,20.12
				c9.14,2.8,19.39-2.57,22.27-11.63c2.32-7.28,0.19-15.63-4.98-21.21c-12.57-13.58-33.55-5.21-45.32,5.21
				c-6.39,5.66-10.05,14.31-7.76,22.79c2.26,8.36,9.73,14.98,18.62,14.59c9.64-0.42,16.79-13.28,8.49-20.49
				c-15.59-13.52-38.84-16.23-56.46-4.74c-7.53,4.91-7.97,15.91,0,20.72c33.94,20.52,74.35,30.59,113.71,23.11
				c37.04-7.04,67.92-29.96,86.19-62.73c11.42-20.48,21.31-41.91,31.82-62.86c4.89-9.75-3.12-19.56-13.55-17.63
				c-60.58,11.22-119.31,32.53-173.08,62.61c-15.26,8.54-30.08,17.81-44.47,27.74c-5.33,3.68-7.75,10.53-4.3,16.42
				C555.08,511.16,563.05,513.89,568.41,510.19L568.41,510.19z"/>
		</g>
	</g>
</g>
<g id="Layer_1">
	<ellipse class="st1" cx="640.5" cy="342.18" rx="161.49" ry="206.32"/>
	<g>
		<g>
			<path d="M544.33,506.71c54.54-45,119.33-77.33,187.85-94.61c19.18-4.84,38.67-8.57,58.31-10.93c6.43-0.77,12-4.96,12-12
				c0-5.89-5.52-12.78-12-12c-75.01,9-147.63,34.39-211.47,74.92c-18,11.43-35.21,24.08-51.66,37.65c-5,4.13-4.27,12.7,0,16.97
				C532.31,511.66,539.31,510.85,544.33,506.71L544.33,506.71z"/>
		</g>
	</g>
	<g>
		<g>
			<path d="M548.16,474.91c-1.69-42.91-5.73-85.66-11.86-128.16c-0.84-5.82-7.92-9.38-13.17-8.6c-5.46,0.82-10.92,5.75-10.4,11.79
				c3.06,36.07,2.2,72.54-3.19,108.34c4.92-2.79,9.84-5.59,14.76-8.38c0.3,0.1,1.64,1.22,1.75,1.23c-0.53-0.06-0.58-1.34-0.7-1.78
				c-0.09-0.34-0.78-3.78-0.52-2c-0.17-1.17-0.2-2.37-0.28-3.55c-0.49-7.58-0.9-15.17-1.33-22.76c-0.85-15.17-1.64-30.35-2.37-45.53
				c-8,0-16,0-24,0c2.48,22,5.16,44.68-0.88,66.33c7.71,0,15.43,0,23.14,0c-11.18-46.17-10.58-94.56,1.62-140.47
				c-7.71,0-15.43,0-23.14,0c4.63,22.49,5.33,45.95,1.75,68.65c7.71,0,15.43,0,23.14,0c-5.53-23.85-6.85-48.83-3.32-73.09
				c-7.71,0-15.43,0-23.14,0c2.03,8.04-0.16,15.45-5.26,22.11c6.28-0.81,12.56-1.62,18.85-2.43c-11.4-11.77,2.81-34.87,8.37-47.3
				c8.42-18.81,17.46-37.38,29.02-54.48c3.63-5.37,1.03-13.3-4.3-16.42c-5.91-3.46-12.78-1.08-16.42,4.31
				c-13.28,19.64-23.19,41.17-32.71,62.81c-5.09,11.55-10.5,22.92-11.77,35.64c-1.18,11.82,2.54,23.86,10.84,32.43
				c5.93,6.12,14.3,3.5,18.85-2.43c8.79-11.47,11.18-26.74,7.68-40.6c-1.29-5.09-6.39-8.81-11.57-8.81
				c-4.81,0-10.83,3.68-11.57,8.81c-4.18,28.75-3.26,57.5,3.32,85.85c2.55,10.98,21.27,11.9,23.14,0
				c4.29-27.21,3.81-54.41-1.75-81.41c-2.44-11.84-20.21-11.02-23.14,0c-13.3,50.05-13.81,102.9-1.62,153.23
				c2.83,11.68,20.03,11.16,23.14,0c6.65-23.86,4.47-48.45,1.73-72.71c-0.73-6.44-5-12-12-12c-6.26,0-12.31,5.49-12,12
				c0.89,18.48,1.86,36.96,2.94,55.43c0.92,15.86,0.06,35.83,18.13,42.11c5.61,1.95,13.84-2.25,14.76-8.38
				c5.73-38.03,7.3-76.39,4.05-114.72c-7.86,1.06-15.71,2.13-23.57,3.19c5.82,40.36,9.4,81.04,11.01,121.78c0.25,6.48,5.33,12,12,12
				C542.47,486.91,548.42,481.42,548.16,474.91L548.16,474.91z"/>
		</g>
	</g>
	<g>
		<g>
			<path d="M527.49,208.32c2.97,33.71,0.81,67.53-6.84,100.5c6.69-1.77,13.37-3.53,20.06-5.3c-13-14.66-10.88-38.01-9.43-57.18
				c-8,0-16,0-24,0c0.24,28.59-3.86,56.7-12.19,84.04c7.86,1.06,15.71,2.13,23.57,3.19c-4.14-37.92,2.82-76.63,18.93-111.17
				c7.15-15.33,15.59-28.37,28.8-38.9c10.85-8.65,24.45-14.71,38.39-18.11c28.67-7,58.77-1.79,84.78,13.62
				c27.27,16.16,48.17,41.47,61.57,70.14c17.78,38.01,21.64,81.18,19.12,122.59c4-4,8-8,12-12c-13.61,1.09-26.22,5.15-39.03,9.6
				c-12.79,4.44-25.75,8.37-38.9,11.61c-25.64,6.33-51.74,10.1-78.12,11.38c-6.47,0.31-12,5.29-12,12c0,6.25,5.5,12.32,12,12
				c27.19-1.32,54.33-5.07,80.82-11.35c12.89-3.06,25.63-6.72,38.17-10.98c12.05-4.09,24.26-9.24,37.06-10.26
				c6.78-0.54,11.58-5.07,12-12c2.48-40.8-1.33-83.11-16.63-121.32c-13.85-34.59-36.29-65.14-67.11-86.46
				c-29.59-20.47-65.27-29.2-100.86-23.89c-35.05,5.23-66.83,25.1-85.13,55.66c-24.14,40.32-34.95,91.26-29.86,137.86
				c0.65,5.93,4.07,11.03,10.4,11.79c5.97,0.71,11.39-2.76,13.17-8.6c8.91-29.24,13.3-59.86,13.04-90.42c-0.06-6.48-5.48-12-12-12
				c-6.9,0-11.51,5.51-12,12c-1.97,25.94-1.77,53.59,16.46,74.15c5.92,6.67,18.08,3.22,20.06-5.3c8.12-34.98,10.86-71.1,7.7-106.88
				c-0.57-6.46-5.11-12-12-12C533.44,196.32,526.92,201.83,527.49,208.32L527.49,208.32z"/>
		</g>
	</g>
	<g>
		<g>
			<path d="M642.3,398.7c-11.13-0.63-22.59-0.7-33.29,2.91c-10.15,3.43-18.94,9.04-27.19,15.78c-15.8,12.91-27.4,30.12-43.47,42.75
				c5.66,0,11.31,0,16.97,0c-0.23-0.27-0.45-0.54-0.68-0.81c1.17,2.83,2.34,5.66,3.51,8.49c-3.76,4.98-4.35,6.74-1.77,5.28
				c0.85-0.41,1.71-0.81,2.57-1.22c1.71-0.81,3.43-1.61,5.15-2.41c3.15-1.46,6.31-2.89,9.49-4.31c6.26-2.79,12.56-5.5,18.91-8.09
				c13.44-5.5,27.05-10.58,40.78-15.31c6.13-2.11,10.18-8.23,8.38-14.76c-1.64-5.96-8.61-10.5-14.76-8.38
				c-18.3,6.3-36.34,13.3-54.14,20.9c-8.71,3.72-17.35,7.59-25.92,11.64c-10.57,4.98-17.19,15.6-8.49,25.95
				c4.51,5.37,12.25,3.71,16.97,0c14.77-11.61,25.73-27.04,39.68-39.5c5.76-5.14,12.31-9.9,19.61-12.59
				c8.93-3.3,18.33-2.84,27.68-2.31c6.48,0.37,12-5.78,12-12C654.3,403.89,648.8,399.07,642.3,398.7L642.3,398.7z"/>
		</g>
	</g>
	<g>
		<g>
			<path d="M559.99,449.58c0.09-26.48,0.17-52.96,0.26-79.44c0.08-23.48,1.89-47.82-13.27-67.41c-5.59-7.23-18.14-2.77-20.06,5.3
				c-3.99,16.8-7.57,33.68-10.74,50.66c7.31-0.96,14.62-1.91,21.93-2.87c-11.56-18.79,0.37-41.92,7.82-59.92
				c9.52-22.99,16.81-46.79,24.07-70.56c-7.86-1.06-15.71-2.13-23.57-3.19c-1.19,55.14-4.55,110.2-10.08,165.07c8,0,16,0,24,0
				c0.39-50.68,8.21-100.83,23.15-149.26c-7.71-2.13-15.43-4.25-23.14-6.38c-7.35,36.99-14.69,73.99-20.69,111.23
				c-3.09,19.18-5.82,38.42-8.05,57.72c-1.63,14.04-6.6,38.4,12.28,43.52c11.36,3.08,19.94-7.56,27.38-14.32
				c7.95-7.21,15.9-14.43,23.84-21.64c-5.66-5.66-11.31-11.31-16.97-16.97c-6.97,8.04-13.95,16.07-20.92,24.11
				c-4.24,4.89-4.81,12.16,0,16.97c4.57,4.57,12.41,4.63,16.97,0c10.33-10.5,23.51-17.49,37.1-22.91
				c16.29-6.5,33.04-11.97,49.88-16.83c33.82-9.77,68.49-16.63,103.51-20.25c8.28-0.86,12.98-6.94,11.57-15.19
				c-7.2-42.09-18.85-83.29-34.75-122.93c-6.69,3.89-13.37,7.78-20.06,11.68c16.49,19.79,27.96,43.26,34.16,68.2
				c7.31-3.08,14.62-6.16,21.93-9.25c-11.5-25.67-23.01-51.35-34.51-77.02c-9.6-21.42-21.76-53.91-51.21-50.56
				c-6.44,0.73-12,4.99-12,12c0,5.92,5.52,12.74,12,12c8.84-1.01,14.47,5.53,18.68,13.16c5.77,10.45,10.14,21.79,15.02,32.67
				c10.43,23.28,20.87,46.57,31.3,69.85c2.41,5.38,10.04,7.08,14.99,4.91c5.51-2.42,8.42-8.22,6.95-14.16
				c-7.23-29.1-21.17-55.8-40.33-78.79c-7.46-8.95-24.48,0.65-20.06,11.68c15.9,39.63,27.55,80.83,34.75,122.93
				c3.86-5.06,7.71-10.13,11.57-15.19c-37.8,3.91-75.22,10.98-111.71,21.64c-17.29,5.05-34.52,10.7-51.18,17.57
				c-16.39,6.76-32.01,15.05-44.57,27.81c5.66,5.66,11.31,11.31,16.97,16.97c6.97-8.04,13.95-16.07,20.92-24.11
				c10.09-11.63-5.44-27.43-16.97-16.97c-7.71,7-15.41,13.99-23.12,20.99c-1.93,1.75-3.85,3.5-5.78,5.25
				c-0.96,0.87-1.93,1.75-2.89,2.62c-1.66,1.29-2,1.65-1.01,1.08c2.75-0.98,5.35-0.46,7.8,1.56c0.51,0.42,0.83,0.96,0.96,1.6
				c-0.26-0.76-0.46-1.53-0.61-2.32c0.14,1.16,0.15,1.01,0.04-0.46c-0.07-9.8,1.91-19.98,3.12-29.7c1.24-9.99,2.65-19.96,4.16-29.92
				c6.31-41.51,14.49-82.69,22.67-123.86c2.99-15.05-18.55-21.28-23.14-6.38c-15.53,50.34-23.61,102.96-24.01,155.64
				c-0.05,6.48,5.55,12,12,12c7.03,0,11.35-5.52,12-12c5.53-54.87,8.89-109.94,10.08-165.07c0.3-13.78-19.68-15.96-23.57-3.19
				c-7.81,25.6-15.89,51.01-26.22,75.72c-9.7,23.22-17.53,50.04-3.25,73.26c5.02,8.16,19.95,7.75,21.93-2.87
				c3.17-16.97,6.75-33.86,10.74-50.66c-6.69,1.77-13.37,3.53-20.06,5.3c4.76,6.16,5.71,15.17,6.09,22.74
				c0.56,11.19,0.17,22.46,0.13,33.66c-0.08,24.49-0.16,48.99-0.24,73.48C535.94,465.03,559.94,465.05,559.99,449.58L559.99,449.58z
				"/>
		</g>
	</g>
	<g>
		<g>
			<path d="M702.66,177.46c-15.64-2.94-28.99-11.34-43.33-17.76c-16.3-7.29-32.73-11.32-50.57-7.89
				c-36.54,7.02-59.65,39.56-75.39,70.59c-6.32,12.47,8.41,23.27,18.85,14.54c29.08-24.32,61.71-51.8,100.88-56.15
				c-1.06-7.86-2.13-15.71-3.19-23.57c-27.04,10.6-52.68,24.11-76.38,40.92c-4.86,3.45-7.45,9.21-4.91,14.99
				c2.4,5.45,8.25,8.51,14.16,6.95c13.24-3.49,26.62-6.27,40.16-8.32c-3.08-7.31-6.16-14.62-9.25-21.93
				c-13.4,7.17-27.26,13.15-41.69,17.93c2.13,7.71,4.25,15.43,6.38,23.14c33.26-12.75,68.04-21.92,103.39-26.49
				c6.43-0.83,12-4.92,12-12c0-5.9-5.52-12.76-12-12c-20.81,2.45-41.63,4.9-62.44,7.36c-6.44,0.76-12,4.97-12,12
				c0,6.5,5.49,12.01,12,12c35.54-0.05,70.94,3.22,105.83,10.01c0-7.71,0-15.43,0-23.14c-33.65,10.01-68.18,16.68-103.17,19.6
				c-6.46,0.54-12,5.13-12,12c0,6.31,5.49,12.25,12,12c21.89-0.83,43.79-1.65,65.68-2.48c15.38-0.58,15.52-24.01,0-24
				c-28.51,0.01-57.02,0.02-85.54,0.03c-15.47,0.01-15.43,23.59,0,24c17.73,0.47,35.34-0.97,52.83-3.88
				c5.81-0.97,9.4-7.82,8.6-13.17c-0.96-6.38-5.68-9.63-11.79-10.4c-19.59-2.48-39.14-1.67-58.58,1.72
				c-13.28,2.32-10.26,24.37,3.19,23.57c18.95-1.12,37.9-2.24,56.84-3.37c-1.06-7.86-2.13-15.71-3.19-23.57
				c-25.39,9.95-51.6,20.23-79.37,18.08c1.06,7.86,2.13,15.71,3.19,23.57c46.98-6.81,94.94-6.87,142.01-0.97
				c-1.06-7.86-2.13-15.71-3.19-23.57c-11.18,3.86-23.1,0.8-34.57,0.11c-14.1-0.85-26.53,2.78-38.53,10.11
				c-21.3,13.01-42.91,27.44-69.07,24.67c2.02,7.45,4.04,14.91,6.06,22.36c24.7-15.07,54.47-15.54,82.54-16.05
				c-1.06-7.86-2.13-15.71-3.19-23.57c-29.3,5.05-58.98,7.38-88.71,7.27c0,8,0,16,0,24c47.37-4.93,95.06-6.09,142.62-3.48
				c-1.06-7.86-2.13-15.71-3.19-23.57c-44.77,7.56-89.55,15.11-134.32,22.67c-13.18,2.22-10.25,25.32,3.19,23.57
				c60.21-7.85,120.58-14.46,181.07-19.82c6.46-0.57,12-5.11,12-12c0-6.34-5.49-12.22-12-12c-15.8,0.52-31.57,1.01-46.69-4.28
				c2.39,5.88,4.78,11.75,7.17,17.63c0.84-1.71-0.66,0.19-1.92,0.68c1.02-0.39,1.2-0.37-0.02-0.23c0.72-0.08,1.52-0.07,2.24,0.01
				c-1.92-0.2,0.13-0.02,0.16,0.22c-0.91-0.46-0.99-0.49-0.24-0.1c0.59,0.38,0.66,0.37,0.21-0.01c-0.99-0.94,0.73,0.7,0.5,0.4
				c0.17,0.23,0.84,1.23,1.12,1.74c3.37,6.18,3.15,15.73,3.96,23.45c2.25,21.44,4.5,42.87,6.74,64.31
				c7.86-1.06,15.71-2.13,23.57-3.19c-10.59-38.09-19.24-76.69-25.9-115.66c-0.99-5.8-7.8-9.4-13.17-8.6
				c-5.78,0.87-10.48,5.7-10.4,11.79c0.44,37.39,0.88,74.77,1.31,112.16c7.45-2.02,14.91-4.04,22.36-6.06
				c-9.61-19.44-13.18-41.28-16.85-62.45c-1-5.8-7.79-9.4-13.17-8.6c-6.03,0.91-10.12,5.68-10.4,11.79
				c-1.24,26.59,1.73,53.35,8.62,79.06c6.69-3.89,13.37-7.78,20.06-11.68c-5.01-4.53-8.76-10.19-10.85-15.52
				c-2.94-7.49-4.59-15.46-6.05-23.35c-3.08-16.68-5.48-33.17-12.85-48.64c-5.26-11.03-22.46-5.28-22.36,6.06
				c0.28,33.06,0.57,66.12,0.85,99.17c7.86-1.06,15.71-2.13,23.57-3.19c-10.66-27.92-21.33-55.83-31.99-83.75
				c-2.13-5.57-6.91-9.54-13.17-8.6c-5.42,0.81-10.98,5.76-10.4,11.79c2.62,27.51,7.37,54.75,14.49,81.46
				c3.59,13.48,22.82,10.04,23.57-3.19c1.6-28.09,3.2-56.18,4.8-84.27c0.69-12.13-16.61-16-22.36-6.06
				c-19.26,33.28-22.31,72.12-24.68,109.67c7.45-2.02,14.91-4.04,22.36-6.06c-10.82-21.72-12.59-46.57-14.38-70.37
				c-7.86,1.06-15.71,2.13-23.57,3.19c2.67,14.12,3.32,28.45,2.41,42.79c7.86-1.06,15.71-2.13,23.57-3.19
				c-6.34-27.83-8.45-56.24-6.64-84.72c-7.86,1.06-15.71,2.13-23.57,3.19c8.97,27.59,7.25,57.99-5.8,84.03
				c-2.9,5.79-1.54,13,4.3,16.42c5.32,3.11,13.51,1.51,16.42-4.31c15.86-31.68,19.2-68.72,8.22-102.53
				c-4.25-13.06-22.71-10.37-23.57,3.19c-1.94,30.55,0.7,61.26,7.5,91.1c1.31,5.76,7.55,9.44,13.17,8.6
				c6.11-0.92,10.01-5.67,10.4-11.79c1.05-16.5-0.19-32.93-3.27-49.17c-2.49-13.18-24.58-10.32-23.57,3.19
				c2.12,28.3,4.82,56.72,17.65,82.49c2.34,4.7,8.69,6.85,13.55,5.51c5.3-1.46,8.48-6.27,8.81-11.57
				c2.09-33.24,4.34-68.07,21.4-97.56c-7.45-2.02-14.91-4.04-22.36-6.06c-1.6,28.09-3.2,56.18-4.8,84.27
				c7.86-1.06,15.71-2.13,23.57-3.19c-6.57-24.63-11.21-49.7-13.63-75.08c-7.86,1.06-15.71,2.13-23.57,3.19
				c10.66,27.92,21.33,55.83,31.99,83.75c2.13,5.57,6.91,9.54,13.17,8.6c5.79-0.87,10.46-5.7,10.4-11.79
				c-0.28-33.06-0.57-66.12-0.85-99.17c-7.45,2.02-14.91,4.04-22.36,6.06c6.44,13.49,8.12,31.52,11.23,47.07
				c3.36,16.78,9.26,33.53,22.28,45.3c8.71,7.87,23.26,0.29,20.06-11.68c-6.38-23.79-8.92-48.08-7.77-72.68
				c-7.86,1.06-15.71,2.13-23.57,3.19c4.06,23.46,8.63,46.67,19.27,68.19c5.38,10.88,22.5,5.4,22.36-6.06
				c-0.44-37.39-0.88-74.77-1.31-112.16c-7.86,1.06-15.71,2.13-23.57,3.19c6.66,38.97,15.31,77.57,25.9,115.66
				c1.59,5.71,7.34,9.47,13.17,8.6c5.38-0.81,11.04-5.77,10.4-11.79c-2.92-27.83-4.91-55.94-8.92-83.63
				c-1.6-11.06-6.29-22.74-17.06-27.72c-10.86-5.03-25.8-2.91-31.52,8.77c-3.57,7.28-0.5,14.94,7.17,17.63
				c17.03,5.95,35.28,5.73,53.07,5.14c0-8,0-16,0-24c-60.49,5.35-120.86,11.96-181.07,19.82c1.06,7.86,2.13,15.71,3.19,23.57
				c44.77-7.56,89.55-15.11,134.32-22.67c5.81-0.98,9.4-7.81,8.6-13.17c-0.91-6.07-5.68-10.07-11.79-10.4
				c-47.56-2.61-95.25-1.44-142.62,3.48c-6.45,0.67-12,5.04-12,12c0,6.53,5.49,11.98,12,12c31.89,0.12,63.67-2.71,95.09-8.13
				c13.46-2.32,10.12-23.81-3.19-23.57c-32.34,0.58-66.26,2.01-94.65,19.32c-4.55,2.77-6.94,8.36-5.51,13.55
				c1.5,5.45,6.26,8.25,11.57,8.81c27.87,2.96,53.89-10.59,76.66-25.09c5.06-3.22,10.2-6.8,15.99-8.54
				c5.43-1.64,11.01-1.45,16.63-1.03c13.23,0.99,26.36,3.38,39.28-1.08c5.62-1.94,9.51-7.06,8.6-13.17
				c-0.96-6.37-5.68-9.64-11.79-10.4c-49.4-6.19-99.15-5.31-148.39,1.83c-5.82,0.84-9.39,7.92-8.6,13.17
				c0.93,6.16,5.67,9.93,11.79,10.4c29.88,2.31,58.42-8.22,85.75-18.94c5.56-2.18,9.54-6.87,8.6-13.17
				c-0.84-5.57-5.73-10.76-11.79-10.4c-18.95,1.12-37.9,2.24-56.84,3.37c1.06,7.86,2.13,15.71,3.19,23.57
				c17.24-3.01,34.86-3.06,52.2-0.86c-1.06-7.86-2.13-15.71-3.19-23.57c-15.35,2.56-30.9,3.43-46.45,3.02c0,8,0,16,0,24
				c28.51-0.01,57.02-0.02,85.54-0.03c0-8,0-16,0-24c-21.89,0.83-43.79,1.65-65.68,2.48c0,8,0,16,0,24
				c37.12-3.1,73.85-9.84,109.55-20.46c10.69-3.18,12.15-20.78,0-23.14c-36.96-7.19-74.55-10.92-112.21-10.86c0,8,0,16,0,24
				c20.81-2.45,41.63-4.9,62.44-7.36c0-8,0-16,0-24c-37.6,4.87-74.34,13.77-109.77,27.35c-6.05,2.32-10.22,8.08-8.38,14.76
				c1.65,6.02,8.58,10.43,14.76,8.38c16.35-5.42,32.24-12.22,47.42-20.35c5.22-2.79,7.22-9.74,4.91-14.99
				c-2.59-5.88-8.06-7.87-14.16-6.95c-13.53,2.05-26.92,4.83-40.16,8.32c3.08,7.31,6.16,14.62,9.25,21.93
				c21.92-15.55,45.61-28.68,70.64-38.5c5.56-2.18,9.54-6.87,8.6-13.17c-0.8-5.35-5.78-11.07-11.79-10.4
				c-46.45,5.16-83.17,34.17-117.85,63.18c6.28,4.85,12.56,9.69,18.85,14.54c12.93-25.48,31.45-55.72,62.67-59.85
				c13.23-1.75,25.67,3.3,37.55,9.1c13.53,6.61,27.02,14.02,41.97,16.83c6.36,1.2,12.94-1.77,14.76-8.38
				C712.65,186.37,709.07,178.67,702.66,177.46L702.66,177.46z"/>
		</g>
	</g>
	<g>
		<g>
			<path d="M622.75,366.18c-23.95,1.09-47.15,7.77-67.89,19.84c-13.35,7.77-1.33,28.41,12.11,20.72
				c9.25-5.29,16.55-12.21,18.37-23.16c1.89-11.37,1.93-23.24,2.42-34.74c0.86-19.97,0.36-40.92-10.48-58.45
				c-6.24-10.09-22.2-5.99-22.36,6.06c-0.41,29.95-0.81,59.9-1.22,89.85c8,0,16,0,24,0c0.13-15.74,5.8-30.61,11.24-45.18
				c5.94-15.94,11.9-31.87,17.96-47.76c-7.71,0-15.43,0-23.14,0c1.34,6.18-0.42,12.95-1.42,19.07c-1.31,8.08-2.62,16.16-3.93,24.24
				c-2.57,15.84-5.13,31.68-7.7,47.51c7.71,0,15.43,0,23.14,0c-4.11-10.63-1.85-22.1,0.52-32.92c2.63-12.02,6.42-23.85,11.52-35.05
				c-6.91,0-13.82,0-20.72,0c1.78,2.88,1.33,6.42,1.37,9.75c0.05,4.49,0.09,8.99,0.14,13.48c0.1,9.63,0.2,19.26,0.3,28.89
				c0.07,6.48,5.47,12,12,12c6.85,0,11.58-5.51,12-12c0.96-14.65,1.21-29.32,0.76-43.99c-0.47-15.41-24.47-15.47-24,0
				c0.45,14.68,0.2,29.34-0.76,43.99c8,0,16,0,24,0c-0.11-10.91-0.23-21.83-0.34-32.74c-0.11-10.54,1.02-22.14-4.75-31.49
				c-4.33-7.01-16.82-8.59-20.72,0c-6.22,13.69-11.23,27.83-14.32,42.57c-2.99,14.23-5.54,29.91-0.14,43.9
				c1.93,5,5.91,8.81,11.57,8.81c4.87,0,10.74-3.68,11.57-8.81c2.77-17.13,5.55-34.26,8.32-51.39c1.36-8.4,2.73-16.81,4.08-25.21
				c1.48-9.16,2.62-17.8,0.63-26.98c-1.11-5.11-6.52-8.81-11.57-8.81c-5.62,0-9.67,3.82-11.57,8.81
				c-6.29,16.47-12.47,32.97-18.61,49.5c-5.99,16.11-11.3,32.46-11.44,49.82c-0.13,15.45,23.79,15.46,24,0
				c0.41-29.95,0.81-59.9,1.22-89.85c-7.45,2.02-14.91,4.04-22.36,6.06c7.96,12.86,7.87,28.21,7.34,42.86
				c-0.33,9.08-0.84,18.17-1.46,27.23c-0.19,2.75,0.11,6.9-1.43,9.29c-0.99,1.54-4.18,3.01-6.15,4.14
				c4.04,6.91,8.08,13.82,12.11,20.72c17.04-9.92,36.06-15.66,55.78-16.56c6.48-0.29,12-5.3,12-12
				C634.75,371.91,629.26,365.88,622.75,366.18L622.75,366.18z"/>
		</g>
	</g>
	<g>
		<g>
			<path d="M584.2,322.08c1.06,8.71,3.3,16.67,7.55,24.41c3.03,5.51,11.07,7.75,16.42,4.3c5.58-3.6,7.54-10.53,4.31-16.42
				c-1.68-3.06-1.72-3.03-2.68-6.01c-0.4-1.23-0.74-2.48-1.04-3.74c-0.1-0.44-0.76-4.28-0.55-2.55c-0.75-6.21-4.98-12.31-12-12
				C590.35,310.34,583.39,315.41,584.2,322.08L584.2,322.08z"/>
		</g>
	</g>
</g>
</svg>
