<?xml version="1.0" encoding="utf-8"?>
<!-- Generator: Adobe Illustrator 24.1.3, SVG Export Plug-In . SVG Version: 6.00 Build 0)  -->
<svg version="1.1" xmlns="http://www.w3.org/2000/svg" xmlns:xlink="http://www.w3.org/1999/xlink" x="0px" y="0px"
	 viewBox="0 0 1280 720" style="enable-background:new 0 0 1280 720;" xml:space="preserve">
<style type="text/css">
	.st0{fill:#FFFFFF;}
</style>
<g id="Color">
	<g>
		<g>
			<path class="st0" d="M301.29,304.41c0.19,0.09,3.69,2.37,1.89,0.91c-1.91-1.54,1.02,1.26,1.36,1.59
				c-2.41-2.31-0.34-0.36,0.26,0.59c0.67,1.07,1.3,2.17,1.9,3.28c2.78,5.16,5.17,10.58,7.58,15.92c1.29,2.85,2.54,5.71,3.78,8.57
				c0.25,0.57,0.49,1.15,0.74,1.72c-0.48-1.14-0.48-1.13,0,0.02c0.6,1.44,1.19,2.89,1.78,4.33c2.35,5.79,4.59,11.62,6.73,17.49
				c4.17,11.44,7.94,23.03,11.3,34.74c1.76,6.13,3.44,12.28,4.61,18.55c0.2,1.28,0.22,1.26,0.06-0.04c0.06,0.63,0.13,1.27,0.19,1.9
				c0.1,1.58,0.21,3.16,0.21,4.75c0,1.56,0.05,3.19-0.2,4.74c0.04-0.34,0.08-0.67,0.12-1.01c-1.54,5.06,1.33,2.54,8.61-7.58
				c3.19,0,6.38,0,9.57,0c-0.34-0.08-0.67-0.15-1.01-0.23c-9.17-2.06-19.91,2.79-22.14,12.57c-2.08,9.14,2.75,19.93,12.57,22.14
				c12.89,2.9,23.77-4.83,27.11-17.33c2.45-9.16,1.34-19.34-0.21-28.52c-2.66-15.72-8.05-31.26-13.26-46.29
				c-5.41-15.63-11.6-31-18.33-46.11c-6.22-13.97-12.5-30.49-27.06-37.78c-8.41-4.21-19.89-2.52-24.63,6.46
				C290.52,287.94,292.3,299.91,301.29,304.41L301.29,304.41z"/>
		</g>
	</g>
	<g>
		<g>
			<path class="st0" d="M382.61,416.26c40.22,4.36,80.07-4.11,120.12-6.45c9.81-0.57,19.64-0.74,29.46-0.33
				c4.98,0.21,9.95,0.55,14.91,1.04c2.48,0.24,4.96,0.52,7.43,0.83c-3.04-0.38,2.89,0.43,3.54,0.53c19.4,3.04,38.39,8.23,56.7,15.32
				c6.62,2.56,14.93-1.29,18.92-6.45c4.27-5.53,5.26-13.86,1.41-19.99c-19.7-31.34-38.19-63.42-55.43-96.18
				c-7.01-13.32-29.72-10.75-32.9,4.3c-5.54,26.21-2,52.09,2.04,78.23c10.97-4.62,21.93-9.25,32.9-13.87
				c-6.8-11.27-13.13-22.82-18.9-34.65c-6.32-12.97-9.62-20.71-14.49-33.65c-3.31-8.79-12.3-15.76-22.14-12.57
				c-8.59,2.78-16.12,12.71-12.57,22.14c10.05,26.69,22.28,52.48,37.02,76.91c4.65,7.7,14.22,10.85,22.48,7.36
				c8.85-3.73,11.82-12.21,10.42-21.23c-0.39-2.54-0.78-5.07-1.16-7.61c-0.24-1.59-0.47-3.18-0.69-4.77
				c-0.45-3.19,0.27,2.23-0.13-0.96c-0.69-5.42-1.26-10.85-1.59-16.31c-0.31-5.09-0.41-10.21-0.2-15.31
				c0.12-2.86,0.31-5.71,0.66-8.55c0.38-3.14-0.41,2.23,0.16-0.88c0.29-1.57,0.58-3.13,0.92-4.7c-10.97,1.43-21.93,2.87-32.9,4.3
				c17.24,32.76,35.73,64.84,55.43,96.18c6.78-8.81,13.55-17.63,20.33-26.44c-37.94-14.69-79.07-20.94-119.68-18.78
				c-40.71,2.17-81.17,10.98-122.04,6.55c-9.39-1.02-18.4,9.01-18,18C365.08,408.88,372.54,415.17,382.61,416.26L382.61,416.26z"/>
		</g>
	</g>
	<g>
		<g>
			<path class="st0" d="M534.24,348.33c-38.71,1.22-77.43,2.44-116.14,3.66c-9.6,0.3-19.19,0.6-28.79,0.91
				c-4.42,0.14-9.53-0.36-13.9,0.44c-5.1-0.23-2.69,1.68,7.24,5.74c-0.51-0.82-0.96-1.67-1.36-2.56c-1.03-2.05-1.96-4.16-2.94-6.23
				c-8.26-17.51-16.52-35.03-24.77-52.54c-3.59,8.81-7.17,17.63-10.76,26.44c18.23-4.05,29.95-5.67,48.27-6.6
				c17.54-0.89,35.16-0.33,52.6,1.68c0.65,0.08,6.6,0.85,3.47,0.41c2.14,0.3,4.27,0.63,6.4,0.97c4.26,0.69,8.5,1.47,12.73,2.33
				c8.45,1.73,16.83,3.81,25.11,6.23c2.04,0.6,4.11,1.45,6.19,1.88c1.91,0.68,1.8,0.57-0.32-0.34c1.49,0.88,1.64,0.9,0.44,0.07
				c-0.93-0.59-1.64-1.38-2.14-2.39c0.92,1.7,0.82,1.34-0.29-1.08c0.43,0.06,1,3.73,1.1,4.21c1.85,8.56,3.85,15.59,9.74,22.48
				c4.24-10.24,8.49-20.49,12.73-30.73c-49.8-5.97-99.83-9.91-149.96-11.82c-11.53-0.44-20.66,11.88-17.36,22.79
				c4.51,14.89,16.09,24.92,30.44,30.02c14.49,5.15,30.46,2.4,45.15-0.13c9.3-1.6,15.36-13.52,12.57-22.14
				c-3.25-10.03-12.17-14.29-22.14-12.57c-2.41,0.41-4.82,0.81-7.23,1.19c1.97-0.31,0.4-0.04-0.67,0.07
				c-1.21,0.12-2.42,0.24-3.64,0.32c-2.43,0.16-4.83,0.13-7.26,0.1c-1.11-0.01-2.61-0.13-0.62,0.1c-1.3-0.15-2.6-0.48-3.86-0.81
				c-0.92-0.24-1.81-0.61-2.72-0.84c-2.26-0.58,2.32,1.41,0.36,0.13c-0.79-0.51-1.69-0.89-2.49-1.39c-0.4-0.25-2.77-2.08-1.07-0.63
				c1.91,1.63-3.02-3.93-1.64-1.72c1.23,1.98-0.22-0.72-0.47-1.07c-1.3-1.78,1.2,3.7,0.02-0.21c-5.79,7.6-11.57,15.19-17.36,22.79
				c50.12,1.9,100.15,5.85,149.96,11.82c6.95,0.83,13.98-5.22,16.45-11.06c2.95-7,1.09-14.03-3.72-19.66
				c1.49,2.1,1.74,2.32,0.74,0.67c0.96,2.45,1.13,2.74,0.49,0.86c-0.31-1.66-0.79-3.3-1.11-4.97c-0.56-2.89-1.11-5.72-2.14-8.48
				c-4.29-11.52-12.75-17.28-24.17-20.82c-18.95-5.88-38.36-9.63-58.03-12.12c-38.01-4.82-76.74-2.53-114.11,5.77
				c-12.21,2.71-15.43,16.54-10.76,26.44c8.68,18.4,17.36,36.81,26.03,55.21c2.73,5.8,5.75,11.14,11.43,14.63
				c5.95,3.65,12.72,3.67,19.42,3.45c10.26-0.32,20.51-0.65,30.77-0.97c41.36-1.3,82.72-2.6,124.08-3.91c9.4-0.3,18.44-8.07,18-18
				C551.81,356.83,544.32,348.01,534.24,348.33L534.24,348.33z"/>
		</g>
	</g>
	<g>
		<g>
			<path class="st0" d="M577.64,317.17c2.03,22.16,7.49,43.04,16.67,63.31c4.17,9.21,9.06,20.02,16.25,27.28
				c6.04,6.09,14.96,9.1,23.42,6.98c6.84-1.71,11.73-5.79,17.14-10.04c-2.62,2.06,2.53-1.82,3.06-2.19
				c1.82-1.28,3.67-2.52,5.55-3.72c4.22-2.7,8.58-5.19,13.03-7.48c1.98-1.02,3.99-2,6.01-2.94c1.01-0.47,2.03-0.92,3.05-1.38
				c0.52-0.24,3.19-1.28,0.33-0.15c4.69-1.85,9.4-3.6,14.2-5.13c9.08-2.88,18.38-5.1,27.77-6.72c2.21-0.38,4.42-0.72,6.64-1.05
				c-3.45,0.51-0.17,0.03,0.46-0.04c1.28-0.14,2.56-0.3,3.84-0.43c5.76-0.6,11.55-1.01,17.34-1.24c12.24-0.49,24.5-0.21,36.72,0.59
				c6.45,0.42,12.88,0.99,19.3,1.67c3.21,0.34,6.42,0.71,9.63,1.1c1.28,0.16,2.56,0.32,3.84,0.48c3.62,0.45-1.05-0.16,2.89,0.38
				c9.28,1.27,19.79-2.24,22.14-12.57c1.93-8.46-2.6-20.77-12.57-22.14c-42.6-5.84-85.64-8.87-128.06,0.13
				c-18.44,3.91-36.5,10.33-53.18,19.13c-7.9,4.16-15.38,9-22.48,14.41c-1.66,1.27-3.33,2.55-4.96,3.85
				c-3.19,2.53-0.36,0.52-0.12,0.12c-1.64,2.71-1.33-0.21,0.27,0.33c2.23,0.76,11.7-0.08,11.56,4.45c0.04-1.25-2.88-4.53-3.58-5.71
				c-1.33-2.23-2.6-4.5-3.82-6.8c-1.22-2.3-2.39-4.62-3.5-6.97c-0.49-1.04-0.96-2.1-1.45-3.15c-1.33-2.9,0.12,0.5-0.56-1.28
				c-1.84-4.87-3.67-9.72-5.16-14.72c-1.49-4.98-2.75-10.03-3.76-15.13c-0.51-2.55-0.94-5.11-1.35-7.68
				c-0.09-0.6-0.36-3.53-0.05-0.37c-0.17-1.73-0.37-3.45-0.53-5.17c-0.86-9.35-7.67-18.46-18-18
				C586.63,299.57,576.73,307.13,577.64,317.17L577.64,317.17z"/>
		</g>
	</g>
	<g>
		<g>
			<path class="st0" d="M833.13,321.86c-50.39-0.11-100.74,4.39-150.36,13.12c-12.17,2.14-24.29,4.56-36.35,7.25
				c-1.59,0.35-3.17,0.72-4.76,1.08c-0.32,0.07-0.63,0.15-0.95,0.22c-2.08,0.4-2.03,0.45,0.15,0.17c-0.26,0.01-0.51,0.02-0.77,0.02
				c-2.41,0-1.08,0.44,4.01,1.31c6.61,3.74,3.94,4.97,2.96,2.46c-0.46-1.18-1.18-2.41-1.79-3.53c-1.47-2.69,1.12,3.69-0.52-1.3
				c-0.9-2.76-1.81-5.49-2.45-8.32c-0.26-1.13-0.46-2.26-0.68-3.4c-0.09-0.57-0.18-1.14-0.28-1.71c0.27,1.86,0.3,1.79,0.1-0.21
				c-0.57-1.4,1.09-2.63-0.23,0.19c-1.12,2.38-2.11,4.6-4.3,6c-0.58,0.37-5.39,1.17-3.63,1.21c0.21,0,0.43,0,0.64,0
				c-2.64-0.47-2.98-0.47-1.02,0c-0.12,0.13-3.72-2.07,0.27,0.18c1.46,0.82,2.89,1.69,4.33,2.56c10.89,6.56,23.31,9.8,36.05,8.72
				c13.43-1.15,25.63-5.26,38.18-9.87c6.3-2.32,12.66-4.57,19.22-6.03c1.18-0.26,2.35-0.49,3.54-0.71c4.01-0.76-1.42-0.25,2.3-0.2
				c1.48,0.02,2.95-0.1,4.43-0.06c0.89,0.02,1.78,0.07,2.66,0.15c-1.83-0.29-1.66-0.23,0.53,0.17c0-11.57,0-23.14,0-34.71
				c-15.35,2.58-25.46,3.91-41.38,5.35c-14.82,1.33-29.68,2.08-44.55,2.31c0,12,0,24,0,36c26.71-2.35,53.38-5.14,79.99-8.38
				c13.93-1.7,27.85-3.53,41.75-5.44c3.18-0.44,6.36-0.89,9.55-1.33c1.24-0.17,2.48-0.35,3.73-0.52c-3.44,0.47,2.7-0.34,2.7-0.34
				c6.23-0.77,12.49-1.41,18.76-1.71c6.23-0.3,12.42-0.18,18.64,0.31c3.67,0.29,1.58,0.14,0.74,0.02c1.84,0.25,3.67,0.6,5.48,0.99
				c1.21,0.26,2.43,0.54,3.63,0.85c1.07,0.27,2.14,0.57,3.19,0.91c-8.08-5.32-10.64-10.75-7.67-16.29c0.15-0.31,0.3-0.63,0.45-0.94
				c-0.43,0.84-0.91,1.65-1.43,2.44c-0.53,0.82-1.1,1.6-1.66,2.4c-2.03,2.93-3.37,5.48-4.66,8.89c-2.52,6.66-2.74,14.14-1.13,21.06
				c3.5,15.1,15.02,22.89,28.65,28.11c12.32,4.72,24.69,9.33,37.03,13.99c28.39,10.73,56.78,21.45,85.17,32.18
				c8.83,3.33,20.12-3.7,22.14-12.57c2.33-10.25-3.12-18.57-12.57-22.14c-25.3-9.56-50.61-19.12-75.91-28.68
				c-12.96-4.9-25.92-9.79-38.88-14.69c-2.74-1.03-5.45-2.2-8.23-3.11c-3.1-1.02,3.64,1.7-1.36-0.64c-4.09-1.92-0.25-0.5-0.33,0.11
				c-0.31-0.3-0.62-0.6-0.93-0.91c1.4,2,1.55,2.19,0.46,0.54c-0.21-0.38-0.42-0.76-0.63-1.14c0.27,0.63,0.53,1.27,0.8,1.9
				c-0.13-0.42-0.26-0.83-0.39-1.25c-0.43-2-0.44-1.69-0.02,0.92c-0.02-0.44-0.03-0.87-0.05-1.31c0.1-2.04,0.01-1.74-0.27,0.9
				c-0.56-0.73,1.95-3.81,0.32-1.54c-1.71,2.38,0.93-1.1,1.07-1.29c1.34-1.98,2.81-3.86,3.91-6c4.54-8.83,4.9-18.8-1.39-26.94
				c-9.09-11.77-29.26-12.83-42.94-13.21c-13.54-0.38-26.99,1.41-40.38,3.22c-14.47,1.96-23.42,3.27-37.59,5.06
				c-29.85,3.76-59.76,6.95-89.73,9.59c-9.35,0.82-18.46,7.69-18,18c0.43,9.63,7.91,18.16,18,18c32.03-0.5,63.92-3.62,95.51-8.94
				c17.41-2.93,16.95-31.4,0-34.71c-15.34-3-30.22-0.77-44.89,4.21c-11.7,3.97-23.01,9.02-35.27,11.07c3.91-0.65-1.5,0.09-1.95,0.11
				c-1.39,0.08-2.78,0.1-4.17,0.07c-1.37-0.03-2.76-0.08-4.12-0.27c4.12,0.57-1.16-0.48-1.66-0.62c-1.05-0.3-2.13-0.64-3.13-1.06
				c3.48,1.46-1.39-1.01-1.68-1.18c-2.9-1.7-5.7-3.46-8.77-4.86c-15.62-7.1-36.63-2.95-41.85,15.56
				c-2.19,7.78-0.67,16.58,1.08,24.28c1.6,7.06,4.33,14.19,7.74,20.56c3.78,7.07,9.86,12.48,17.7,14.49
				c8.23,2.12,16.84-0.66,24.86-2.43c13.97-3.08,28.02-5.79,42.13-8.14c6.41-1.07,12.84-2.06,19.28-2.97
				c-0.15,0.02,6.18-0.85,2.95-0.42c1.29-0.17,2.58-0.34,3.87-0.5c3.87-0.49,7.74-0.96,11.62-1.4c31.67-3.58,63.52-5.3,95.39-5.23
				c9.42,0.02,18.43-8.29,18-18C850.7,330.09,843.23,321.88,833.13,321.86L833.13,321.86z"/>
		</g>
	</g>
	<g>
		<g>
			<path class="st0" d="M998.74,414.76c39.97-18.53,70.51-57.7,79.71-100.7c2.49-11.66,6.21-28.15,0.15-39.21
				c-4.3-7.85-11.97-11.71-20.63-12.53c-6.7-0.63-13.55,1.54-20.03,3.03c-26.58,6.11-53.37,11.33-80.29,15.66
				c-7.37,1.19-14.76,2.31-22.15,3.36c-1.61,0.23-3.21,0.45-4.82,0.68c-0.11,0.02-5.84,0.78-2.94,0.4c-3.86,0.51-7.73,1-11.6,1.47
				c-15.47,1.89-30.97,3.48-46.5,4.8c-9.01,0.76-16.42,6.27-17.68,15.61c-1.25,9.29,4.36,16.63,12.89,19.75
				c-0.37-0.14-4.46-1.92-3.86-2.31c0.07-0.05,1.17,1.16,1.25,1.26c1.48,1.75-1.4-2.92-0.59-0.73c0.2,0.53,0.72,1.11,1.03,1.59
				c2.41,3.81,4.7,7.69,7.78,11.04c7.45,8.09,17.56,11.12,28.1,12.42c8.84,1.08,17.88,0.92,26.77,1.2c4.6,0.15,9.2,0.29,13.8,0.44
				c2.44,0.08,4.89,0.14,7.33,0.27c1,0.05,7.18,0.82,4.1,0.27c2.04,0.36,3.99,1.06,6,1.47c2.64,0.53-1.59-0.97,0.45,0.16
				c0.63,0.35,1.27,0.81,1.92,1.11c-3.41-1.58-0.19-0.99-0.13-0.06c0-0.01,2.78,3.41,0.11-0.31c0.41,0.57,0.72,1.33,1.17,1.85
				c1.49,1.74-1.61-2.6,0.07,0.34c-0.42-0.74,0.15-3.8-0.22-0.54c0.13-1.15,0.27-1.98,0.71-3.04c1.69-4.16,4.47-4.71,8.24-5.31
				c6.9-1.1,4.04-0.21,2.27-1.06c-4.27-2.04-8.91-3.63-13.32-5.36c-17.13-6.73-34.72-12.31-52.62-16.58
				c-21.23-5.06-42.95-8.27-64.72-9.71c-9.41-0.62-18.42,8.72-18,18c0.48,10.62,7.94,16.92,18,18c7.85,0.85,15.7,1.69,23.55,2.6
				c3.93,0.45,7.86,0.92,11.78,1.41c1.81,0.23,3.62,0.45,5.43,0.69c0.91,0.12,1.81,0.23,2.72,0.36c-2.57-0.34,0.52,0.08,1.55,0.22
				c15.62,2.19,31.19,4.83,46.57,8.36c15.59,3.58,30.99,8.07,45.9,13.89c1.69,0.66,3.37,1.33,5.05,2.03
				c-2.32-0.96,1.61,0.71,2.26,0.99c5.57,2.37,11.02,4.56,17.2,4.62c11.07,0.11,20.15-6.47,25.5-15.81
				c9.24-16.13,15.76-34.42,20.02-52.46c2.67-11.3-5.32-22.8-17.36-22.79c-23.62,0.03-47.2,6.84-66.94,19.87
				c-6.12,4.04-9.59,10.51-8.59,17.94c0.9,6.73,5.95,13.43,12.89,14.96c0.93,0.18,1.85,0.41,2.75,0.7
				c-2.08-0.99-2.21-1.03-0.39-0.13c0.83,0.45,1.64,0.95,2.41,1.5c-1.56-1.24-1.86-1.43-0.9-0.56c2.75,3.63-0.35-1.89,1.24,1.29
				c0.5,0.8,0.95,1.64,1.35,2.5c-0.89-2.12-1.02-2.22-0.39-0.29c10.97-4.62,21.93-9.25,32.9-13.87
				c-14-18.42-31.86-31.81-53.93-39.12c-8.94-2.96-20.06,3.43-22.14,12.57c-2.26,9.92,3,18.97,12.57,22.14
				c2.01,0.67,4,1.36,5.96,2.16c-3.72-1.52,2.27,1.17,2.9,1.49c3.52,1.82,6.92,3.88,10.16,6.15c0.65,0.45,1.3,0.91,1.93,1.39
				c-1.54-1.21-1.51-1.17,0.1,0.12c1.59,1.4,3.2,2.75,4.73,4.22c1.53,1.46,3,2.98,4.41,4.55c0.46,0.51,4.56,5.57,2.21,2.48
				c5.49,7.22,13.53,11.14,22.48,7.36c8.11-3.42,12.9-12.53,10.42-21.23c-4.19-14.7-16.12-26.79-31.22-30.14
				c1.43,10.97,2.87,21.93,4.3,32.9c4.03-2.66,8.2-5.09,12.56-7.19c0.28-0.13,3.32-1.57,1.73-0.85c-1.59,0.72,1.49-0.59,1.79-0.71
				c2.39-0.92,4.8-1.75,7.25-2.48c4.36-1.31,8.79-2.3,13.27-3.06c1.48-0.25,2.16-0.21,0.28-0.05c1.42-0.12,2.82-0.28,4.24-0.38
				c2.55-0.18,5.1-0.24,7.66-0.24c-5.79-7.6-11.57-15.19-17.36-22.79c-2.21,9.37-5.17,18.41-8.54,27.41
				c-0.82,1.99-0.9,2.22-0.24,0.68c-0.47,1.1-0.95,2.2-1.44,3.29c-0.98,2.18-2.01,4.35-3.07,6.5c-0.99,2.01-1.98,4.04-3.1,5.98
				c-0.44,0.79-0.91,1.56-1.43,2.31c0.36-0.53,0.73-1.07,1.09-1.6c1.71-1.66,3.69-2.56,5.93-2.72c2.07,0.31,2.03,0.21-0.11-0.31
				c-2-0.75-2.16-0.77-0.46-0.06c-1.11-0.49-2.22-0.96-3.34-1.44c-5.32-2.27-10.68-4.47-16.11-6.47
				c-8.78-3.23-17.71-6.02-26.74-8.46c-37.62-10.15-76.6-14.26-115.23-18.42c0,12,0,24,0,36c5.2,0.34,10.39,0.78,15.57,1.35
				c1.22,0.13,2.44,0.27,3.65,0.42c0.41,0.05,4.17,0.52,2.17,0.26c-2.01-0.26,1.75,0.25,2.16,0.31c1.52,0.22,3.03,0.45,4.54,0.7
				c10.59,1.69,21.11,3.87,31.52,6.48c10.12,2.54,20.12,5.5,30,8.85c10.13,3.43,19.87,7.77,29.9,11.43
				c14.94,5.46,30.46-1.85,34.9-17.26c3.5-12.14-1.75-25.83-10.66-34.28c-17.48-16.59-44.55-13.74-66.81-14.45
				c-5.79-0.18-11.6-0.24-17.38-0.77c0.76,0.07,3.56,0.8,0.32-0.04c-1.18-0.3-2.38-0.7-3.56-0.96c-2.46-0.53,2.42,1.43,0.33,0.08
				c-1.55-1,1.6,2.32-0.4-0.23c-2.52-3.21,1.27,2.59,0.07,0.22c-0.47-0.93-1.17-1.8-1.73-2.7c-1.11-1.79-2.19-3.6-3.43-5.3
				c-4.67-6.37-9.74-10.5-17.24-13.25c-1.6,11.79-3.19,23.57-4.79,35.36c50.12-4.26,100.04-11.36,149.32-21.45
				c11.77-2.41,23.48-5.06,35.2-7.75c0.32-0.07,0.63-0.15,0.95-0.22c1.97-0.38,1.64-0.39-0.96-0.02c-0.15,0.13,2.51-0.3,2.59-0.08
				c-0.79-0.09-1.58-0.18-2.37-0.26c-4.52-1.37-7.15-4.04-7.89-8.03c-1.54-4.92-0.78-1.24-0.87,0.46c-0.09,1.96-0.25,3.91-0.45,5.86
				c-0.01,0.12-0.68,4.87-0.21,1.98c0.42-2.6-0.39,2.16-0.49,2.68c-0.79,4.33-1.82,8.62-3.06,12.84c-0.62,2.11-1.3,4.21-2.03,6.28
				c-0.33,0.92-0.66,1.84-1.01,2.76c-0.54,1.42-1.64,4.03-0.39,1.15c-3.7,8.55-8.29,16.7-13.69,24.29c-0.71,1-1.45,1.98-2.17,2.96
				c-0.78,1.03-0.59,0.78,0.56-0.74c-0.46,0.58-0.92,1.15-1.39,1.71c-1.72,2.08-3.5,4.1-5.34,6.07c-3.34,3.58-6.89,6.96-10.62,10.14
				c-1.12,0.95-2.26,1.88-3.4,2.8c2.42-1.95,0.13-0.12-1.04,0.72c-1.99,1.43-4.01,2.8-6.08,4.1c-4.56,2.88-9.31,5.42-14.2,7.69
				c-8.57,3.97-11.38,16.99-6.46,24.63C979.81,417.13,989.58,419.01,998.74,414.76L998.74,414.76z"/>
		</g>
	</g>
</g>
<g id="Layer_1">
	<g>
		<g>
			<path d="M185.33,258.43c114.17,33.86,233.12,49.96,351.98,53.71c118.43,3.74,236.96-4.61,354.49-18.77
				c67.03-8.08,133.82-17.99,200.45-28.83c9.32-1.52,15.34-13.58,12.57-22.14c-3.27-10.1-12.15-14.2-22.14-12.57
				c-116.93,19.03-229.37,34.66-348.56,42.45c-116.74,7.63-233.83,6.4-349.97-8.33c-3.5-0.44,4.25,0.59-1.67-0.22
				c-2.46-0.34-4.91-0.68-7.37-1.03c-4.3-0.61-8.59-1.24-12.88-1.89c-7.97-1.21-15.93-2.49-23.87-3.84
				c-15.9-2.71-31.75-5.71-47.54-9.02c-32.29-6.76-64.3-14.83-95.93-24.21c-9.02-2.68-20.01,3.22-22.14,12.57
				C170.56,245.96,175.67,255.56,185.33,258.43L185.33,258.43z"/>
		</g>
	</g>
	<g>
		<g>
			<path d="M185.33,258.43c1.89,0.72,3.78,1.46,5.66,2.21c0.75,0.3,5.57,2.33,2.88,1.17c4.19,1.82,8.35,3.7,12.46,5.68
				c7.58,3.66,15,7.63,22.24,11.92c7.06,4.18,13.95,8.67,20.61,13.46c1.53,1.1,3.05,2.22,4.55,3.35c0.64,0.48,1.28,0.97,1.92,1.46
				c-0.57-0.44-2.54-2.02,0.14,0.14c3.08,2.49,6.14,5.01,9.12,7.63c5.83,5.12,11.42,10.52,16.71,16.21c2.61,2.81,5.16,5.68,7.6,8.64
				c0.25,0.31,2.52,3.13,1.32,1.59c-1.07-1.37,0.65,0.89,0.69,0.94c1.5,2.08,2.95,4.19,4.3,6.38c1.03,1.67,2,3.37,2.9,5.11
				c0.51,0.98,1,1.98,1.45,2.98c-0.16-0.36-0.81-2.04-0.09-0.11c1.57,4.19,2.74,8.5,3.67,12.87c0.94,4.42,1.65,8.9,2.31,13.37
				c0.14,0.97,0.29,1.94,0.42,2.91c-0.34-2.45,0.09,0.77,0.13,1.05c0.31,2.59,0.62,5.19,0.89,7.79c2.31,22.05,2.71,44.25,1.34,66.38
				c-0.58,9.42,8.69,18.42,18,18c10.25-0.46,17.38-7.91,18-18c1.28-20.82,1.01-41.71-0.95-62.48c-1.99-21.03-4.13-43.05-13.71-62.2
				c-8.03-16.04-21.26-30.02-34.29-42.16c-13.24-12.34-27.86-23.38-43.21-32.96c-18.14-11.33-37.55-20.42-57.51-28.05
				c-8.81-3.37-20.13,3.72-22.14,12.57C170.42,246.57,175.9,254.82,185.33,258.43L185.33,258.43z"/>
		</g>
	</g>
	<g>
		<g>
			<path d="M1071.53,246.97c-0.9,9.96-0.37,19.89,0.05,29.86c0.21,4.96,0.38,9.93,0.27,14.9c-0.06,2.47-0.25,4.92-0.39,7.39
				c-0.25,2.21-0.25,2.45-0.02,0.72c-0.19,1.22-0.41,2.44-0.65,3.65c-0.97,4.71-2.43,9.37-4.3,13.8c1.14-2.69-1.65,3.37-1.93,3.93
				c-1.07,2.16-2.19,4.3-3.34,6.42c-3.94,7.33-8.18,14.5-12.75,21.45c-2.28,3.46-4.64,6.87-7.09,10.2
				c-0.61,0.83-1.23,1.66-1.86,2.49c1.24-1.59,1.23-1.58-0.04,0.03c-1.3,1.6-2.59,3.21-3.92,4.79c-5.28,6.24-10.96,12.14-17.1,17.53
				c-1.52,1.33-3.08,2.61-4.64,3.9c-1.6,1.27-1.58,1.25,0.06-0.04c-0.8,0.6-1.61,1.19-2.43,1.78c-3.26,2.32-6.63,4.49-10.11,6.47
				c-1.74,0.99-3.5,1.93-5.29,2.83c-0.69,0.34-6.56,2.99-2.53,1.3c-3.73,1.56-7.57,2.84-11.46,3.95
				c-9.04,2.59-15.59,12.82-12.57,22.14c2.98,9.2,12.45,15.35,22.14,12.57c28.49-8.17,52.76-26.62,71.37-49.35
				c9.33-11.39,17.72-23.5,25.06-36.26c8.71-15.12,16.32-30.79,18.67-48.23c2.6-19.38-0.96-38.81,0.79-58.22
				c0.85-9.4-8.89-18.41-18-18C1079.05,229.44,1072.43,236.9,1071.53,246.97L1071.53,246.97z"/>
		</g>
	</g>
	<g>
		<g>
			<path d="M995.25,403.96c-5.75-0.93-11.33-2.45-16.78-4.5c-0.45-0.17-5.26-2.23-1.59-0.59c-0.97-0.43-1.95-0.87-2.91-1.32
				c-3.17-1.48-6.28-3.07-9.36-4.71c-10.53-5.61-20.71-11.9-31.47-17.07c-13.87-6.67-27.69-10.81-42.94-12.76
				c-13.72-1.75-27.54-1.71-41.35-1.78c-28.73-0.16-57.49-0.19-86.17,1.76c-29.04,1.97-59.24,4.51-86.15,16.35
				c-26.84,11.81-48.42,33.02-69,53.34c-6.71,6.63-7.13,18.91,0,25.46c7.22,6.63,18.3,7.07,25.46,0
				c8.96-8.85,17.94-17.69,27.53-25.86c2.16-1.84,4.36-3.63,6.58-5.4c-2.27,1.82-0.03,0.02,0.38-0.28c1.36-1,2.71-2,4.09-2.97
				c5.01-3.53,10.21-6.78,15.64-9.62c2.45-1.28,4.94-2.51,7.49-3.58c-3.66,1.54,1.94-0.65,2.2-0.74c1.15-0.41,2.3-0.8,3.46-1.17
				c6.36-2.05,12.88-3.53,19.45-4.72c2.98-0.54,5.98-0.99,8.98-1.45c5.93-0.91-3.61,0.41,2.7-0.37c1.62-0.2,3.24-0.4,4.86-0.59
				c7.13-0.83,14.28-1.5,21.44-2.05c27.68-2.1,55.46-2.26,83.21-2.15c13.6,0.06,27.27-0.19,40.84,0.92c1.55,0.13,3.1,0.29,4.65,0.44
				c5.93,0.58-3.25-0.72,2.61,0.37c3.06,0.57,6.11,1.13,9.13,1.89c2.85,0.72,5.67,1.57,8.44,2.55c1.01,0.36,2,0.75,3,1.11
				c1.94,0.78,1.99,0.79,0.15,0.02c0.98,0.43,1.96,0.87,2.94,1.32c24.14,11.16,46.04,28.5,72.89,32.86
				c9.26,1.5,19.82-2.39,22.14-12.57C1009.8,417.44,1005.19,405.57,995.25,403.96L995.25,403.96z"/>
		</g>
	</g>
	<g>
		<g>
			<path d="M625.63,420.62c-38.42-26.53-86.04-33.28-131.72-33.02c-24.21,0.14-48.78,1.55-72.2,8.11
				c-22.42,6.28-43.97,16.03-65.35,25.14c-22.47,9.57-44.89,19.99-64.5,34.72c-7.5,5.64-12.14,15.81-6.46,24.63
				c4.78,7.42,16.58,12.51,24.63,6.46c16.46-12.37,34.93-21.67,53.68-30.02c2.48-1.11,4.98-2.19,7.47-3.27
				c1.11-0.48,2.23-0.96,3.34-1.43c3.35-1.43,1.47-0.62,0.73-0.31c5.04-2.12,10.1-4.2,15.16-6.28c10.01-4.12,20.04-8.23,30.32-11.67
				c10.59-3.55,21.42-6.3,32.49-7.91c-2.92,0.42,4.04-0.46,4.58-0.51c2.52-0.26,5.04-0.47,7.57-0.65c6.02-0.44,12.06-0.68,18.1-0.83
				c11.06-0.27,22.13-0.26,33.18,0.3c5.33,0.27,10.66,0.66,15.97,1.21c1.55,0.16,3.11,0.34,4.66,0.53c0.42,0.05,3.51,0.54,0.77,0.1
				c3.06,0.48,6.12,0.96,9.17,1.54c11.67,2.22,22.95,5.62,34.03,9.85c0.49,0.19,3.18,1.35,0.44,0.16c1.29,0.56,2.58,1.14,3.86,1.74
				c2.52,1.17,5.01,2.41,7.47,3.71c4.99,2.65,9.8,5.6,14.45,8.81c7.77,5.36,20.32,1.7,24.63-6.46
				C636.94,436.08,633.93,426.35,625.63,420.62L625.63,420.62z"/>
		</g>
	</g>
</g>
</svg>
