<?xml version="1.0" encoding="utf-8"?>
<!-- Generator: Adobe Illustrator 24.1.3, SVG Export Plug-In . SVG Version: 6.00 Build 0)  -->
<svg version="1.1" xmlns="http://www.w3.org/2000/svg" xmlns:xlink="http://www.w3.org/1999/xlink" x="0px" y="0px"
	 viewBox="0 0 1280 720" style="enable-background:new 0 0 1280 720;" xml:space="preserve">
<style type="text/css">
	.st0{fill:#FF0000;}
	.st1{fill:#FFFFFF;}
</style>
<g id="Color">
	<g>
		<g>
			<path class="st0" d="M608.43,361.11c-2.73,61.81,11.77,123.82,40.93,178.33c3.39,6.34,13.25,11.11,20.33,8.27
				c47.05-18.86,95.4-34.33,144.66-46.29c9.16-2.22,15.5-13.09,12.57-22.14c-3.08-9.51-12.33-14.95-22.14-12.57
				c-49.26,11.96-97.61,27.43-144.66,46.29c6.78,2.76,13.55,5.51,20.33,8.27c-3.35-6.26-6.52-12.61-9.46-19.07
				c-0.74-1.62-1.45-3.24-2.17-4.86c-1.66-3.73,0.45,1.23-0.95-2.24c-1.33-3.29-2.64-6.59-3.88-9.92
				c-5.05-13.58-9.2-27.5-12.41-41.63c-1.57-6.92-2.92-13.89-4.04-20.9c-0.28-1.75-0.52-3.51-0.8-5.26
				c-0.18-1.3-0.17-1.17,0.04,0.39c-0.11-0.88-0.22-1.76-0.33-2.64c-0.43-3.52-0.8-7.05-1.11-10.59
				c-1.28-14.44-1.55-28.95-0.91-43.43c0.42-9.42-8.58-18.42-18-18C616.32,343.57,608.87,351.02,608.43,361.11L608.43,361.11z"/>
		</g>
	</g>
	<g>
		<g>
			<path class="st0" d="M836.13,476.85c-9.19-34.9-23.35-68.73-41.88-99.71c-4.59-7.67-9.46-15.18-14.6-22.49
				c-5.46-7.77-10.96-16.13-17.54-22.97c-9.36-9.72-20.65-10.65-33.26-8.89c-9.78,1.36-19.55,2.78-29.32,4.16
				c-22.81,3.24-45.61,6.48-68.42,9.72c-3.97,0.56-8.95,4.85-10.76,8.27c-2.4,4.55-2.6,8.82-1.81,13.87
				c8.81,57.03,27.32,112.28,53.94,163.46c5.76,11.06,25.77,12.45,31.08,0c0.25-0.58,2.01-5.15,2.88-5.21
				c-0.9,0.06-2.41,2.72-0.14,0.26c0.71-0.77,1.39-1.56,2.1-2.33c3.33-3.58,6.69-7.01,9.68-10.89c8.36-10.82,11.06-25.08,3.66-37.34
				c-3.11-5.14-7.41-9.19-11.51-13.49c-1.66-1.74-3.27-3.53-4.81-5.37c-0.26-0.31-3.49-4.49-1.17-1.38c-0.96-1.28-1.9-2.58-2.8-3.9
				c-3.03-4.4-5.75-9.01-8.16-13.78c-0.48-0.95-0.95-1.91-1.41-2.88c0.07,0.14-2.09-4.65-1.05-2.24c1.04,2.4-0.95-2.45-0.89-2.31
				c-0.57-1.5-1.11-3.01-1.61-4.53c-1.69-5.07-3.05-10.25-4.05-15.5c-0.2-1.05-0.36-2.11-0.56-3.16c-0.98-5.17,0.27,3.68-0.22-1.57
				c-0.27-2.93-0.52-5.85-0.61-8.79c-0.08-2.4-0.08-4.81,0-7.21c0.02-0.53,0.04-1.07,0.06-1.6c0.14-2.1,0.12-1.96-0.07,0.41
				c-1.01,1.32-4.63,7.73-6.94,7.04c0.91,0.27,5.34-1.9,0.73-0.33c0.99-0.34,2.89-0.27,3.84-0.35c3.84-0.34,7.68-0.66,11.52-0.96
				c6.08-0.47,12.17-0.88,18.25-1.23c2.88-0.17,5.77-0.32,8.65-0.46c1.74-0.08,3.47-0.17,5.21-0.17c-0.51-0.11-1.03-0.23-1.54-0.34
				c3.07,0.94,2.18,0.27-2.65-2.02c2.24,1.68,0.51,0.31-0.09-0.47c0.94,1.25,1.75,2.64,2.6,3.96c1.74,2.69,3.47,5.39,5.2,8.08
				c3.47,5.39,6.93,10.77,10.4,16.16c3.8,5.91,7.75,11.75,11.17,17.89c0.72,1.3,1.39,2.62,2.08,3.94c2.48,4.72-0.78-2.79,1.02,2.24
				c1.14,3.17,2.04,6.4,2.79,9.68c3.12,13.75,4.67,27.11,11.27,39.84c3.59-8.81,7.17-17.63,10.76-26.44
				c-1.74,0.46-3.48,0.88-5.24,1.22c3.33-0.64-1.6,0.14-2.34,0.18c-1.79,0.09-3.59,0.1-5.38,0.02c-0.67-0.03-5.45-0.65-2.35-0.12
				c-3.54-0.6-7.01-1.57-10.37-2.84c3.79,1.42-0.28-0.35-1.12-0.73c-3.82-1.69,2.25,0.87-1.06-0.79c1.21,1.79,1.28,1.86,0.21,0.21
				c-0.22-0.41-0.44-0.81-0.65-1.22c2.01,3.67,0.42,0.26,0.08-0.91c-1.07-3.74-0.14,2.84-0.02-0.84c0.05-1.46-0.07-2.94-0.06-4.41
				c0.07-7.44,0.33-14.51-0.92-21.91c-2.36-13.89-12.01-23.71-23.19-31.34c-4.13-2.82-8.41-5.46-12.62-8.15
				c-3.35-2.14,0.65,0.86-0.3-0.13c-0.83-0.86-1.85-1.57-2.71-2.41c-0.43-0.43-3.52-3.18-1.38-1.29c1.95,1.73-0.78-1.38-1.22-2.19
				c-3.47-6.3-11.03-9.52-17.94-8.59c-7.69,1.03-12.09,6.05-14.96,12.89c-6.19,14.7-1.34,31.65,8.9,43.12
				c8,8.96,22.41,5.65,28.27-3.64c4.19-6.64,8.33-13.32,12.57-19.93c0.42-0.68,0.86-1.35,1.31-2.01c-1.3,1.63-1.26,1.71,0.11,0.24
				c-4.82,0.46-9.64,0.92-14.46,1.37c-1.26-0.63-2.23-1.56-2.9-2.8c2.28,2.47,4.07,5.87,5.87,8.71c3.74,5.92,7.15,12.06,10.18,18.37
				c0.76,1.58,1.47,3.18,2.21,4.77c1.73,3.73-0.44-1.35,0.92,2.15c1.48,3.82,2.89,7.64,4.17,11.53
				c2.94,8.93,12.57,15.67,22.14,12.57c8.9-2.88,15.73-12.57,12.57-22.14c-6.42-19.48-15.41-38.7-27.75-55.17
				c-4.16-5.55-9-10.2-16.05-11.6c-8.6-1.7-16.69,1.26-22.89,7.3c-4.1,3.99-7,9.3-10.04,14.11c-3.02,4.78-6.03,9.57-9.05,14.35
				c9.42-1.21,18.85-2.43,28.27-3.64c-1.34-1.51-1.29-1.44,0.15,0.22c-0.51-0.82-0.98-1.66-1.38-2.54c2.34,5-0.33-3.52,0.15-0.24
				c0.46,3.16,0.77-5.75-0.26-0.03c0.35-1.93,0.94-3.71,1.7-5.51c-10.97,1.43-21.93,2.87-32.9,4.3
				c6.66,12.1,18.46,18.74,29.61,26.05c1.04,0.68,2.04,1.41,3.07,2.09c2.95,1.96-2.54-2.6,0.65,0.56c0.98,0.97,1.98,1.93,2.96,2.92
				c2.53,2.55-1.57-3.12,0,0.12c0.42,0.68,0.8,1.37,1.14,2.09c-0.83-2.09-1.03-2.48-0.59-1.16c0.16,1.05,0.83,6.14,0.59,1.62
				c0.18,3.24,0.23,6.45,0.14,9.7c-0.2,7.56-0.35,15.43,1.94,22.73c2.86,9.14,9.02,16.7,17.27,21.56
				c16.07,9.47,36.85,10.63,54.55,5.89c11.69-3.12,16.03-16.28,10.76-26.44c-0.19-0.37-2.24-5.3-0.93-1.77
				c-0.58-1.56-1.09-3.14-1.56-4.74c-0.78-2.68-1.39-5.41-1.95-8.14c-1.24-6.07-2.12-12.21-3.59-18.23
				c-3.37-13.8-10.64-25.67-18.23-37.48c-3.47-5.39-6.93-10.77-10.4-16.16c-4.31-6.71-8.31-13.98-13.53-20.04
				c-11.04-12.82-27.75-10.21-42.78-9.26c-6.73,0.43-13.45,0.93-20.17,1.5c-7.98,0.68-16.3,0.83-23.55,4.6
				c-15.1,7.85-14.84,26.29-13.46,40.97c2.4,25.53,11.17,50.43,26.8,70.91c4.52,5.92,9.33,11.32,14.5,16.67
				c-0.05-0.06,3.32,3.71,1.66,1.64c-0.74-1.04-0.62-0.82,0.36,0.65c-0.68-2.08-0.73-2.12-0.14-0.13c-0.12-0.85-0.23-1.69-0.35-2.54
				c-0.05,1.98,0.07,1.45,0.37-1.59c-0.09,0.34-0.17,0.68-0.26,1.02c-0.62,1.79-0.43,1.35,0.59-1.34c-0.11,0.01-1.66,2.94-1.77,2.83
				c-0.19-0.18,2.63-3.12-0.17,0.01c-1.65,1.86-3.41,3.61-5.12,5.42c-4.35,4.6-8.83,9.61-11.34,15.47c10.36,0,20.72,0,31.08,0
				c-3.24-6.22-6.36-12.49-9.35-18.84c-1.43-3.03-2.83-6.08-4.19-9.14c-0.75-1.67-1.48-3.34-2.21-5.02c0.01,0.02-2.2-5.18-1.05-2.43
				c-5.29-12.65-10.05-25.53-14.29-38.57c-8.59-26.39-14.98-53.44-19.22-80.86c-4.19,7.38-8.38,14.76-12.57,22.14
				c18.24-2.59,36.49-5.18,54.73-7.77c9.45-1.34,18.9-2.68,28.34-4.03c4.23-0.6,8.47-1.23,12.71-1.8c0.82-0.11,3.76-0.01,0.5-0.04
				c0.82,0.01,1.68-0.04,2.5-0.08c2.16-0.09-0.43,0.1-0.73,0.01c-0.94-0.09-1.75-0.44-2.42-1.05c-0.86-0.69-0.92-0.69-0.17,0.01
				c0.92,1.37,2.32,2.58,3.36,3.88c0.05,0.06,1.8,2.3,0.72,0.91c-1.08-1.39,0.66,0.87,0.7,0.92c2.6,3.46,5.16,6.94,7.65,10.48
				c4.64,6.61,9.07,13.37,13.26,20.27c8.54,14.05,16.14,28.67,22.72,43.73c0.35,0.79,0.69,1.59,1.03,2.38
				c0.77,1.76-0.67-1.69,0.53,1.29c0.86,2.14,1.73,4.28,2.56,6.43c1.56,4.03,3.05,8.1,4.47,12.18c3.12,8.99,5.87,18.11,8.29,27.32
				c2.4,9.1,12.96,15.54,22.14,12.57C832.92,495.96,838.7,486.61,836.13,476.85L836.13,476.85z"/>
		</g>
	</g>
</g>
<g id="Layer_1">
	<g>
		<g>
			<path class="st1" d="M284.83,226.61c8,7.16,15.66,14.68,22.89,22.62c3.62,3.96,7.13,8.02,10.53,12.17
				c1.61,1.96,3.2,3.95,4.77,5.95c-1.55-1.98,0.14,0.2,0.79,1.07c0.85,1.13,1.69,2.26,2.52,3.4c12.67,17.35,23.47,35.99,32.34,55.55
				c3.9,8.6,17.04,11.35,24.63,6.46c8.89-5.73,10.63-15.42,6.46-24.63c-18.57-40.95-45.97-78.07-79.48-108.04
				c-7.02-6.27-18.63-7.44-25.46,0C278.54,208.01,277.33,219.91,284.83,226.61L284.83,226.61z"/>
		</g>
	</g>
	<g>
		<g>
			<path class="st1" d="M321.65,240.32c1.34,0.28,2.57,0.69,3.88,1.04c1.82,0.49-1.93-1.12,0.86,0.5c2.22,1.29,4.49,2.47,6.69,3.81
				c2.16,1.32,4.28,2.7,6.37,4.14c1.25,0.86,2.48,1.76,3.7,2.66c1.4,1.03,1.23,1.02-0.03-0.04c8.05,6.74,15.23,13.93,21.96,22
				c1.79,2.15-2.4-3.36,0.42,0.58c0.74,1.03,1.49,2.05,2.21,3.09c1.45,2.08,2.84,4.2,4.17,6.35c2.66,4.31,5.09,8.76,7.26,13.34
				c0.54,1.14,1.05,2.3,1.58,3.45c-1.07-2.3-0.37-0.93,0.24,0.6c0.93,2.35,1.8,4.73,2.59,7.14c0.8,2.4,1.52,4.83,2.18,7.27
				c0.33,1.22,0.64,2.45,0.93,3.68c1.99,8.35-2.93-4.17,4.14-9.78c4.24-1.76,8.49-3.51,12.73-5.27c-0.43,0.05-0.85,0.1-1.28,0.15
				c3.03,0.82,6.06,1.64,9.08,2.46c1.05,0.48,4.5,6.11,2.27,2.19c-0.75-1.32-1.63-2.58-2.41-3.87c-1.42-2.34-2.8-4.71-4.13-7.1
				c-2.66-4.79-5.11-9.69-7.41-14.66c-3.96-8.57-17-11.38-24.63-6.46c-8.84,5.7-10.69,15.46-6.46,24.63
				c4.07,8.81,8.59,17.53,13.96,25.64c4.66,7.04,10.65,13.05,19.73,13.18c7.56,0.11,14.45-4.01,18.03-10.57
				c5.32-9.75,1.06-21.97-2.26-31.78c-2.84-8.4-6.38-16.66-10.53-24.5c-7.79-14.68-18.23-28.35-30.32-39.75
				c-6.44-6.07-13.47-11.62-20.81-16.57c-7.58-5.11-16.11-10.38-25.14-12.25c-9.19-1.91-19.89,2.68-22.14,12.57
				C307.02,227.18,311.79,238.27,321.65,240.32L321.65,240.32z"/>
		</g>
	</g>
	<g>
		<g>
			<path class="st1" d="M350.02,241.4c92.9,0.11,184.96,14.48,277.67,18.38c46.13,1.94,92.3,0.98,138.1-5.11
				c45.51-6.05,90.31-15.8,135.08-25.82c24.7-5.53,49.4-11.07,74.25-15.91c12.09-2.36,24.22-4.55,36.39-6.49
				c13.86-2.21,21.55-3.26,35.6-4.77c9.33-1,18.47-7.56,18-18c-0.4-8.89-7.97-19.07-18-18c-90.79,9.72-178.25,37.02-268.29,51.05
				c-5.3,0.83-10.61,1.62-15.93,2.33c2.67-0.36-0.47,0.05-0.85,0.1c-1.25,0.16-2.51,0.32-3.76,0.47c-3.13,0.39-6.27,0.75-9.41,1.09
				c-11.52,1.26-23.07,2.2-34.64,2.85c-23.31,1.3-46.67,1.43-70,0.79c-46.19-1.27-92.22-5.54-138.22-9.7
				c-51.88-4.69-103.85-9.2-155.99-9.26c-9.42-0.01-18.44,8.29-18,18C332.46,233.16,339.93,241.39,350.02,241.4L350.02,241.4z"/>
		</g>
	</g>
	<g>
		<g>
			<path class="st1" d="M1042.75,191.88c-0.09,12.05-0.17,24.09-0.26,36.14c6-6,12-12,18-18c-3.62-0.13,4.39,0.93,1.04,0.02
				c4.22,1.15,2.59,1.2,0.99,0.08c1.66,1.17,2.75,2.34,0.66,0.25c-0.61-0.61-1.18-1.25-1.75-1.9c-0.7-0.8-1.32-1.67-2.02-2.47
				c-1.45-1.66,2.45,3.18,0.5,0.65c-2.01-2.6-3.97-5.31-6.17-7.76c-10.17-11.34-25.34-14.65-39-7.38
				c-24,12.77-30.82,42.76-30.82,67.69c11.18-3.03,22.36-6.06,33.54-9.08c0.33,0.72,0.66,1.44,1,2.16c0,3.19,0,6.38,0,9.57
				c0.42-1.96,0.05-1.56-1.1,1.2c-0.39,1.58-1.3,2.68-2.74,3.3c1.04-0.12,3.71-2.22,4.57-2.71c3.13-1.81,6.27-3.63,9.4-5.44
				c6.55-3.79,13.11-7.58,19.66-11.37c6.63-3.84,10.7-12.83,8.27-20.33c-2.63-8.12-9.1-12.37-17.36-13.21
				c-28.95-2.98-58.88,1.15-85.93,11.9c6.78,8.81,13.55,17.63,20.33,26.44c0.99-2.01,0.06-0.43-0.79,0.44
				c2.88-2.95-2.15,1.58-0.27,0.01c0.31-0.25,2.8-2.03,0.75-0.6c-1.78,1.24,0.23-0.07,0.97-0.32c3.84-1.3,7.87-1.96,11.69-3.35
				c11.11-4.05,22.23-11.6,24.5-24.1c2.59-14.26-8.05-24.49-22.14-22.14c-37.08,6.19-70.2,29.37-90.26,60.9
				c8.21-2.15,16.42-4.31,24.63-6.46c3.36,2.53,5.27,6.1,5.74,10.7c0.07-1.93,0-1.5-0.21,1.31c0.49-3.21-1.9,2.51,0.1-0.39
				c2.11-3.07,4.22-6.15,6.39-9.18c5.09-7.12,10.19-14.23,15.28-21.35c8.01-11.19-2.73-27.44-15.54-27.08
				c-15.98,0.44-30.97,8.21-41.2,20.45c-10.28,12.31-15.88,26.99-21.07,41.99c5.79-4.4,11.57-8.81,17.36-13.21
				c2.72,0.15,5.11,1.22,7.16,3.22c-1.34-1.39-1.21-1.17,0.39,0.65c-0.93-1.77-0.85-1.55,0.23,0.68c-0.37-1.72-0.43-1.67-0.2,0.16
				c-1.11-5.5-0.87-11.09-2.83-16.42c-4.44-12.06-15.51-20.45-28.42-21.17c-11.23-0.62-22,5.46-27.13,15.5
				c-5.88,11.49-3.78,23.72,4.28,33.46c4.79,5.78,15.65,6.91,21.81,2.81c19.74-13.13,36.28-29.64,49.47-49.34
				c-8.21,2.15-16.42,4.31-24.63,6.46c-1.72-4.85-3.43-9.69-5.15-14.54c-1.55,9.25,2.43,19.83,12.57,22.14
				c8.7,1.98,20.48-2.64,22.14-12.57c1.67-9.99-1.15-21.59-11.39-26.12c-9.34-4.13-18.71-2.39-24.63,6.46
				c-1.38,2.06-2.79,4.1-4.26,6.1c-0.19,0.25-2.2,2.87-1.09,1.47c1.11-1.41-0.97,1.17-1.17,1.41c-3.15,3.83-6.49,7.5-10,11
				c-3.32,3.31-6.78,6.46-10.39,9.45c-0.85,0.7-1.71,1.39-2.57,2.08c1.44-1.15,0.78-0.59-0.29,0.2c-2.23,1.62-4.48,3.2-6.78,4.73
				c7.27,0.94,14.54,1.88,21.81,2.81c1.79,2.15,2.68,3.76,2.78,6.64c-0.12-3.66-1.16,3.83-0.02,0.3c-0.3,0.73-0.6,1.47-0.9,2.2
				c1.03-1.62,0.78-1.32-0.76,0.92c-0.65,0.67-4.88,2.54-3.33,2.08c1.36-0.34,0.81-0.25-1.65,0.27c-2.45-0.46-3-0.51-1.64-0.17
				c1.93,0.57-2.84-1.9-0.18,0c-3.79-2.71,0.74,1.97-1.99-1.85c-0.66-1.85-0.79-2.11-0.38-0.77c0.25,0.81,0.44,1.63,0.56,2.46
				c-0.67-3.17,0.03,1.05,0.14,2c0.28,2.44,0.53,4.91,1.02,7.32c0.71,3.49,2.07,6.93,3.87,10.01c4.97,8.51,13.67,13.79,23.53,13.96
				c8.31,0.14,14.78-5.76,17.36-13.21c0.93-2.68,1.85-5.37,2.83-8.04c0.49-1.33,0.99-2.67,1.51-3.99c0.22-0.57,1.79-4.04,0.47-1.2
				c2.29-4.91,4.8-9.53,7.87-14c1.63-2.36-2.66,2.74,0.66-0.66c0.73-0.75,1.43-1.53,2.18-2.26c-0.05,0.05,3.43-3.1,1.73-1.67
				c-1.71,1.44,1.59-1.07,1.98-1.32c1.09-0.68,2.29-1.21,3.38-1.88c2.01-1.25-3.5,0.91,0.67-0.21c0.99-0.26,1.96-0.54,2.96-0.78
				c4.6-1.12-3.45,0.12,1.32-0.01c-5.18-9.03-10.36-18.06-15.54-27.08c-7.06,9.86-15.22,19.54-21.36,29.99
				c-7.23,12.32-7.54,30.86,6.97,38.18c8.93,4.51,19.14,2.17,24.63-6.46c1.1-1.73,2.22-3.44,3.4-5.11c0.59-0.84,1.19-1.66,1.81-2.48
				c-1.26,1.61-1.26,1.62,0.02,0.02c2.33-2.73,4.65-5.44,7.17-7.99c2.88-2.93,5.97-5.58,9.06-8.28c1.6-1.28,1.59-1.29-0.03-0.04
				c0.82-0.62,1.64-1.23,2.47-1.83c1.45-1.05,2.93-2.06,4.43-3.04c3.21-2.1,6.53-4.04,9.93-5.82c1.82-0.95,3.68-1.79,5.51-2.7
				c1.89-0.83,1.87-0.84-0.08-0.02c0.71-0.29,1.42-0.58,2.14-0.85c7.41-2.87,15.08-4.91,22.91-6.22
				c-7.38-7.38-14.76-14.76-22.14-22.14c-0.41,2.25,0.17,0.35,0.7-0.72c-0.99,1.99-0.04,0.24,0.59-0.69
				c-1.19,1.78-0.7,0.01,0.58-0.43c-0.73,0.25-1.71,0.87-2.36,1.3c1.09-0.71,2.59-0.91,0.49-0.26c-0.87,0.27-1.72,0.55-2.6,0.8
				c-1.94,0.54-3.9,0.97-5.84,1.52c-9.96,2.84-20.01,8.14-24.78,17.82c-3.27,6.63-3.26,13.95,1.41,19.99
				c4.01,5.2,12.31,9.08,18.92,6.45c12.53-4.98,25.6-8.61,38.97-10.49c-2.55,0.36,0.6-0.05,1.6-0.15c1.52-0.16,3.05-0.3,4.58-0.42
				c3.67-0.29,7.34-0.46,11.02-0.5c6.75-0.09,13.48,0.27,20.19,0.96c-3.03-11.18-6.06-22.36-9.08-33.54
				c-9.69,5.6-19.38,11.21-29.06,16.81c-5.49,3.17-10.54,6.69-14.1,12.06c-4.7,7.09-4.85,16.4-0.53,23.68
				c9.08,15.29,33.54,8.87,33.54-9.08c0-4.79,0.21-9.57,0.8-14.32c-0.3,2.43-0.25,1.85,0.13-0.21c0.22-1.18,0.46-2.35,0.73-3.51
				c0.54-2.31,1.33-4.53,1.97-6.81c0.92-3.26-0.94,1.65,0.01-0.23c0.52-1.03,0.98-2.08,1.53-3.09c0.55-1,1.13-1.98,1.76-2.94
				c0.63-0.97,2.65-2.87,0.01-0.2c1.62-1.64,3.1-3.32,4.86-4.82c-1.96,1.67-0.93,1.1,0.52-0.08c0.91-0.49,0.88-0.51-0.09-0.05
				c-0.79,0.44-1.65,0.6-2.58,0.47c2.45-0.2-1.33-0.21-1.93-0.35c3.23,0.76-3.8-2.04-0.89-0.4c2.32,1.31-1.37-1.12-1.33-1.14
				c0.22-0.07,2.02,1.93,2.16,2.08c1.16,1.23,2.11,2.96,3.39,4.03c-0.54-0.44-2.32-3.01-0.83-1.08c1.26,1.64,2.52,3.3,3.81,4.92
				c6.74,8.47,15.45,14.16,26.53,14.57c9.78,0.36,17.93-8.54,18-18c0.09-12.05,0.17-24.09,0.26-36.14c0.07-9.42-8.33-18.43-18-18
				C1050.94,174.32,1042.82,181.79,1042.75,191.88L1042.75,191.88z"/>
		</g>
	</g>
	<g>
		<g>
			<path class="st1" d="M848.47,247.52c-30.27,4.13-62.8,8.54-95.47,11.46c-32.74,2.93-65.61,4.33-98.22,8.66
				c-17.17,2.28-34.17,5.38-51.18,8.64c-7.7,1.48-15.4,2.96-23.13,4.33c-3.86,0.69-7.73,1.35-11.6,1.97
				c-1.95,0.31-3.9,0.61-5.85,0.9c-1.3,0.19-2.61,0.38-3.91,0.57c-2.25,0.31-2.61,0.36-1.09,0.16c-32.43,4.39-65.47,6.85-98.16,8.17
				c-9.06,0.37-18.03,0.17-27.06-0.55c-5.91-0.47,2.63,0.88-1.69-0.23c-1.11-0.29-6.41-2.24-2.03-0.22
				c-2.96-1.37,1.22,1.24,1.77,2.23c0.65,0.99,0.92,2.08,0.81,3.27c-0.09-1.03-0.15-2.05-0.18-3.08
				c-0.86-18.41-0.62-36.93,0.02-55.34c-9.03,5.18-18.06,10.36-27.08,15.54c-2.32-1.41-3.82-4.25-3.9-6.93
				c0.29,9.4,8.07,18.44,18,18c9.51-0.43,18.31-7.92,18-18c-0.31-10.19-5.19-18.83-13.93-24.15c-12.04-7.33-26.62,2.24-27.08,15.54
				c-0.61,17.45-0.67,34.92-0.12,52.38c0.31,9.91,1.57,19.88,9.25,27.03c7.14,6.65,15.98,8.49,25.3,9.64
				c17.05,2.1,34.24,0.75,51.31-0.4c17.43-1.17,34.86-2.38,52.25-4.09c35.33-3.48,69.83-10.59,104.75-16.68
				c3.86-0.67,7.73-1.32,11.6-1.92c2.27-0.35,4.53-0.68,6.8-1.01c2.12-0.3,0.54-0.08,0.1-0.02c1.3-0.18,2.61-0.34,3.91-0.5
				c8.48-1.05,16.98-1.92,25.49-2.67c17.36-1.54,34.75-2.64,52.12-4c40.1-3.12,79.95-8.53,119.79-13.97
				c9.36-1.28,15.29-13.75,12.57-22.14C867.28,249.8,858.51,246.15,848.47,247.52L848.47,247.52z"/>
		</g>
	</g>
	<g>
		<g>
			<path class="st1" d="M379.41,258.27c28.15,26.51,59.23,50.01,92.47,69.77c5.52,3.28,12.64,3.23,18.17,0
				c5.93-3.47,8.2-9.03,8.92-15.54c1.96-17.97-11.5-32-22.81-44.01c-11.41-12.12-22.83-24.25-34.24-36.37
				c-5.54-5.88-14.97-6.62-21.81-2.81c-12.81,7.13-15.96,23.82-9.24,36.23c6.15,11.36,19.25,15.62,30.95,18.62
				c12.78,3.28,25.58,3.73,37.71-1.89c12.21-5.66,18.76-16.94,20.36-29.87c-12,0-24,0-36,0c0.27,7.52,0.54,15.03,0.81,22.55
				c9.03-5.18,18.06-10.36,27.08-15.54c-1.34-0.84-2.63-1.71-3.93-2.61c2.08,1.44,0.42,0.33-0.66-0.61
				c-2.18-1.91-4.14-3.99-6.08-6.13c-2.21-2.43,0.47,0.99-0.57-0.69c-0.69-1.11-1.49-2.16-2.18-3.27c-1.65-2.69-3.05-5.49-4.3-8.38
				c-10.36,6.06-20.72,12.11-31.08,18.17c12.13,22.26,27.05,42.97,44.07,61.75c6.09,6.73,19.47,7.25,25.46,0
				c4.07-4.92,7-9.73,9.47-15.58c1.05-2.49,2.06-5,3.08-7.5c1.08-2.66-1.74,3.15,0.42-0.77c0.47-0.85,0.95-1.69,1.41-2.54
				c0.9-1.66,0.79-1.06-0.28,0.1c0.63-0.68,1.4-1.35,1.96-2.07c-0.79,1.02-2.2,1.34-0.29,0.34c-2.03,0.73-2.41,0.9-1.13,0.53
				c0.96-0.24,0.89-0.24-0.23,0.01c-0.71-0.09-3.24-0.58-1.71,0.17c0.26,0.13,3.45,1.25,1.67,0.49c-1.78-0.76,1.44,0.79,1.74,0.95
				c1.32,0.69,2.61,1.42,3.89,2.19c2.04,1.23,4.03,2.55,5.97,3.92c0.97,0.69,1.94,1.4,2.89,2.11c-1.52-1.14-0.07-0.05,0.6,0.5
				c3.76,3.05,7.53,6.12,11.12,9.37c0.94,0.85,1.81,1.75,2.73,2.62c1.3,1.23,0.99,1.16,0.07-0.22c0.54,0.82,1,1.68,1.54,2.49
				c-0.82-1.24-0.72-2.18-0.3-0.18c-0.35-1.67-0.4-3.03-0.06-4.71c-0.56,2.77,0.76-0.7,1.21-1.7c0.86-0.97,0.96-1.11,0.31-0.42
				c-0.69,0.68-0.53,0.57,0.48-0.33c0.99-1.05,2.26-1.58,3.81-1.58c3.33-0.57,3.91-0.88,1.74-0.92c0,12,0,24,0,36
				c14.91,0.27,29.81,0.54,44.72,0.82c14.33,0.26,28.8,1.09,43.11,0.2c14.73-0.93,28.02-4.45,41.56-10.09
				c5.72-2.38,11.42-4.87,17.31-6.79c3.16-1.03,6.35-1.83,9.6-2.52c3.75-0.8-2.44-0.21,1.74-0.18c1.66,0.01,3.32-0.08,4.99-0.04
				c9.42,0.28,18.43-8.48,18-18c-0.47-10.56-7.93-16.99-18-18c-37.31-3.76-74.61,1.69-111.96,1.15c-8.1-0.12-16.2-0.5-24.24-1.43
				c-0.61-0.07-3.7-0.45-1.2-0.13c2.35,0.3-0.09-0.02-0.48-0.08c-1.68-0.27-3.35-0.52-5.02-0.82c-3.59-0.63-7.15-1.37-10.69-2.22
				c-6.81-1.63-13.53-3.69-20.07-6.21c-1.3-0.5-4.97-2.16-1.68-0.65c-1.52-0.69-3.04-1.37-4.54-2.1c-3.19-1.55-6.31-3.23-9.35-5.05
				c-3.22-1.93-6.26-4.07-9.31-6.25c3.43,2.45-0.94-0.83-1.78-1.56c-1.4-1.21-2.76-2.47-4.09-3.76c-1.49-1.46-2.93-2.96-4.32-4.52
				c-0.46-0.52-0.92-1.04-1.37-1.57c-0.33-0.39-2.74-3.49-1.21-1.44c1.34,1.8-0.07-0.12-0.27-0.42c-0.66-0.97-1.34-1.92-1.98-2.9
				c-1.17-1.78-2.25-3.61-3.29-5.46c-8.21,8.21-16.42,16.42-24.63,24.63c21.31,10.3,43.9,14.47,67.31,16.67
				c22.41,2.1,44.97,3.01,67.47,3.31c45.76,0.63,91.56-1.97,136.95-7.75c26.86-3.42,53.58-7.76,80.09-13.25
				c9.24-1.91,15.43-13.31,12.57-22.14c-3.16-9.77-12.25-14.62-22.14-12.57c-21.78,4.51-43.69,8.31-65.72,11.34
				c-3.62,0.5,4.26-0.54-1.92,0.26c-1.28,0.16-2.56,0.33-3.84,0.49c-2.56,0.32-5.12,0.64-7.68,0.94c-5.76,0.68-11.53,1.31-17.3,1.89
				c-10.9,1.1-21.82,2.01-32.76,2.73c-44.37,2.95-88.95,2.88-133.31-0.25c-5.62-0.4-11.25-0.85-16.85-1.44
				c-1.18-0.13-2.36-0.26-3.55-0.4c-0.89-0.1-1.77-0.21-2.66-0.32c1.55,0.21,1.67,0.23,0.37,0.04c-2.63-0.43-5.27-0.81-7.9-1.29
				c-5.8-1.07-11.55-2.4-17.2-4.1c-2.82-0.85-5.57-1.87-8.35-2.83c-0.42-0.15-3.21-1.25-0.61-0.18c-1.64-0.67-3.23-1.46-4.82-2.23
				c-7.01-3.39-16.15-3.35-21.81,2.81c-5.49,5.98-6.86,14.6-2.81,21.81c15.93,28.4,44.41,46.41,74.95,55.75
				c34.22,10.47,70.18,9.11,105.48,7.35c22.5-1.12,45.04-2.14,67.51,0.13c0-12,0-24,0-36c-14.14-0.42-27.22,4.13-40.07,9.49
				c-5.74,2.4-11.48,4.87-17.42,6.76c-3.42,1.09-6.86,1.84-10.36,2.6c-0.62,0.1-1.24,0.21-1.85,0.31c1.37-0.16,1.42-0.17,0.13-0.02
				c-1.88,0.17-3.75,0.36-5.63,0.48c-14.32,0.9-28.78,0.07-43.11-0.2c-14.91-0.27-29.81-0.54-44.72-0.82c-9.42-0.17-18.43,8.4-18,18
				c0.47,10.43,7.92,17.15,18,18c19.62,1.65,32.3-20.96,26.59-38.03c-5.11-15.29-20.64-25.95-33.11-35.05
				c-13.56-9.89-31.8-18.87-48-9.31c-6.7,3.95-12.2,10.18-15.71,17.09c-2.03,3.99-3.65,8.26-5.28,12.44
				c-0.48,1.19-0.41,1.02,0.22-0.51c-0.33,0.75-0.68,1.48-1.06,2.21c-0.38,0.74-3.45,5.15-1.21,2.44c8.49,0,16.97,0,25.46,0
				c-4-4.41-7.88-8.92-11.62-13.56c-0.75-0.93-1.49-1.86-2.22-2.8c1.67,2.12-0.71-0.93-0.99-1.31c-1.79-2.38-3.54-4.79-5.26-7.22
				c-6.7-9.49-12.79-19.38-18.34-29.58c-4.51-8.28-16.63-11.62-24.63-6.46c-9.01,5.81-10.46,15.34-6.46,24.63
				c6.21,14.43,17.38,26.34,30.63,34.61c11.37,7.1,27.57-2.06,27.08-15.54c-0.27-7.52-0.54-15.03-0.81-22.55
				c-0.34-9.4-8.04-18.45-18-18c-10.74,0.48-16.76,7.95-18,18c-0.16-1.1,0.04-2.09,0.61-2.99c0.54-1.09,0.58-1.19,0.11-0.3
				c-1.09,1.5,2.6-1.68,0,0.17c-2.74,1.95,1.89-0.69-0.14,0.24c-0.97,0.44-3.73,1.51-0.11,0.39c-0.9,0.28-1.78,0.57-2.69,0.82
				c-3.16,0.85,1.08,0.43-0.99,0.05c-1.38-0.26-2.98-0.02-4.42-0.15c2.62,0.24-0.25-0.1-1.38-0.34c-2.64-0.56-5.24-1.27-7.83-2.02
				c-1.31-0.38-2.63-0.76-3.93-1.18c-1.55-0.5-2.99-1.3-0.75-0.12c-0.83-0.44-2.94-2.56-1.97-1.04c1.02,1.61,2.12,1.86,2.68,4.1
				c0.23,0.93,0.07,3.68,0.2,1.24c-0.17,3.1-2.13,7.53-5.02,9.14c-7.27-0.94-14.54-1.88-21.81-2.81
				c10.07,10.7,20.14,21.39,30.21,32.09c4.59,4.88,9.21,9.72,13.61,14.76c1.25,1.43-0.99-1.77,0.63,0.96
				c0.83,1.4,1.66,2.72,2.39,4.17c-1.63-3.21,0.01,0.72,0.18,1.55c-0.63-3.13-0.33-0.27-0.51,1.38
				c9.03-5.18,18.06-10.36,27.08-15.54c-15.72-9.34-30.94-19.49-45.56-30.46c-0.49-0.37-5.03-3.82-2.79-2.09
				c-1.9-1.46-3.78-2.95-5.65-4.45c-3.51-2.81-6.98-5.66-10.42-8.56c-7.1-6-14.01-12.2-20.77-18.57c-6.86-6.46-18.75-7.31-25.46,0
				C372.98,239.82,372.09,251.37,379.41,258.27L379.41,258.27z"/>
		</g>
	</g>
	<g>
		<g>
			<path d="M304.98,515.09c9.42,0,18.44-8.28,18-18c-0.44-9.75-7.91-18-18-18c-9.42,0-18.44,8.28-18,18
				C287.42,506.84,294.89,515.09,304.98,515.09L304.98,515.09z"/>
		</g>
	</g>
	<g>
		<g>
			<path d="M182.28,182.91c114.17,33.86,233.12,49.96,351.98,53.71c118.43,3.74,236.96-4.61,354.49-18.77
				c67.03-8.08,133.82-17.99,200.45-28.83c9.32-1.52,15.34-13.58,12.57-22.14c-3.27-10.1-12.15-14.2-22.14-12.57
				c-116.93,19.03-229.37,34.66-348.56,42.45c-116.74,7.63-233.83,6.4-349.97-8.33c-3.5-0.44,4.25,0.59-1.67-0.22
				c-2.46-0.34-4.91-0.68-7.37-1.03c-4.3-0.61-8.59-1.24-12.88-1.89c-7.97-1.21-15.93-2.49-23.87-3.84
				c-15.9-2.71-31.75-5.71-47.54-9.02c-32.29-6.76-64.3-14.83-95.93-24.21c-9.02-2.68-20.01,3.22-22.14,12.57
				C167.5,170.44,172.61,180.04,182.28,182.91L182.28,182.91z"/>
		</g>
	</g>
	<g>
		<g>
			<path d="M1066.52,171.67c2.17,6.56,3.99,13.21,5.39,19.97c0.67,3.23,1.22,6.47,1.73,9.73c0.13,0.81,0.36,3.53-0.03-0.27
				c0.08,0.75,0.18,1.51,0.26,2.26c0.19,1.76,0.36,3.52,0.51,5.28c0.55,6.8,0.72,13.62,0.53,20.44c-0.09,3.29-0.26,6.57-0.52,9.85
				c-0.14,1.77-0.3,3.53-0.48,5.3c-0.08,0.76-0.16,1.51-0.25,2.27c-0.06,0.49-0.63,4.71-0.26,2.14c0.31-2.12-0.35,2.2-0.47,2.89
				c-0.29,1.76-0.59,3.52-0.92,5.27c-0.66,3.51-1.41,7.01-2.24,10.49c-1.61,6.74-3.53,13.42-5.73,19.99
				c-1.06,3.18-2.19,6.34-3.39,9.48c-0.55,1.45-1.12,2.9-1.7,4.34c-0.39,0.96-0.78,1.92-1.18,2.88c0.65-1.58,0.68-1.57-0.02-0.01
				c-2.86,6.42-5.89,12.74-9.22,18.93c-6.66,12.41-14.29,24.29-22.76,35.54c-0.3,0.4-2.31,3-0.97,1.28
				c1.24-1.58-0.37,0.46-0.52,0.64c-0.98,1.22-1.95,2.44-2.94,3.64c-2.3,2.81-4.66,5.57-7.08,8.29c-4.92,5.54-10.07,10.86-15.4,16
				c-5.41,5.22-11,10.26-16.75,15.12c-2.76,2.33-5.55,4.63-8.38,6.88c-0.7,0.56-3.87,3.04-1.61,1.29c-1.76,1.36-3.54,2.69-5.32,4.01
				c-12.07,8.94-24.65,17.2-37.58,24.85c-13,7.7-26.36,14.8-39.94,21.43c-6.82,3.33-13.7,6.54-20.62,9.65
				c-3.34,1.5-6.69,2.97-10.05,4.43c-1.81,0.78-3.62,1.56-5.44,2.33c-1.91,0.82,0.09-0.04,0.41-0.17c-1.04,0.43-2.08,0.87-3.12,1.3
				c-29.54,12.25-59.65,23.36-90.03,33.34c-16.3,5.35-32.76,10.22-49.48,14.11c-8.34,1.94-16.75,3.64-25.2,5.03
				c-2.21,0.36-4.43,0.7-6.65,1.03c-2.12,0.31-0.45,0.08-0.02,0.02c-0.96,0.13-1.93,0.25-2.89,0.37c-4.81,0.59-9.64,1.09-14.47,1.5
				c-34.75,2.95-69.76,1.54-104.49-1.13c-17.15-1.32-34.27-3.04-51.34-5.17c-2.21-0.28-4.42-0.56-6.64-0.85
				c-2.13-0.28-0.37-0.04,0.05,0.01c-0.95-0.13-1.89-0.26-2.84-0.39c-4.42-0.61-8.83-1.25-13.24-1.91
				c-8.5-1.28-16.99-2.66-25.47-4.15c-34.2-5.98-68.12-13.6-101.59-22.82c-8.29-2.28-16.55-4.67-24.79-7.15
				c-9.02-2.71-20.02,3.24-22.14,12.57c-2.21,9.7,2.92,19.24,12.57,22.14c69,20.72,139.94,34.52,211.62,41.62
				c35.8,3.54,71.96,5.85,107.94,4.46c36.6-1.41,72.57-7.7,107.68-18.05c32.27-9.51,64.02-21.18,95.3-33.54
				c30.18-11.93,60.01-24.99,88.47-40.63c54.75-30.08,104.9-70.32,138.15-123.87c31.79-51.21,47.82-113.36,35.75-173.14
				c-1.42-7.02-3.3-13.92-5.55-20.72c-2.95-8.92-12.56-15.67-22.14-12.57C1070.2,152.41,1063.35,162.1,1066.52,171.67
				L1066.52,171.67z"/>
		</g>
	</g>
	<g>
		<g>
			<path d="M341.85,495.32c-8.56-5.48-18.21-9.53-28.12-11.77c-9.16-2.07-19.91,2.79-22.14,12.57c-2.08,9.14,2.75,19.93,12.57,22.14
				c2.11,0.48,4.21,1,6.28,1.65c0.58,0.18,5.64,2.02,3.94,1.33c-1.69-0.69,3.18,1.56,3.72,1.85c1.91,1.02,3.76,2.14,5.58,3.31
				c7.94,5.09,20.21,1.9,24.63-6.46C353.02,511.03,350.33,500.75,341.85,495.32L341.85,495.32z"/>
		</g>
	</g>
	<g>
		<g>
			<path d="M187.06,181.3c10.64,5.42,21.01,11.36,31.03,17.84c5.01,3.24,9.94,6.62,14.77,10.12c2.2,1.59,4.37,3.22,6.54,4.85
				c4.29,3.23-2.68-2.2,1.5,1.17c1.27,1.02,2.55,2.03,3.81,3.06c18.52,15.07,35.48,32.05,50.52,50.6c1.02,1.26,2.03,2.54,3.05,3.82
				c3.35,4.2-2.04-2.8,1.16,1.51c1.62,2.18,3.25,4.35,4.83,6.55c3.58,4.98,7.03,10.05,10.32,15.22c3.53,5.53,6.86,11.19,9.87,17.02
				c1.37,2.65,2.63,5.33,3.88,8.04c2.4,5.21-1.05-3.1,0.94,2.28c0.62,1.68,1.26,3.34,1.83,5.03c2.25,6.6,3.92,13.39,5.25,20.23
				c1.48,7.64,2,11.78,2.72,17.83c1.7,14.31,3.01,28.66,3.98,43.04c2.2,32.73,2.47,65.56,0.94,98.33c-0.44,9.42,8.59,18.42,18,18
				c10.13-0.45,17.53-7.91,18-18c1.41-30.14,1.29-60.34-0.45-90.47c-0.87-15.06-2.14-30.1-3.8-45.09
				c-1.69-15.16-3.45-30.48-7.44-45.24c-7.19-26.61-22.21-50.48-38.77-72.22c-15.6-20.48-32.94-39.42-52.5-56.18
				c-21.99-18.85-46.01-35.26-71.81-48.41c-8.38-4.27-19.91-2.47-24.63,6.46C176.26,164.89,178.1,176.73,187.06,181.3L187.06,181.3z
				"/>
		</g>
	</g>
	<g>
		<g>
			<path d="M352.59,354.34c97.11,7.36,194.72,3.08,291.34-8.42c98.16-11.69,195.31-30.32,291.79-51.65
				c53.55-11.84,106.92-24.48,160.28-37.15c9.17-2.18,15.49-13.12,12.57-22.14c-3.09-9.55-12.32-14.9-22.14-12.57
				c-94.69,22.49-189.45,44.88-285.11,62.87c-24.04,4.52-48.14,8.76-72.29,12.64c-11.9,1.91-23.81,3.74-35.73,5.47
				c-5.8,0.84-11.59,1.66-17.4,2.46c-1.29,0.18-2.58,0.35-3.87,0.53c2.7-0.36-1.37,0.18-1.98,0.26c-3.55,0.47-7.09,0.93-10.64,1.38
				c-47.63,6.05-95.48,10.43-143.45,12.56c-54.45,2.42-109.02,1.89-163.38-2.23c-9.41-0.71-18.41,8.79-18,18
				C335.06,346.7,342.51,353.57,352.59,354.34L352.59,354.34z"/>
		</g>
	</g>
	<g>
		<g>
			<path d="M687.33,428.35c13.47,31.95,25.69,64.4,36.64,97.29c2.97,8.92,12.55,15.68,22.14,12.57
				c8.88-2.87,15.76-12.58,12.57-22.14c-10.95-32.89-23.17-65.35-36.64-97.29c-3.64-8.64-12.06-15.84-22.14-12.57
				C691.62,408.89,683.42,419.06,687.33,428.35L687.33,428.35z"/>
		</g>
	</g>
	<g>
		<g>
			<path d="M368.11,366.9c-0.8,25.2-0.55,50.41,0.82,75.59c0.68,12.42,1.62,24.83,2.83,37.21c0.62,6.34,0.71,13.42,2.44,19.54
				c2.75,9.7,9.63,15.7,18.82,19.09c22.47,8.29,47.06,12.22,70.68,15.55c25,3.52,50.13,5.93,75.26,8.44
				c28.22,2.82,56.44,5.65,84.67,8.47c7,0.7,13.93-5.1,16.45-11.06c2.97-7.05,1.05-13.96-3.72-19.66
				c-2.98-3.56-5.96-7.12-8.93-10.68c-6.07-7.25-19.28-6.73-25.46,0c-7.08,7.71-6.47,17.72,0,25.46c2.98,3.56,5.96,7.12,8.93,10.68
				c4.24-10.24,8.49-20.49,12.73-30.73c-46.68-4.67-93.5-8.64-140.07-14.3c-2.51-0.31-5.03-0.62-7.54-0.95
				c-3.75-0.49-1.68-0.23-0.86-0.11c-1.57-0.22-3.13-0.44-4.7-0.67c-5.94-0.86-11.87-1.8-17.79-2.86
				c-10.87-1.93-21.68-4.23-32.36-7.03c-5.2-1.37-10.32-2.93-15.47-4.47c-4.09-1.23-0.13-0.19-0.1,0.04c1.46,2,2.93,4,4.39,6
				c-0.4-1.83-0.51-2.09-0.33-0.78c0.71,2.78-0.35-3.3-0.34-3.13c-0.17-1.63-0.34-3.26-0.5-4.88c-1.17-11.73-2.1-23.47-2.8-35.24
				c-1.56-26.47-1.88-53-1.04-79.51c0.3-9.42-8.49-18.43-18-18C376.1,349.35,368.43,356.81,368.11,366.9L368.11,366.9z"/>
		</g>
	</g>
	<g>
		<g>
			<path d="M632.98,522.12c0.21-12.86-3.37-24.94-8.31-36.66c-2.34-5.53-4.83-10.99-7.31-16.46c-0.48-1.05-0.94-2.11-1.42-3.17
				c-2.26-5.02,0.61,1.78-0.58-1.35c-1.17-3.08-2.38-6.13-3.44-9.24c-1.73-5.09-3.22-10.27-4.47-15.5
				c-0.69-2.91-1.32-5.83-1.86-8.77c-0.22-1.18-0.42-2.35-0.62-3.53c-0.02-0.14-0.8-5.79-0.38-2.32c-1.36-11.28-1.7-22.67-0.9-34.01
				c0.21-2.98,0.51-5.96,0.86-8.92c-0.35,2.99,0.01-0.03,0.09-0.54c0.25-1.47,0.48-2.95,0.74-4.42c1.6-8.81,2.47-16.52-3.36-24.06
				c-5.78-7.48-14.05-8.39-22.78-8.55c-6.61-0.13-13.23-0.23-19.84-0.31c-25.13-0.31-50.27-0.29-75.4,0.07
				c-14.55,0.2-29.1,0.52-43.64,0.94c-7.04,0.21-14.15,0.2-21.18,0.72c-9.95,0.73-17.76,4.18-23.51,12.63
				c-7.58,11.16,2.41,27.67,15.54,27.08c62.03-2.76,124.05-5.51,186.08-8.27c9-0.4,16.46-6.54,17.68-15.61
				c1.16-8.6-4.15-17.56-12.89-19.75c-19.75-4.94-43.56-2.84-50.96,19.64c-2.8,8.5-2.46,18.53-2.98,27.44
				c-0.52,8.89-0.92,17.79-1.07,26.69c-0.58,36.72,3.82,74.11,21.84,106.72c10.36-6.06,20.72-12.11,31.08-18.17
				c-11.5-18.8-21.97-38.2-31.3-58.16c-2.2-4.71-4.34-9.45-6.41-14.22c-0.61-1.4-1.22-2.81-1.81-4.22c0.75,1.77,0-0.01-0.32-0.78
				c-1.05-2.55-2.09-5.1-3.11-7.65c-4.18-10.52-8.04-21.16-11.62-31.9c-2.85-8.56-10.63-14.12-19.75-12.89
				c-8.92,1.2-15.37,8.64-15.61,17.68c-0.83,32.11,2.72,64.04,6.34,95.89c1.06,9.32,7.52,18.47,18,18c9.21-0.41,18.68-7.94,18-18
				c-2.28-33.69-4.57-67.37-6.85-101.06c-0.61-9.01-6.38-16.44-15.61-17.68c-8.57-1.15-17.6,4.14-19.75,12.89
				c-5.67,23.08-2.78,46.58,7.71,67.82c3.15,6.38,11.32,9.48,17.93,8.59c6.38-0.86,13.9-5.97,14.96-12.89
				c3.11-20.26,6.22-40.52,9.33-60.78c-11.57,0-23.14,0-34.71,0c3.39,9.64,6.1,19.49,7.97,29.54c0.44,2.36,0.83,4.73,1.2,7.11
				c0.56,3.68,0.18,1.37,0.08,0.57c0.14,1.19,0.28,2.39,0.4,3.58c0.55,5.38,0.89,10.78,1,16.18c0.1,4.8,0.03,9.61-0.22,14.41
				c-0.12,2.4-0.29,4.8-0.5,7.19c-0.11,1.2-0.22,2.39-0.35,3.59c-0.01,0.13-0.76,5.8-0.26,2.37c-0.7,4.75-1.55,9.48-2.59,14.18
				c-0.5,2.26-1.09,4.49-1.63,6.74c-0.87,3.61-0.31,0.28,0.15-0.06c1.03-1.73,2.43-2.91,4.18-3.53c0.78-0.42,1.62-0.57,2.52-0.45
				c-0.72,1.28-12.7-0.2-14.36-0.25c-5.79-0.18-11.59-0.37-17.38-0.55c-10.42-0.33-20.85-0.62-31.27-0.99
				c-4.4-0.16-8.78-0.46-13.17-0.83c-0.78-0.07-3.53-0.48,0.16,0.08c-1.02-0.15-2.03-0.31-3.05-0.49c-2.25-0.4-4.49-0.9-6.7-1.51
				c-0.97-0.27-1.93-0.56-2.88-0.88c-0.52-0.17-3.52-1.26-1.35-0.41c2.16,0.84-0.73-0.38-1.23-0.63c-1.1-0.56-2.18-1.16-3.23-1.82
				c-0.84-0.53-1.67-1.08-2.46-1.68c0.69,0.52,2.33,2.21,0.18-0.08c-0.67-0.71-1.38-1.42-2.07-2.12c-2.31-2.34,0.63,1.35-0.33-0.37
				c-0.95-1.69-2.06-3.25-2.94-4.99c-0.26-0.52-1.44-3.36-0.59-1.17c0.85,2.21-0.21-0.74-0.39-1.28c-1.45-4.29-2.28-8.68-3.08-13.13
				c-0.49-2.71,0.25,3,0.05,0.25c-0.08-1.02-0.22-2.03-0.31-3.05c-0.19-2.03-0.33-4.06-0.45-6.09c-0.29-4.88-0.45-9.78-0.64-14.67
				c-0.44-10.99,0.14-22.6-1.34-33.49c-0.5-3.69,0.29,0.14-0.4,0.46c-2.72,2.73-5.44,5.46-8.15,8.19c0.42-0.11,0.83-0.21,1.25-0.32
				c2.34-0.32,4.68-0.86,7.01-1.26c5.75-0.98,11.52-1.89,17.31-2.67c-2.51,0.34,0.7-0.08,1-0.12c1.29-0.16,2.57-0.32,3.86-0.47
				c2.58-0.31,5.15-0.6,7.73-0.87c5.81-0.61,11.62-1.12,17.44-1.54c2.59-0.19,5.18-0.39,7.77-0.5c0.27-0.01,2.55,0.15,2.95-0.06
				c-2.68,1.4-7.07-3.09-8.55-4.9c-1.58-1.94-0.63-1.96-0.21-0.33c0.28,1.09,0.6,2.16,0.89,3.25c0.84,3.13,1.64,6.26,2.43,9.4
				c5.36,21.35,9.67,42.97,12.92,64.75c0.19,1.28,0.38,2.56,0.56,3.84c0.06,0.43,0.67,4.95,0.48,3.38c-0.2-1.68,0.09,1.54,0.15,1.86
				c1.04,5.58,14.13-10.75,7.25-9.84c-1.06,0.14-2.14,0.38-3.2,0.55c3.17-0.52-2.51,0.26-2.58,0.26c-3.08,0.29-6.17,0.47-9.26,0.53
				c-5.58,0.12-11.14-0.16-16.68-0.72c-3.73-0.38-1.55-0.2-0.74-0.07c-1.84-0.28-3.66-0.6-5.49-0.95c-2.73-0.54-5.45-1.17-8.14-1.88
				c-1.13-0.3-2.25-0.6-3.37-0.95c-3.05-0.94-1.42-0.8,0.35,0.55c1.02,0.78,1.42,2.11,2.25,2.88c0.55,1.31,0.58,1.14,0.1-0.5
				c-0.08-0.46-0.16-0.93-0.23-1.39c0.67,3.4,0.05,0.2-0.02-0.46c-0.21-1.93-0.45-3.86-0.66-5.8c-0.32-2.9-0.61-5.8-0.87-8.71
				c-1.16-12.59-1.83-25.22-2.09-37.86c-4.4,5.79-8.81,11.57-13.21,17.36c6.14-2.41,12.35-4.64,18.64-6.64
				c2.99-0.95,6-1.86,9.02-2.72c1.51-0.43,3.02-0.85,4.54-1.25c0.61-0.16,1.22-0.32,1.82-0.48c3.57-0.78,2.4-0.87-3.52-0.29
				c-2.65-1.54-5.3-3.09-7.94-4.63c0.27,0.31,0.55,0.62,0.82,0.93c-1.54-2.65-3.09-5.3-4.63-7.94c1.53,3.74,1.86,8.11,2.62,12.09
				c0.86,4.49,1.72,8.99,2.59,13.48c0.86,4.49,1.72,8.99,2.59,13.48c0.25,1.28,0.49,2.57,0.74,3.85c0.3,1.81,0.36,2.05,0.19,0.71
				c-0.14-1.35-0.14-1.1,0.02,0.74c-0.06,2.14,0.02,2.07,0.24-0.23c1.22-1.81,1.92-3.63,3.94-4.8c2.65-0.96,3.04-1.18,1.18-0.64
				c2.9-0.3,3.34-0.44,1.32-0.42c2.6,0.43,3.2,0.49,1.83,0.15c-1.29-0.37-0.82-0.11,1.43,0.79c-0.74-0.35-1.45-0.75-2.13-1.2
				c1.99,1.63,2.29,1.77,0.9,0.44c1.26,1.67,1.53,1.92,0.8,0.74c-0.61-1.15-0.54-0.88,0.2,0.8c-0.3-0.86-1.5-7.1-1-2.84
				c-0.43-3.7-0.33-7.45-0.25-11.16c0.21-9.42-8.43-18.43-18-18c-9.93,0.44-17.78,7.91-18,18c-0.42,19.19,4.48,39.74,24.74,46.6
				c8.54,2.89,18.42,2.07,26.08-2.79c9.65-6.13,13.65-17.55,12.42-28.58c-1.09-9.76-3.4-19.42-5.24-29.06
				c-1.8-9.39-2.15-22.45-9.1-29.66c-9.56-9.91-21.98-6.14-33.47-2.76c-8.44,2.48-16.75,5.37-24.94,8.58
				c-7.36,2.88-13.39,8.88-13.21,17.36c0.28,13.61,1.04,27.21,2.37,40.76c1.47,15.01,1.3,31.49,15.11,40.82
				c5.19,3.51,11.95,5.1,18,6.47c7.58,1.72,15.37,2.82,23.12,3.43c12.49,0.98,26.85,0.88,38.96-2.61
				c10.43-3,16.85-11.58,17.74-22.21c0.63-7.46-1.55-15.49-2.68-22.88c-2-13.12-4.38-26.19-7.15-39.17
				c-2.66-12.49-5.03-25.6-9.25-37.68c-2.99-8.56-8.78-16.15-17.87-18.71c-6.87-1.93-14.29-0.87-21.27-0.33
				c-14.21,1.1-28.38,2.8-42.48,4.9c-14.81,2.2-32.69,3.44-36.89,21.08c-1.54,6.5-0.57,13.62-0.3,20.22
				c0.29,7.22,0.58,14.45,0.87,21.67c0.48,12.1,0.94,24.18,3.14,36.12c4.64,25.19,21.38,44.72,46.49,51.08
				c11.41,2.89,23.36,3.42,35.08,3.8c13.2,0.42,26.4,0.84,39.59,1.25c6.85,0.22,13.91,0.95,20.73,0.22
				c11.01-1.19,20-6.71,24.41-17.16c5.68-13.47,7.15-29.74,8.23-44.17c2.14-28.73-1.88-58.3-11.44-85.46
				c-2.55-7.25-9.12-13.58-17.36-13.21c-7.28,0.33-16.14,5.28-17.36,13.21c-3.11,20.26-6.22,40.52-9.33,60.78
				c10.97-1.43,21.93-2.87,32.9-4.3c-0.52-1.03-1.02-2.07-1.5-3.13c0.67,1.65,0.62,1.48-0.16-0.51c-0.55-1.64-1.15-3.27-1.64-4.93
				c-0.65-2.22-1.21-4.46-1.66-6.73c-0.23-1.13-0.43-2.27-0.6-3.41c0.21,1.64,0.25,1.8,0.11,0.49c-0.15-4.06-0.48-8.04-0.24-12.12
				c0.04-0.75,0.79-6.58,0.2-2.96c0.37-2.28,0.87-4.54,1.42-6.78c-11.79-1.6-23.57-3.19-35.36-4.79
				c2.28,33.69,4.57,67.37,6.85,101.06c12,0,24,0,36,0c-3.63-31.85-7.17-63.78-6.34-95.89c-11.79,1.6-23.57,3.19-35.36,4.79
				c14.61,43.85,34.07,86.11,58.19,125.54c4.91,8.03,16.34,11.8,24.63,6.46c8.36-5.39,11.33-15.8,6.46-24.63
				c-1.91-3.46-3.67-6.97-5.3-10.56c-2.24-4.96,1.12,3.2-0.76-1.89c-0.58-1.57-1.18-3.13-1.73-4.71c-2.38-6.86-4.22-13.89-5.64-21
				c-0.44-2.2-0.83-4.41-1.19-6.63c-0.13-0.78-0.81-5.66-0.32-1.9c-0.43-3.37-0.78-6.75-1.06-10.13c-0.64-7.68-0.92-15.39-0.96-23.1
				c-0.08-14.92,0.73-29.82,1.7-44.7c0.12-1.92,0.29-3.85,0.39-5.78c0.04-0.51,0.09-1.02,0.13-1.53c-0.33,2.24-0.29,2.33,0.14,0.27
				c-1.02,1.92-1.03,1.98-0.03,0.17c-0.42,0.56-0.83,1.12-1.25,1.68c-2.15,1.46-2.41,1.67-0.78,0.63c-2.31,0.85-2.82,1.06-1.52,0.63
				c4.33-1.34-2.8-0.43,0.83-0.32c1.33,0.04,2.69,0.05,4.02,0.06c4.06,0-3.02-0.76,0.64,0.06c1.75,0.39,3.49,0.73,5.23,1.16
				c1.6-11.79,3.19-23.57,4.79-35.36c-62.03,2.76-124.05,5.51-186.08,8.27c5.18,9.03,10.36,18.06,15.54,27.08
				c-7.5,4.36-9.55,6.05-6.17,5.08c1.33-0.32,0.86-0.28-1.41,0.12c1.14-0.51,3.1-0.13,4.32-0.18c3.64-0.13,7.27-0.25,10.91-0.36
				c7.27-0.23,14.54-0.43,21.82-0.6c14.55-0.34,29.1-0.58,43.65-0.7s29.1-0.14,43.65-0.04c6.94,0.05,13.89,0.12,20.83,0.22
				c3.64,0.05,7.27,0.11,10.91,0.17c1.97,0.03,3.98,0.17,5.95,0.11c4.35-0.12-1.09-0.04-2.43-1.04c-2.15-2.15-4.3-4.3-6.46-6.46
				c-1.35-2.27-1.79-4.59-1.33-6.97c0.26-1.76,0.19-1.57-0.18,0.59c-0.35,1.76-0.63,3.53-0.9,5.3c-0.66,4.25-1.23,8.51-1.68,12.79
				c-0.73,6.84-1.05,13.71-0.98,20.59c0.17,14.7,2.06,29.57,5.47,43.87c3.4,14.27,8.91,27.72,14.98,41.04
				c1.33,2.91,2.64,5.82,3.93,8.74c0.77,1.75-0.58-1.68,0.51,1.31c0.59,1.62,1.23,3.22,1.78,4.85c1.1,3.24,1.91,6.52,2.68,9.84
				c0.86,3.73,0.17-2.26,0.26,1.92c0.04,1.71,0.13,3.4,0.1,5.12c-0.15,9.42,8.39,18.43,18,18
				C624.86,539.68,632.82,532.22,632.98,522.12L632.98,522.12z"/>
		</g>
	</g>
	<g>
		<g>
			<path d="M772.18,347.34c39.73-0.09,78.97-10.83,117.48-19.52c38.4-8.67,76.74-17.61,115.01-26.84
				c21.87-5.27,43.72-10.64,65.54-16.09c-6.78-8.81-13.55-17.63-20.33-26.44c-18.16,34.61-36.53,69.41-60.16,100.67
				c-0.48,0.64-2.71,3.49-0.71,0.94c-0.68,0.86-1.36,1.73-2.05,2.59c-1.37,1.72-2.76,3.42-4.16,5.11
				c-3.16,3.79-6.41,7.51-9.76,11.14c-6.7,7.26-13.79,14.17-21.29,20.61c-1.67,1.44-3.37,2.85-5.09,4.24
				c-0.88,0.72-1.77,1.43-2.67,2.13c2.16-1.68-0.18,0.13-0.53,0.38c-4.47,3.28-8.98,6.48-13.64,9.49
				c-8.57,5.55-17.46,10.6-26.56,15.23c-5.22,2.65-10.5,5.17-15.84,7.57c-2.67,1.2-5.36,2.38-8.06,3.52
				c0.72-0.3,2.76-1.14-0.57,0.22c-1.63,0.66-3.26,1.33-4.9,1.98c-10.9,4.35-21.94,8.3-33.05,12.07c6.78,2.76,13.55,5.51,20.33,8.27
				c-9.85-20.8-19.35-41.76-28.49-62.88c-4.81-11.11-7.64-17.83-12.17-28.84c-4.44-10.79-8.78-21.62-13.04-32.48
				c-5.79,7.6-11.57,15.19-17.36,22.79c38.9,2.81,76.74-8.95,113.58-19.82c18.28-5.39,36.68-10.28,55.3-14.33
				c9.36-2.03,18.75-3.87,28.18-5.52c4.72-0.83,9.44-1.6,14.17-2.33c2.52-0.39,5.05-0.76,7.58-1.13c1.26-0.18,2.53-0.36,3.79-0.53
				c-1.62,0.21-1.32,0.18,0.91-0.12c-4.24-10.24-8.49-20.49-12.73-30.73c-23.42,29.83-47.25,59.35-71.5,88.51
				c-11.01,13.24-21.55,27.73-34.65,39.02c-0.6,0.51-1.22,1-1.81,1.51c-2.04,1.77,2.22-1.36-0.07,0.01c-1.52,0.91-2.94,2-4.48,2.9
				c-0.72,0.41-5.1,2.44-3.19,1.72c2.05-0.78-0.29,0.06-0.59,0.14c-1.15,0.31-2.4,0.55-3.51,0.95c-1.85,0.66,0.86-0.05,1.2-0.07
				c-0.98,0.04-1.95,0.15-2.93,0.15c-0.74,0-1.49-0.1-2.23-0.09c-2.58,0.06,2.74,0.88,0.44,0.01c-1.41-0.53-4.94-1.66-1.63-0.15
				c-1.69-0.77-3.21-1.77-4.83-2.66c-0.8-0.44-2.48-2.08,0.27,0.33c-0.53-0.47-1.08-0.91-1.6-1.38c-1.24-1.11-2.42-2.29-3.55-3.52
				c-0.65-0.71-1.27-1.45-1.9-2.18c-0.21-0.25-1.66-2.19-0.4-0.47c1.36,1.86-0.45-0.7-0.76-1.14c-0.56-0.81-1.1-1.63-1.63-2.46
				c-4.24-6.6-7.7-13.7-10.87-20.86c-1.49-3.36-0.64-1.56-0.35-0.82c-0.46-1.14-0.91-2.29-1.34-3.45c-0.75-2.02-1.46-4.06-2.12-6.11
				c-0.65-2.05-1.26-4.12-1.79-6.21c-0.23-0.89-0.45-1.79-0.65-2.69c-0.5-2.25-0.08-2.75-0.08-0.28c-0.99,1.68-1.98,3.36-2.96,5.03
				c-0.36,2.91-1.67,4.73-3.94,5.44c-0.32,0.14-0.65,0.27-0.97,0.41c0.62-0.19,1.25-0.36,1.89-0.5c1.96-0.41,3.9-0.92,5.84-1.42
				c4.32-1.13,8.6-2.41,12.83-3.85c17.13-5.83,32.9-14.12,48.41-23.31c6.88-4.08,13.76-8.17,20.91-11.76
				c1.7-0.86,3.42-1.66,5.14-2.48c0.18-0.09,2.64-1.18,0.82-0.39c-1.98,0.86,1.13-0.44,1.59-0.62c3.74-1.44,7.57-2.66,11.48-3.57
				c1.04-0.24,2.09-0.44,3.13-0.66c1.72-0.37,1.75-0.31-0.02-0.09c2.12-0.26,4.23-0.34,6.36-0.43c3.4-0.15,0.38,0.11-0.35-0.13
				c-1.38-0.45-2.73-1.14-3.78-2.17c0.14,0.14-2.95-3.71-2.35-4.2c-0.34,0.28,1.74,4.2,0.44,1.03c-1.39-3.38,0.47,4.77-0.04,1.42
				c-0.29-1.88,0.2-0.91-0.06,0.12c-0.25,1.01-0.46,2.01-0.74,3.01c-1.44,5.14-2.72,9.95-3.36,15.29
				c-1.43,11.99,3.48,23.2,13.42,30.06c3.78,2.61,8.4,4.09,12.77,5.42c0.6,0.18,1.21,0.35,1.82,0.54c0.8,0.25,3.92,0.51,1.35,0.31
				c-3.34-0.26,0.42-0.01,0.04,0.07c1.31,0.83,1.34,0.79,0.09-0.1c-0.98-0.6-1.74-1.44-2.25-2.51c0.94-7.27,1.88-14.54,2.81-21.81
				c-1.23,1.13-2.48,2.22-3.75,3.3c-3.06,2.6,1.46-0.74-1.67,1.2c-2.84,1.76-5.58,3.6-8.56,5.13c-1.47,0.76-2.97,1.52-4.51,2.14
				c3.26-1.32-1.39,0.35-2.08,0.54c-1.1,0.32-2.21,0.58-3.33,0.78c0.48-0.09,0.95-0.19,1.43-0.28c-2.17-0.07-2.23-0.02-0.18,0.17
				c-1.91-0.61-2.14-0.66-0.69-0.16c1.37,1.24,3.54,2.3,0.93,0.19c-0.88-0.96-0.63-0.64,0.73,0.97c-0.38-0.58-0.72-1.17-1.02-1.79
				c-0.59-1.18-0.44-0.81,0.45,1.1c-0.23-0.66-0.42-1.34-0.58-2.02c-0.3-1.34-0.29-0.9,0.03,1.34c-0.08-0.69-0.12-1.38-0.12-2.08
				c-0.03-0.82-0.01-1.64,0.05-2.46c-0.29,1.58-0.31,1.72-0.06,0.43c0.42-1.72,0.78-3.43,1.3-5.13c0.53-1.7,1.15-3.37,1.79-5.02
				c0.47-1.17,0.44-1.11-0.1,0.18c0.48-1.09,0.96-2.17,1.44-3.25c3.83-8.58,2.78-19.75-6.46-24.63c-8.19-4.33-20.1-2.52-24.63,6.46
				c-7.65,15.16-15.31,30.32-22.96,45.49c11.18,3.03,22.36,6.06,33.54,9.08c-0.09-12.6-0.18-25.21-0.27-37.81
				c-0.06-8.99-6.8-16.5-15.61-17.68c-9.26-1.24-16.67,4.35-19.75,12.89c-1.22,3.39-2.5,6.75-3.86,10.08
				c1.17-2.87-0.77,1.77-1.02,2.32c-0.86,1.92-1.74,3.82-2.65,5.71c-3.24,6.76-6.83,13.35-10.68,19.78c10.36,0,20.72,0,31.08,0
				c-1.61-3.27-3.18-6.56-4.66-9.89c-0.16-0.36-1.9-4.47-1.25-2.87c0.44,1.03,0.28,0.62-0.48-1.22c-0.34-0.85-0.67-1.69-1-2.54
				c-2.53-6.52-4.75-13.14-6.74-19.83c-2.18-7.32-9.4-13.57-17.36-13.21c-7.74,0.35-15.47,5.31-17.36,13.21
				c-3.57,14.99-7.14,29.98-10.72,44.97c10.97-1.43,21.93-2.87,32.9-4.3c-5.13-10.92-10.27-21.84-15.4-32.76
				c-3.01-6.41-11.44-9.47-17.94-8.59c-6.33,0.85-13.96,5.97-14.96,12.89c-2.98,20.55-5.21,44.79,11.35,60.64
				c14.29,13.67,38.99,17.45,53.45,1.81c6.39-6.92,7.36-18.7,0-25.46c-6.95-6.38-18.63-7.39-25.46,0c-0.83,0.9-3.72,3.1,0.12,0.16
				c-2.58,1.97,3.33-0.82,0.16-0.17c1.6-0.33,3.74-0.25,0.84-0.21c-4.02,0.06,0.73-0.1,0.71,0.23c0.02-0.31-3.39-0.48-3.48-0.98
				c2.21,0.99,2.71,1.19,1.5,0.59c-0.55-0.27-1.09-0.57-1.62-0.89c-2.74-1.25,1.18,1.67,0.15,0.28c-0.47-0.64-3.7-2.79-1.55-1.27
				c1.88,1.33-0.12-0.32-0.64-1.18c-2.23-3.67,0.32,2.3-0.74-1.81c-0.41-1.6-0.84-3.17-1.12-4.81c0.45,2.64,0.12,0.45,0.05-1.01
				c-0.15-3.11-0.04-6.22,0.21-9.31c0.13-1.71,0.33-3.4,0.52-5.1c0.45-3.98-0.35,2.36,0.27-1.94c-10.97,1.43-21.93,2.87-32.9,4.3
				c5.13,10.92,10.27,21.84,15.4,32.76c3.01,6.41,11.44,9.47,17.93,8.59c6.81-0.91,13.31-5.95,14.96-12.89
				c3.57-14.99,7.14-29.98,10.72-44.97c-11.57,0-23.14,0-34.71,0c4.6,15.46,10.62,30.5,17.76,44.96c6.15,12.46,24.53,10.94,31.08,0
				c8.82-14.72,16.01-30.35,21.84-46.49c-11.79-1.6-23.57-3.19-35.36-4.79c0.09,12.6,0.18,25.21,0.27,37.81
				c0.05,7.61,5.52,15.6,13.21,17.36c7.46,1.7,16.65-1,20.33-8.27c7.65-15.16,15.31-30.32,22.96-45.49
				c-10.36-6.06-20.72-12.11-31.08-18.17c-4.84,10.86-10.19,22.57-9.28,34.81c0.95,12.7,6.51,25.07,17.7,31.94
				c22.1,13.58,50.11-3.23,66.61-18.43c5.4-4.97,7.27-15.59,2.81-21.81c-6.47-9.04-14.68-12.47-24.96-15.61
				c-1.37-0.42-1.95-1.62-0.74-0.21c0.34,0.14,0.69,0.28,1.03,0.41c-1.34-0.83-1.4-0.79-0.19,0.11c0.29,0.23,0.57,0.47,0.86,0.7
				c-1.06-1.09-1.13-1.14-0.23-0.14c0.53,1.17,1.09,2.45,1.56,3.63c0.85,2.15,0.02,0.05,0.04-0.99c0.01-0.7,0.59-3.51,0.03-1.16
				c-0.58,2.45,0.24-0.61,0.39-1.2c0.29-1.2,0.62-2.38,0.97-3.56c2.61-8.93,4.3-18.36,1.57-27.51
				c-3.83-12.87-15.23-20.38-28.4-20.48c-19.92-0.16-39.14,8.64-56.11,18.23c-7.95,4.49-15.7,9.33-23.66,13.8
				c-3.97,2.23-7.99,4.36-12.09,6.32c-1.88,0.9-3.78,1.76-5.69,2.6c2.51-1.1-0.24,0.1-0.64,0.26c-1.66,0.65-3.32,1.31-5,1.92
				c-9.18,3.38-19.17,4.82-28.13,8.6c-14.84,6.26-16.75,21.01-13.16,35.03c4.99,19.47,14.23,39.3,26.7,55.12
				c12.88,16.35,32.03,25.39,52.9,21.25c18.74-3.72,33.64-18.53,45.53-32.54c31.04-36.58,61.24-73.89,90.86-111.62
				c4.62-5.89,6.82-12.33,3.72-19.66c-2.49-5.89-9.5-11.97-16.45-11.06c-39.26,5.13-77.88,13.06-115.9,24.19
				c-18.04,5.28-36,10.91-54.36,15c-4.55,1.01-9.12,1.93-13.71,2.72c-2.44,0.42-4.88,0.82-7.34,1.14c3.11-0.4-2.84,0.27-3.49,0.34
				c-9.56,0.93-19.14,1.09-28.71,0.39c-10.88-0.79-21.48,12.27-17.36,22.79c17.59,44.9,36.69,89.22,57.32,132.8
				c3.21,6.78,13.31,10.65,20.33,8.27c42.36-14.35,83.65-31.89,119.02-59.73c32.46-25.55,57.44-59.57,78.53-94.76
				c11.73-19.57,22.38-39.75,32.97-59.95c7.29-13.9-4.73-30.34-20.33-26.44c-75.32,18.82-150.89,36.99-226.82,53.21
				c-10.48,2.24-21,4.26-31.6,5.88c-0.3,0.05-3.51,0.47-0.99,0.15c-1.28,0.17-2.57,0.32-3.86,0.46c-2.57,0.29-5.15,0.54-7.73,0.76
				c-5.81,0.47-11.63,0.7-17.46,0.72c-9.41,0.02-18.44,8.26-18,18C754.61,339.07,762.09,347.36,772.18,347.34L772.18,347.34z"/>
		</g>
	</g>
	<g>
		<g>
			<path d="M646.95,529.59c-2.14-4.41-4.23-8.84-6.23-13.31c-0.75-1.68-1.5-3.36-2.23-5.04c-0.49-1.12-0.97-2.25-1.45-3.38
				c0.63,1.48,0.52,1.22-0.31-0.79c-3.22-7.95-6.31-15.95-9.14-24.05c-5.95-17.06-10.91-34.47-14.85-52.11
				c-1.01-4.53-1.98-9.08-2.82-13.65c-0.34-1.86-0.66-3.73-0.96-5.6c-0.33-2.22-0.37-2.5-0.12-0.84c-0.14-1.25-0.27-2.5-0.37-3.76
				c-0.36-4.41-0.28-8.73-0.13-13.14c0.23-2.22,0.23-2.49,0-0.82c0.18-1.11,0.38-2.22,0.62-3.32c0.41-1.92,0.91-3.81,1.48-5.69
				c0.57-1.87,1.23-3.71,1.93-5.54c-1.28,3.35,1.32-2.76,1.63-3.36c1.78-3.54,3.77-6.96,5.89-10.3c2.14-3.37,4.42-6.66,6.77-9.89
				c1.34-1.85,2.73-3.67,4.1-5.5c1.28-1.67,1.39-1.81,0.31-0.42c0.69-0.9,1.39-1.79,2.09-2.69c5.77-7.41,7.77-18.32,0-25.46
				c-6.45-5.92-19.28-7.94-25.46,0c-12.4,15.94-24.57,31.86-31.2,51.2c-7.05,20.58-4.02,42.19,0.36,62.97
				c8.23,39.02,21.62,76.8,39.02,112.66c4.12,8.49,16.89,11.44,24.63,6.46C649.2,548.6,651.35,538.67,646.95,529.59L646.95,529.59z"
				/>
		</g>
	</g>
	<g>
		<g>
			<path d="M745.49,330.22c3.08,1.63,6.02,3.44,8.81,5.53c-3.45-2.59,1.42,1.39,1.99,1.93c1.08,1.01,2.13,2.05,3.15,3.12
				c1.02,1.08,2.02,2.18,2.98,3.31c0.65,0.76,1.28,1.52,1.9,2.3c-1.28-1.68-1.3-1.7-0.08-0.07c2.05,2.89,4.03,5.8,5.87,8.83
				c7.74,12.67,13.73,26.38,19.96,39.82c15,32.37,29.43,64.99,43.31,97.85c3.68,8.71,17.18,11.26,24.63,6.46
				c9.06-5.84,10.4-15.31,6.46-24.63c-14.39-34.05-29.37-67.86-44.95-101.38c-13.08-28.14-27.04-58.92-55.86-74.16
				c-8.32-4.4-19.96-2.39-24.63,6.46C734.64,313.92,736.6,325.52,745.49,330.22L745.49,330.22z"/>
		</g>
	</g>
</g>
</svg>
