<?xml version="1.0" encoding="utf-8"?>
<!-- Generator: Adobe Illustrator 24.1.3, SVG Export Plug-In . SVG Version: 6.00 Build 0)  -->
<svg version="1.1" xmlns="http://www.w3.org/2000/svg" xmlns:xlink="http://www.w3.org/1999/xlink" x="0px" y="0px"
	 viewBox="0 0 1280 720" style="enable-background:new 0 0 1280 720;" xml:space="preserve">
<style type="text/css">
	.st0{fill:#FFFFFF;}
</style>
<g id="Color">
	<g>
		<g>
			<path class="st0" d="M248.07,212.01c10.59,5.49,20.79,11.67,30.5,18.61c1.08,0.77,2.15,1.55,3.22,2.33
				c0.81,0.6,3.89,2.94,1.42,1.03c2.51,1.95,4.98,3.95,7.41,6c4.46,3.75,8.79,7.66,12.98,11.71c8.38,8.1,16.2,16.79,23.36,25.98
				c-2.34-3,0.84,1.16,1.03,1.42c0.95,1.28,1.88,2.56,2.8,3.86c1.53,2.16,3.03,4.34,4.5,6.55c3.52,5.3,6.8,10.74,9.91,16.29
				c0.94-7.27,1.88-14.54,2.81-21.81c1.87-2,6.46-3.09,9.04-2.76c1.25,0.16,4.52,2.22,2.23,0.55c3.56,4.1,4.66,5.09,3.33,2.97
				c-0.63-1.13-0.56-0.87,0.21,0.76c-0.29-1.02-0.59-2.03-0.83-3.06c-1.39-5.98-2.29-12.04-3.89-17.98
				c-3.35-12.4-7.99-25.08-14.34-36.27c-3.41-6.01-8.04-11.57-13.92-15.3c-5.57-3.53-12.12-5.11-18.45-6.64
				c-4.1-0.99,2.58,1.68-1.08-0.39c-0.84-0.48-1.68-0.97-2.52-1.45c-3.71-2.12,2.07,2.28-0.99-0.71c-0.85-0.84-1.66-1.82-2.57-2.58
				c-1.72-1.45,1.86,3.15-0.32-0.37c-0.63-1.01-1.15-2.18-1.85-3.13c-1.14-1.54,0.67,2.77-0.21-0.36c-0.4-1.41-0.82-2.78-1.14-4.21
				c-8.81,6.78-17.63,13.55-26.44,20.33c12.21,6.87,24.4,13.81,36.23,21.33c5.8,3.69,11.51,7.52,17.08,11.54
				c1.28,0.92,2.55,1.86,3.81,2.81c0.63,0.47,1.26,0.95,1.88,1.42c-0.23-0.17-2.12-1.7-0.54-0.4c2.83,2.32,5.68,4.59,8.43,6.99
				c5.07,4.43,9.92,9.1,14.47,14.07c2.26,2.47,4.43,5.02,6.55,7.63c2.15,2.64-1.03-1.51,0.95,1.27c1.2,1.68,2.41,3.36,3.55,5.08
				c1.73,2.6,3.38,5.25,4.9,7.97c0.36,0.64,0.68,1.33,1.06,1.95c1.27,2.07-0.98-2.95-0.38-0.55c0.67,2.71,0.28-5.52,0.2-5.21
				c6.23-2.74,12.45-5.48,18.68-8.22c0.48,0.38,0.96,0.77,1.44,1.15c-0.13-0.07-2.23-1.97-0.47-0.26c1.59,1.54-0.16-0.26-0.45-0.69
				c-0.96-1.45-1.93-2.88-2.85-4.35c-2.16-3.42-4.19-6.92-6.08-10.5c-1.08-2.04-2.11-4.11-3.1-6.2c-0.37-0.78-0.73-1.57-1.09-2.36
				c-0.13-0.28-1.45-3.37-0.82-1.83c0.69,1.68-0.37-0.97-0.41-1.06c-0.41-1.08-0.83-2.16-1.23-3.24c-0.8-2.17-1.55-4.36-2.25-6.56
				c-2.63-8.27-4.53-16.74-5.79-25.33c-11.57,3.19-23.14,6.38-34.71,9.57c1.13,4.99,2.15,9.99,3.02,15.03
				c0.44,2.52,0.83,5.04,1.2,7.57c0.32,2.23,0.36,2.53,0.12,0.91c0.16,1.27,0.31,2.54,0.45,3.81c0.56,5.08,1,10.18,1.27,15.28
				c0.08,1.48-0.7,7.17,0.51,2.13c-1.16,4.03,0.61,2.07,5.3-5.88c11.69,1.84,15.19,1.5,10.5-1.01c1.63,1.28,1.69,1.23,0.18-0.13
				c-0.79-0.84-1.56-1.7-2.31-2.57c-1.77-1.98-3.52-3.99-5.27-5.98c-3.51-3.99-7.03-7.97-10.54-11.96
				c-7.03-7.97-14.06-15.94-21.09-23.91c-6.25-7.08-19.16-6.86-25.46,0c-7.17,7.81-6.35,17.61,0,25.46
				c12.13,14.99,24.26,29.98,36.39,44.97c11.8,14.58,23.22,29.61,35.79,43.53c6.33,7.01,19.11,6.92,25.46,0
				c6.87-7.49,6.75-17.98,0-25.46c-12.58-13.92-23.99-28.95-35.79-43.53c-12.13-14.99-24.26-29.98-36.39-44.97
				c-8.49,8.49-16.97,16.97-25.46,25.46c9.23,10.46,18.45,20.93,27.68,31.39c9.83,11.15,21.6,27.39,38.94,22.17
				c8.44-2.54,14.76-9.45,16.79-18c1.58-6.63,0.74-13.61,0.16-20.3c-1.27-14.64-3.5-29.24-6.74-43.57
				c-2.08-9.19-13.19-15.47-22.14-12.57c-10.21,3.3-14.05,12.12-12.57,22.14c2.84,19.28,9.22,37.95,18.32,55.18
				c4.35,8.23,9.42,17.88,16.55,23.99c6.31,5.41,13.87,8.03,22.17,6.42c7.9-1.53,14.36-7.99,16.61-15.6
				c3.27-11.06-2.15-21.42-7.94-30.48c-4.99-7.79-10.74-15.19-16.92-22.07c-11.81-13.16-25.8-24.31-40.25-34.42
				c-15.83-11.07-32.63-20.66-49.45-30.12c-14.13-7.95-29.8,5.13-26.44,20.33c3.19,14.42,13.45,28.09,26.8,34.65
				c3.98,1.96,8.03,3.49,12.32,4.58c1.65,0.42,3.3,0.83,4.95,1.26c0.54,0.18,1.07,0.35,1.61,0.52c-1.65-0.67-1.65-0.55,0,0.35
				c-0.47-0.33-0.94-0.66-1.41-0.99c1.35,1.49,1.36,1.37,0.04-0.36c0.9,1.16,1.65,2.46,2.38,3.73c1.63,2.86,3,5.88,4.34,8.87
				c2.39,5.34-1.09-3.06,0.98,2.41c0.64,1.7,1.29,3.39,1.89,5.11c1.2,3.43,2.29,6.9,3.26,10.4c1.86,6.72,2.63,13.71,4.51,20.4
				c2.4,8.52,7.48,16.43,15.61,20.39c9.95,4.86,22.39,3.85,30.21-4.52c5.56-5.95,6.83-14.65,2.81-21.81
				c-25.32-45.18-64.04-82.87-110.05-106.7c-8.35-4.33-19.93-2.44-24.63,6.46C237.25,195.64,239.14,207.39,248.07,212.01
				L248.07,212.01z"/>
		</g>
	</g>
	<g>
		<g>
			<path class="st0" d="M347.97,218.88c6.44,5.79,12.5,11.97,18.08,18.58c1.39,1.65,2.76,3.33,4.1,5.03
				c-1.92-2.45,0.58,0.81,1.1,1.53c2.55,3.49,4.98,7.07,7.29,10.73c4.32,6.86,8.19,14.01,11.58,21.38c0.28,0.61,2.85,6.74,1.41,3.14
				c0.81,2.01,1.6,4.02,2.34,6.05c1.49,4.06,2.82,8.18,4.03,12.33c2.64,9.03,12.79,15.6,22.14,12.57
				c9.16-2.96,15.4-12.46,12.57-22.14c-10.59-36.2-31.1-69.41-59.19-94.66c-7-6.29-18.64-7.42-25.46,0
				C341.67,200.3,340.49,212.16,347.97,218.88L347.97,218.88z"/>
		</g>
	</g>
	<g>
		<g>
			<path class="st0" d="M383.6,220.68c2.84,18.53,14.69,35.4,22.76,52.01c1.95,4.01,3.84,8.05,5.6,12.15
				c-1.22-2.83,1.33,3.35,1.55,3.92c0.74,1.93,1.45,3.87,2.13,5.82c1.44,4.17,2.73,8.39,3.79,12.68c0.57,2.28,1.08,4.58,1.52,6.89
				c0.12,0.65,1.1,7.48,0.68,3.96c1.11,9.32,7.48,18.47,18,18c8.8-0.39,19.19-7.99,18-18c-2.48-20.83-9.03-39.8-17.88-58.75
				c-7.89-16.89-18.98-32.28-21.44-48.25c-1.43-9.34-13.64-15.32-22.14-12.57C386,201.83,382.06,210.68,383.6,220.68L383.6,220.68z"
				/>
		</g>
	</g>
	<g>
		<g>
			<path class="st0" d="M413.37,221.95c7.85,30.99,15.71,61.97,23.56,92.96c2.31,9.13,13.02,15.52,22.14,12.57
				c9.44-3.05,15.05-12.36,12.57-22.14c-7.85-30.99-15.71-61.97-23.56-92.96c-2.31-9.13-13.02-15.52-22.14-12.57
				C416.51,202.86,410.89,212.16,413.37,221.95L413.37,221.95z"/>
		</g>
	</g>
	<g>
		<g>
			<path class="st0" d="M440.21,216.97c-1.88,17.98,1.46,36.1,5.34,53.61c1.8,8.12,3.75,16.21,5.32,24.38
				c0.45,2.32,0.87,4.65,1.24,6.99c0.11,0.71,0.69,5.41,0.34,2.23c0.52,4.69,0.84,9.37,0.88,14.09c0.09,9.41,8.22,18.44,18,18
				c9.68-0.43,18.09-7.91,18-18c-0.17-18.23-4.3-36.08-8.29-53.78c-1.81-8.05-3.65-16.15-4.73-24.34c0.47,3.61-0.28-3.28-0.33-3.93
				c-0.14-1.74-0.24-3.49-0.3-5.24c-0.16-4.69,0.04-9.35,0.52-14.01c0.98-9.4-8.98-18.4-18-18
				C447.62,199.45,441.27,206.91,440.21,216.97L440.21,216.97z"/>
		</g>
	</g>
	<g>
		<g>
			<path class="st0" d="M463.84,216.99c-0.18,34.09,3.98,68.27,12.19,101.36c2.27,9.14,13.06,15.51,22.14,12.57
				c9.48-3.07,15-12.35,12.57-22.14c-7.85-31.64-11.07-58.7-10.9-91.79c0.05-9.42-8.31-18.43-18-18
				C472.04,199.43,463.89,206.9,463.84,216.99L463.84,216.99z"/>
		</g>
	</g>
	<g>
		<g>
			<path class="st0" d="M488.36,219.3c-1.12,29.91-0.79,59.84,0.99,89.71c0.56,9.38,7.88,18.45,18,18c9.27-0.42,18.6-7.93,18-18
				c-1.78-29.87-2.11-59.8-0.99-89.71c0.35-9.42-8.53-18.42-18-18C496.31,201.75,488.74,209.21,488.36,219.3L488.36,219.3z"/>
		</g>
	</g>
	<g>
		<g>
			<path class="st0" d="M516.78,215.85c0.54,26.83,0.14,53.65-1.22,80.45c-0.48,9.42,8.62,18.42,18,18c10.16-0.46,17.49-7.91,18-18
				c1.36-26.8,1.76-53.63,1.22-80.45c-0.19-9.41-8.14-18.44-18-18C525.19,198.28,516.57,205.76,516.78,215.85L516.78,215.85z"/>
		</g>
	</g>
	<g>
		<g>
			<path class="st0" d="M550.18,223.89c0,26.44,0,52.87,0,79.31c0,9.42,8.28,18.44,18,18c9.75-0.44,18-7.91,18-18
				c0-26.44,0-52.87,0-79.31c0-9.42-8.28-18.44-18-18C558.43,206.33,550.18,213.8,550.18,223.89L550.18,223.89z"/>
		</g>
	</g>
	<g>
		<g>
			<path class="st0" d="M577.76,221.59c0,26.05,0,52.11,0,78.16c0,9.42,8.28,18.44,18,18c9.75-0.44,18-7.91,18-18
				c0-26.05,0-52.11,0-78.16c0-9.42-8.28-18.44-18-18C586.01,204.03,577.76,211.5,577.76,221.59L577.76,221.59z"/>
		</g>
	</g>
	<g>
		<g>
			<path class="st0" d="M600.68,219.28c0.03,15.23,0.05,30.47,0.08,45.7c0.03,15.4-1.13,31.72,3.84,46.54
				c2.99,8.91,12.54,15.68,22.14,12.57c8.86-2.87,15.78-12.58,12.57-22.14c-0.58-1.74-1.12-3.46-1.52-5.26
				c-0.05-0.22-0.77-5.66-0.5-2.42c-0.26-3.06-0.42-6.11-0.48-9.18c-0.13-7.35-0.05-14.7-0.07-22.05
				c-0.02-14.59-0.05-29.17-0.07-43.76c-0.02-9.41-8.27-18.44-18-18C608.94,201.72,600.67,209.19,600.68,219.28L600.68,219.28z"/>
		</g>
	</g>
	<g>
		<g>
			<path class="st0" d="M615.86,310.86c60.97-8.57,121.94-17.13,182.92-25.7c30.16-4.24,60.32-8.47,90.47-12.71
				c28.95-4.07,58.07-7.82,86.34-15.48c14.3-3.87,28.18-8.9,41.72-14.9c12.69-5.62,26.66-12.29,37.08-21.64
				c7.01-6.29,11.61-15.86,9.39-25.37c-2.86-12.27-14.97-19.25-27.15-16.64c-3.57,0.77-6.94,2.31-10.15,4.05
				c-1.2,0.65-2.42,1.28-3.61,1.95c-4.44,2.47,2.91-0.72-1.91,0.83c-3.23,1.03-6.42,2.03-9.75,2.74c-1.11,0.24-2.23,0.42-3.34,0.64
				c-2.15,0.33-2.25,0.37-0.29,0.11c-1.14,0.14-2.28,0.27-3.42,0.39c-13.83,1.41-27.79,1.33-41.65,2.42
				c-15.87,1.26-31.66,3.24-47.42,5.42c-14.83,2.05-29.62,4.38-44.41,6.67c-7.08,1.1-14.16,2.18-21.24,3.23
				c-3.89,0.57-7.78,1.13-11.67,1.68c-1.95,0.27-3.89,0.54-5.84,0.81c-0.65,0.09-1.3,0.18-1.95,0.27c1.54-0.21,1.19-0.16-1.06,0.14
				c-67.56,8.89-135.59,13.95-203.73,15.11c0,12,0,24,0,36c53.74-1.16,107.48-2.33,161.21-3.49c26.54-0.58,53.07-1.15,79.61-1.73
				c13.27-0.29,26.54-0.58,39.81-0.86c13.03-0.28,27.33,0.73,39.88-3.35c8.5-2.77,15.16-7.64,22.05-13.16
				c2.19-1.75,4.3-3.59,6.53-5.29c-2.67,2.04,2.03-1.42,2.06-1.44c1.45-1.03,2.91-2.04,4.39-3.03
				c11.36-7.62,23.46-14.02,35.53-20.41c6.74-3.57,10.63-13.03,8.27-20.33c-2.51-7.76-9.15-12.93-17.36-13.21
				c-56.71-2-113.08,5.25-169.15,12.81c-54.69,7.37-109.53,14.09-164.11,22.23c-15.44,2.3-28.27,9.56-36.76,22.88
				c-2.97,4.66-5.06,9.8-7.35,14.81c-1.16,2.53-2.35,5.04-3.72,7.46c-0.45,0.8-0.92,1.58-1.42,2.35c-0.49,0.77-1.01,1.52-1.55,2.25
				c1.43-1.84,1.5-2.01,0.2-0.5c-4.37,4.82-6.4,11.08-4.63,17.51c1.52,5.53,6.58,11.62,12.57,12.57c30.04,4.78,60.77,2.43,89.14-9
				c8.7-3.51,15.8-12.16,12.57-22.14c-2.72-8.41-12.79-16.34-22.14-12.57c-6.14,2.47-12.39,4.59-18.8,6.24
				c-2.91,0.75-5.84,1.41-8.79,1.98c-1.77,0.34-3.55,0.64-5.33,0.93c-0.59,0.09-1.19,0.18-1.78,0.27c1.51-0.2,1.62-0.23,0.32-0.07
				c-6.31,0.48-12.55,1.02-18.89,0.92c-3-0.04-6.01-0.18-9-0.41c-1.8-0.14-3.59-0.32-5.38-0.51c-3.89-0.42,1.87,0.32-2.35-0.36
				c2.65,10.03,5.3,20.06,7.94,30.08c7.53-8.31,11.31-17.83,16.18-27.71c1-2.03,2.06-4.04,3.29-5.95c0.48-0.75,0.98-1.49,1.51-2.21
				c-2.69,3.69,0.09,0.31,0.67-0.35c0.85-0.98,2.33-1.21-0.52,0.26c0.45-0.23,5-2.74,1.25-1.1c2.4-1.05,5.05-1.63,7.61-2.14
				c12.91-2.61,26.25-3.73,39.3-5.5c13.42-1.82,26.84-3.64,40.26-5.45c26.84-3.63,53.67-7.27,80.51-10.9
				c2.92-0.4,5.84-0.79,8.76-1.18c-3.19,0.43,3.2-0.43,3.01-0.4c1.3-0.17,2.6-0.35,3.9-0.52c7.15-0.95,14.3-1.88,21.46-2.77
				c13.34-1.66,26.69-3.19,40.07-4.47c30.29-2.89,60.72-4.44,91.15-3.36c-3.03-11.18-6.06-22.36-9.08-33.54
				c-10.5,5.56-21.02,11.13-31.06,17.5c-5.16,3.27-10.14,6.79-14.98,10.53c-2.42,1.87-4.82,3.76-7.19,5.69
				c-1.28,1.05-2.54,2.14-3.87,3.13c2.46-1.84-1.04,0.62-1.71,1.04c-0.93,0.59-1.88,1.11-2.83,1.65c-3.76,2.13,1.34,0.15-1.16,0.44
				c-1.36,0.16-2.91,0.72-4.25,1.04c2.85-0.69,0.27-0.01-0.45,0.04c-6.59,0.43-13.19,0.48-19.79,0.62
				c-12.94,0.28-25.87,0.56-38.81,0.84c-52.41,1.14-104.82,2.27-157.23,3.41c-29.85,0.65-59.71,1.29-89.56,1.94
				c-9.41,0.2-18.44,8.13-18,18c0.43,9.62,7.91,18.17,18,18c57.65-0.98,115.23-4.71,172.52-11.26c29.54-3.38,58.96-7.59,88.33-12.15
				c7.08-1.1,14.15-2.2,21.23-3.26c3.22-0.48,6.44-0.96,9.66-1.42c1.93-0.28,3.86-0.55,5.8-0.82c-0.09,0.01,5.72-0.78,2.95-0.41
				c14.17-1.89,28.4-3.45,42.67-4.42c13.07-0.89,26.22-0.8,39.24-2.38c7.21-0.88,14.44-1.92,21.36-4.23
				c3.6-1.2,7.15-2.67,10.58-4.28c1.54-0.73,3.03-1.53,4.53-2.34c0.41-0.23,0.81-0.46,1.22-0.68c1.83-0.93,1.71-0.87-0.37,0.16
				c-5.03-6.35-10.06-12.7-15.08-19.05c1.51-1.69,1.57-1.79,0.18-0.29c2.36-2.82,0.59-0.4-0.69,0.46c-2.69,1.8-5.42,3.54-8.2,5.19
				c-5.56,3.31-11.29,6.35-17.14,9.11c-1.6,0.75-3.21,1.48-4.82,2.21c-3.28,1.48-1.3,0.58-0.57,0.28c-3.26,1.37-6.56,2.64-9.88,3.85
				c-6.26,2.28-12.6,4.31-19,6.13c-26.85,7.63-54.55,11.52-82.13,15.39c-28.85,4.05-57.69,8.1-86.54,12.16
				c-64.91,9.12-129.81,18.24-194.72,27.35c-9.36,1.31-15.3,13.72-12.57,22.14C597.04,308.55,605.83,312.27,615.86,310.86
				L615.86,310.86z"/>
		</g>
	</g>
	<g>
		<g>
			<path class="st0" d="M339.04,415.85c-0.49,29.66-0.97,59.31-1.46,88.97c-0.22,13.27,15.59,22.93,27.08,15.54
				c0.25-0.16,2.27-1.72,0.54-0.58c-1.81,1.19,0.9-0.15,1.42-0.41c1.59-0.8-0.4-0.09-0.98-0.03c0.78-0.09,1.57-0.12,2.36-0.15
				c4.1-0.15,8.2,0.33,12.27,0.77c8.8,0.94,17.59,1.91,26.39,2.87c17.94,1.96,35.89,3.9,53.86,5.67
				c35.53,3.49,71.17,6.29,106.87,7.06c69.67,1.49,139.38-5.93,206.18-26.27c36.66-11.16,72.32-25.91,106.26-43.7
				c8.35-4.38,11.56-16.72,6.46-24.63c-5.48-8.5-15.69-11.14-24.63-6.46c-7.48,3.92-15.03,7.7-22.67,11.3
				c-3.55,1.67-7.11,3.31-10.69,4.91c-1.65,0.74-3.31,1.47-4.97,2.19c-0.83,0.36-1.66,0.72-2.49,1.08c-5.31,2.3,1.54-0.63-1.53,0.66
				c-15.3,6.41-30.89,12.15-46.68,17.22c-31.3,10.06-63.44,17.5-95.98,22.18c-0.9,0.13-1.79,0.25-2.69,0.38
				c2.93-0.42-0.11,0.02-0.6,0.08c-1.8,0.23-3.59,0.46-5.39,0.67c-4.82,0.58-9.65,1.1-14.48,1.56c-8.78,0.84-17.58,1.48-26.38,1.96
				c-17.93,0.97-35.89,1.24-53.85,0.97c-35.7-0.54-71.34-3.18-106.87-6.59c-20.26-1.94-40.49-4.14-60.72-6.35
				c-9.64-1.05-19.28-2.2-28.93-3.13c-10.39-1-21.26-0.09-30.26,5.69c9.03,5.18,18.06,10.36,27.08,15.54
				c0.49-29.66,0.97-59.31,1.46-88.97c0.15-9.42-8.39-18.43-18-18C347.15,398.29,339.2,405.76,339.04,415.85L339.04,415.85z"/>
		</g>
	</g>
	<g>
		<g>
			<path class="st0" d="M979.9,359.34c-8.36,12.21-16.54,24.58-25.23,36.55c-0.23,0.31-2.9,3.81-1.68,2.28
				c0.94-1.19-1.97,2.33-2.39,2.8c-2.07,2.35-4.27,4.54-6.61,6.62c-3.78,3.36,2.44-1.4-1.91,1.43c-1.48,0.96-2.95,1.92-4.47,2.82
				c-2.79,1.65-5.66,3.16-8.55,4.65c-5.87,3.03-11.76,6.02-17.69,8.92c-2.98,1.46-5.97,2.9-8.98,4.29
				c-1.64,0.76-3.29,1.51-4.94,2.24c-0.02,0.01-5.2,2.19-2.34,1.02c-12.76,5.22-25.92,9.26-39.6,11.12
				c-9.36,1.28-15.29,13.75-12.57,22.14c3.33,10.3,12.1,13.94,22.14,12.57c29.79-4.06,57.37-18.28,83.71-32.03
				c14.57-7.61,25.62-17.54,35.43-30.64c9.38-12.52,17.92-25.72,26.76-38.62c5.34-7.79,1.72-20.31-6.46-24.63
				C995.39,348.05,985.6,351.03,979.9,359.34L979.9,359.34z"/>
		</g>
	</g>
	<g>
		<g>
			<path class="st0" d="M963.76,352.16c-34.92,17.39-68.2,37.88-99.45,61.23c-7.52,5.62-12.14,15.82-6.46,24.63
				c4.8,7.44,16.56,12.49,24.63,6.46c31.25-23.35,64.52-43.84,99.45-61.23c8.45-4.21,11.48-16.83,6.46-24.63
				C982.81,349.97,972.79,347.66,963.76,352.16L963.76,352.16z"/>
		</g>
	</g>
	<g>
		<g>
			<path class="st0" d="M935.66,379.53c-5.34,1.33-10.7,2.51-16.12,3.47c-1.27,0.23-2.55,0.44-3.83,0.64
				c-0.33,0.05-3.67,0.56-2.41,0.38c1.26-0.18-2.08,0.25-2.42,0.29c-1.61,0.19-3.21,0.35-4.82,0.51c-9.34,0.92-18.46,7.62-18,18
				c0.4,8.97,7.96,18.98,18,18c13.2-1.29,26.29-3.37,39.16-6.58c9.14-2.28,15.52-13.05,12.57-22.14
				C954.74,382.64,945.46,377.09,935.66,379.53L935.66,379.53z"/>
		</g>
	</g>
	<g>
		<g>
			<path class="st0" d="M889.23,382.54c-8.24,1.99-16.56,3.64-24.93,4.97c-1.86,0.3-3.72,0.58-5.58,0.85
				c-0.38,0.05-4.22,0.57-2.27,0.32c1.72-0.22-1.34,0.16-1.34,0.16c-4.37,0.53-8.74,1.02-13.12,1.45
				c-16.94,1.66-33.93,2.6-50.92,3.67c-34.72,2.17-69.42,5.27-103.12,14.32c-16.84,4.52-33.48,9.81-50.58,13.34
				c-4.08,0.84-8.18,1.6-12.3,2.28c-1.9,0.31-3.8,0.61-5.7,0.89c-1.27,0.19-2.54,0.38-3.81,0.54c1.96-0.26-0.16,0.01-0.94,0.1
				c-8.61,1.01-17.23,1.8-25.88,2.35c-34.46,2.17-69.07,1.16-103.57,0.8c-19.89-0.21-39.77-0.41-59.66-0.62
				c-9.8-0.1-19.59-0.2-29.39-0.3c-4.9-0.05-9.8-0.1-14.69-0.15c-0.71-0.01-6.06,0.46-6.44-0.14c-0.17-0.27,3.7,0.93,1.67,0.11
				c-3.49-1.13-2.26,1.58,3.68,8.12c8.63,9.93,4.23,15.86-13.2,17.8c-2.65-1.54-5.3-3.09-7.94-4.63c0.22,0.2,0.45,0.41,0.67,0.61
				c-1.76-4.24-3.51-8.49-5.27-12.73c0.41,21.11,5.89,41.53,16.04,60.04c6.48,11.81,24.55,11.58,31.08,0
				c7.64-13.53,13.83-27.95,18.46-42.78c-11.57,0-23.14,0-34.71,0c5.85,21.84,15.84,42.68,29.65,60.61
				c4.77,6.19,12.11,10.93,20.33,8.27c8.14-2.63,12.33-9.1,13.21-17.36c0.13-1.24,0.27-2.47,0.42-3.71c0.11-0.96,0.4-2.74,0.1-0.77
				c0.37-2.46,0.76-4.92,1.2-7.37c0.93-5.21,2.05-10.38,3.35-15.51c2.52-9.96,5.75-19.72,9.56-29.26c-11.57,0-23.14,0-34.71,0
				c4.95,17.03,9.91,34.06,14.86,51.09c2.51,8.64,10.89,14.08,19.75,12.89c8.26-1.11,16.3-8.73,15.61-17.68
				c-0.33-4.31-0.51-8.62-0.43-12.94c0.04-2.47,0.16-4.93,0.35-7.39c0.09-1.23,0.21-2.46,0.33-3.69c0.24-2.02,0.29-2.45,0.13-1.28
				c-0.16,1.17-0.09,0.75,0.21-1.27c0.2-1.22,0.42-2.43,0.65-3.64c0.41-2.12,0.88-4.23,1.4-6.32c1.11-4.5,2.5-8.9,4.07-13.26
				c-11.57,0-23.14,0-34.71,0c9.73,24.34,16.86,49.59,21.3,75.42c1.6,9.3,13.52,15.36,22.14,12.57
				c10.03-3.25,14.29-12.17,12.57-22.14c-4.45-25.83-11.58-51.08-21.3-75.42c-2.87-7.19-8.89-13.59-17.36-13.21
				c-8.38,0.38-14.55,5.43-17.36,13.21c-6.79,18.85-9.56,39.4-8.01,59.37c11.79-1.6,23.57-3.19,35.36-4.79
				c-4.95-17.03-9.91-34.06-14.86-51.09c-2.13-7.32-9.44-13.57-17.36-13.21c-8.57,0.38-14.27,5.49-17.36,13.21
				c-8.5,21.29-13.45,43.42-15.9,66.19c11.18-3.03,22.36-6.06,33.54-9.08c-6.27-8.13-11.79-16.79-16.39-25.98
				c-1.02-2.04-1.98-4.1-2.93-6.18c-2.24-4.91,0.56,1.69-0.52-1.21c-0.4-1.07-0.84-2.12-1.24-3.18c-1.91-5.07-3.53-10.23-4.93-15.46
				c-4.72-17.6-29.53-16.62-34.71,0c-1,3.2-2.05,6.37-3.2,9.52c-0.52,1.43-1.06,2.85-1.62,4.27c0,0-2.19,5.18-0.99,2.45
				c-2.7,6.14-5.72,12.11-9.02,17.94c10.36,0,20.72,0,31.08,0c-1.14-2.08-2.24-4.17-3.26-6.31c-0.5-1.06-1.02-2.14-1.47-3.23
				c1.05,2.58-0.04-0.23-0.18-0.64c-1.66-4.77-3.2-9.52-4.3-14.46c-0.52-2.32-0.91-4.64-1.32-6.98c-0.51-2.94,0.1,2.48-0.04-0.5
				c-0.05-1.18-0.23-2.36-0.31-3.54c-0.2-2.88-0.19-5.74-0.58-8.6c-0.8-5.96-4.3-10.56-9.26-13.76c-14.3-9.22-31.99,4.8-31.88,20.03
				c0.12,15.53,14.9,22.59,28.38,22.95c43,1.16,86.1,0.89,129.12,1.34c43.44,0.45,86.94,0.85,129.91-6.51
				c21.05-3.6,41.32-10.06,61.92-15.55c9.84-2.62,19.77-4.86,29.81-6.57c2.48-0.42,4.96-0.82,7.44-1.19
				c1.24-0.19,2.49-0.36,3.73-0.54c-2.7,0.38,0.43-0.06,0.82-0.1c5.62-0.7,11.24-1.31,16.88-1.84c47.3-4.45,95.23-4.04,141.67-15.23
				c9.16-2.21,15.5-13.1,12.57-22.14C908.29,385.59,899.04,380.18,889.23,382.54L889.23,382.54z"/>
		</g>
	</g>
	<g>
		<g>
			<path class="st0" d="M479.04,460.69c-0.74,19.92-0.22,41.37,11.48,58.43c4.17,6.08,10.39,9.61,17.94,8.59
				c6.73-0.9,13.42-5.95,14.96-12.89c2.53-11.38,5.74-22.6,9.74-33.55c3.83-10.48,7.27-18.05,13.24-29.25
				c-11.18-3.03-22.36-6.06-33.54-9.08c0.45,28.19,1.19,57.41,11.71,83.97c3.34,8.43,10.24,14.17,19.75,12.89
				c8.44-1.13,16.05-8.69,15.61-17.68c-1.04-21.27,0.99-36.38,7.48-56.48c-11.57,0-23.14,0-34.71,0
				c5.17,15.94,10.35,31.88,15.52,47.82c2.37,7.29,9.26,13.58,17.36,13.21c7.47-0.33,15.86-5.28,17.36-13.21
				c1.45-7.7,2.99-15.42,5.63-22.82c1.54-4.32-0.87,1.17,0.73-1.92c0.91-1.75,1.76-3.5,2.79-5.18c0.51-0.83,1.05-1.64,1.61-2.44
				c-1.36,1.69-1.39,1.76-0.1,0.21c1.4-1.4,2.73-2.81,4.24-4.1c-10.24-4.24-20.49-8.49-30.73-12.73c1.8,18.62,4.22,36.29,11.57,53.6
				c2.95,6.95,13.49,10.49,20.33,8.27c8.24-2.67,12.17-9.09,13.21-17.36c-0.43,3.39,0.3-1.68,0.42-2.35
				c0.32-1.78,0.67-3.54,1.07-5.3c0.85-3.81,1.89-7.58,3.1-11.3c0.56-1.72,1.15-3.42,1.78-5.11c0.31-0.85,0.63-1.69,0.97-2.52
				c-0.55,1.24-0.58,1.29-0.07,0.14c1.56-3.58,3.34-7.06,5.23-10.49c-10.97-1.43-21.93-2.87-32.9-4.3c2.9,13.47,5.8,26.95,8.7,40.42
				c1.98,9.22,13.26,15.45,22.14,12.57c9.71-3.14,14.7-12.27,12.57-22.14c-2.9-13.47-5.8-26.95-8.7-40.42
				c-3.26-15.16-25.65-17.48-32.9-4.3c-9.53,17.32-14.94,35.57-17.4,55.1c11.18-3.03,22.36-6.06,33.54-9.08
				c1.17,2.76-0.79-2.48-0.79-2.49c-0.57-1.72-1.09-3.47-1.56-5.22c-0.87-3.23-1.56-6.5-2.14-9.79c-0.27-1.5-0.49-3.01-0.74-4.51
				c0.54,3.29-0.3-2.39-0.31-2.48c-0.42-3.64-0.77-7.28-1.12-10.93c-0.71-7.34-3.96-13.45-11.07-16.45
				c-6.98-2.95-14.04-1.11-19.66,3.72c-15.22,13.07-20.6,33.2-24.17,52.13c11.57,0,23.14,0,34.71,0
				c-5.17-15.94-10.35-31.88-15.52-47.82c-5.54-17.05-29.19-17.12-34.71,0c-6.84,21.2-9.85,43.8-8.76,66.05
				c11.79-1.6,23.57-3.19,35.36-4.79c-2.46-6.21-4.43-12.57-5.92-19.08c-0.67-2.95-1.25-5.93-1.75-8.92
				c-0.01-0.08-0.86-5.78-0.41-2.43c-0.2-1.51-0.36-3.03-0.52-4.54c-1.37-13.09-1.61-26.27-1.82-39.42
				c-0.12-7.62-5.47-15.59-13.21-17.36c-7.59-1.73-16.48,1.06-20.33,8.27c-11.98,22.48-21.09,46.53-26.61,71.4
				c10.97-1.43,21.93-2.87,32.9-4.3c-1.2-1.75-2.19-3.57-3.26-5.4c-0.88-1.88-0.91-1.88-0.08,0.01c-0.37-0.98-0.71-1.96-1.02-2.96
				c-0.47-1.5-0.87-3.03-1.21-4.56c-0.18-0.79-1.06-7.33-0.64-3.08c-0.81-8.08-0.66-16.17-0.36-24.27c0.35-9.42-8.53-18.42-18-18
				C486.98,443.14,479.41,450.6,479.04,460.69L479.04,460.69z"/>
		</g>
	</g>
	<g>
		<g>
			<path class="st0" d="M609.87,460.67c0.12,10.48,0.24,20.95,0.36,31.43c0.11,9.41,8.2,18.44,18,18c10.22-0.46,17.41-7.91,18-18
				c0.17-2.96,0.42-5.91,0.72-8.87c0.12-1.24,0.3-2.46,0.03-0.51c0.21-1.47,0.45-2.93,0.7-4.39c0.96-5.55,2.22-11.05,3.76-16.47
				c1.47-5.14,3.21-10.18,5.16-15.15c2.06-5.27-0.72,1.53,0.6-1.44c0.61-1.35,1.22-2.7,1.86-4.04c1.28-2.68,2.65-5.3,4.07-7.91
				c-11.18-3.03-22.36-6.06-33.54-9.08c0.75,31.98,4.76,63.93,11.84,95.12c1.98,8.74,11.31,14.03,19.75,12.89
				c9.48-1.27,14.59-8.63,15.61-17.68c0.18-1.56,0.35-3.12,0.55-4.68c0.04-0.32,0.48-3.73,0.28-2.28c-0.24,1.77,0.41-2.8,0.47-3.2
				c0.19-1.24,0.38-2.48,0.57-3.72c0.93-5.89,2-11.76,3.2-17.61c2.33-11.39,5.18-22.65,8.47-33.8c-11.79-1.6-23.57-3.19-35.36-4.79
				c1.77,18.38,5.04,36.51,10.37,54.2c2.2,7.31,9.38,13.57,17.36,13.21c7.35-0.33,16.04-5.28,17.36-13.21
				c1.69-10.2,4.15-20.24,7.48-30.04c0.76-2.24,1.56-4.46,2.41-6.66c0.53-1.38,1.07-2.75,1.63-4.12c-0.73,1.78-0.15,0.36,0.28-0.58
				c2.19-4.85,4.55-9.6,7.1-14.26c-11.18-3.03-22.36-6.06-33.54-9.08c1.6,18.36,3.19,36.73,4.79,55.09c0.81,9.36,7.7,18.46,18,18
				c10.43-0.47,17.15-7.92,18-18c0.09-1.2,0.2-2.41,0.33-3.61c0.24-2,0.28-2.4,0.12-1.2c-0.2,1.5,0.53-3.2,0.66-3.87
				c0.7-3.86,1.57-7.69,2.62-11.48c0.96-3.49,2.07-6.95,3.31-10.35c0.62-1.7,1.26-3.4,1.97-5.07c-1.14,2.66,1.65-3.39,1.92-3.95
				c-11.18-3.03-22.36-6.06-33.54-9.08c1.75,19.64,3.49,39.28,5.24,58.92c0.83,9.35,7.68,18.46,18,18c10.78-0.48,16.72-7.95,18-18
				c-0.45,3.51,0.41-2.1,0.44-2.26c0.22-1.17,0.46-2.33,0.72-3.49c0.72-3.19,1.59-6.34,2.6-9.45c0.46-1.41,0.95-2.82,1.46-4.21
				c0.14-0.37,1.86-4.48,1.1-2.8c-0.76,1.68,1.15-2.36,1.32-2.71c0.79-1.6,1.63-3.17,2.49-4.73c-11.18-3.03-22.36-6.06-33.54-9.08
				c0.56,6.35,1.12,12.71,1.67,19.06c0.79,9.01,6.25,16.42,15.61,17.68c9.39,1.26,16.49-4.4,19.75-12.89
				c5.23-13.63,10.45-27.26,15.68-40.9c-11.57,0-23.14,0-34.71,0c0.4,1.8,0.86,3.65,1.06,5.49c-0.36-3.18,0.05,2.62,0.05,2.64
				c0.07,1.86,0.06,3.73-0.02,5.59c-0.03,0.62-0.56,5.78-0.11,2.63c-1.3,9,1.47,17.46,10.42,21.23c8.34,3.52,17.68,0.31,22.48-7.36
				c1.49-2.38,3.04-4.7,4.7-6.97c-1.49,2.03,0.1-0.11,0.82-0.98c0.9-1.08,1.81-2.13,2.76-3.17c1.7-1.87,3.47-3.66,5.3-5.39
				c1.02-0.96,2.05-1.9,3.11-2.82c0.52-0.45,4.27-3.47,1.58-1.41c-8.81-3.59-17.63-7.17-26.44-10.76c0.26,1.23,0.5,2.46,0.73,3.7
				c0.17,0.89,0.39,2.79,0.16,0.81c0.32,2.81,0.5,5.64,0.56,8.46c0.05,2.51,0,5.03-0.15,7.54c-0.08,1.25-0.24,2.5-0.3,3.76
				c-0.18,3.31,0.69-3.99-0.25,1.75c-1.47,8.96,1.59,17.51,10.42,21.23c8.77,3.7,17.12-0.01,22.48-7.36
				c1.26-1.69,1.36-1.85,0.3-0.48c0.72-0.9,1.45-1.78,2.2-2.65c1.5-1.74,3.05-3.44,4.67-5.07c1.61-1.63,3.29-3.21,5.01-4.73
				c0.47-0.41,5.63-4.5,3.07-2.58c-8.81-3.59-17.63-7.17-26.44-10.76c0.1,0.35,1.17,5.62,0.72,1.94c0.21,1.72,0.14,3.43,0.13,5.15
				c-0.02,3.55,0.91-1.61-0.35,2.01c-0.23,0.66-1.86,5.23-0.49,2.16c-3.69,8.3-2.98,17.34,4.64,23.22
				c6.92,5.35,17.37,5.09,23.63-1.41c12.39-12.84,24.78-25.68,37.17-38.52c-9.42-1.21-18.85-2.43-28.27-3.64
				c0.16,0.3,0.31,0.61,0.47,0.91c-0.82-3.03-1.64-6.06-2.46-9.08c-0.02,0.34-0.03,0.68-0.05,1.02c0.82-3.03,1.64-6.06,2.46-9.08
				c1.41-1.39,2.81-2.79,4.22-4.18c3.03-0.82,6.06-1.64,9.08-2.46c0.93-0.08,6.33,2.55,2.04,0.44c-1.46-0.72-2.93-1.41-4.4-2.12
				c-3.22-1.55-6.45-3.11-9.67-4.66c-6.45-3.11-12.9-6.21-19.34-9.32c-3.03,11.18-6.06,22.36-9.08,33.54
				c36.37-2.87,72.88-2.84,109.25,0.08c9.41,0.75,18.41-8.82,18-18c-0.47-10.4-7.92-17.19-18-18c-36.36-2.92-72.88-2.94-109.25-0.08
				c-7.67,0.6-15.52,5.14-17.36,13.21c-1.68,7.36,0.95,16.8,8.27,20.33c11.43,5.51,22.83,11.09,34.29,16.52
				c8.02,3.8,17.1,6.41,25.33,1.12c9.83-6.33,12.57-18.11,7.28-28.35c-5.3-10.25-20.53-11.66-28.27-3.64
				c-12.39,12.84-24.78,25.68-37.17,38.52c9.42,7.27,18.85,14.54,28.27,21.81c5.61-12.6,7.43-25.54,3.62-39.01
				c-2.87-10.15-16.88-17.9-26.44-10.76c-11.01,8.23-20.06,17.31-28.17,28.43c10.97,4.62,21.93,9.25,32.9,13.87
				c2.51-15.29,2.41-29.94-0.75-45.15c-2.16-10.41-17.44-17.66-26.44-10.76c-12.43,9.53-22.84,20.31-31.18,33.66
				c10.97,4.62,21.93,9.25,32.9,13.87c1.75-12.14,1.7-23.46-0.99-35.5c-1.64-7.38-9.79-13.55-17.36-13.21
				c-8.49,0.38-14.39,5.47-17.36,13.21c-5.23,13.63-10.45,27.26-15.68,40.9c11.79,1.6,23.57,3.19,35.36,4.79
				c-0.56-6.35-1.12-12.71-1.67-19.06c-0.67-7.67-5.09-15.51-13.21-17.36c-7.66-1.74-16.39,1.09-20.33,8.27
				c-8.28,15.09-12.89,30.83-15.06,47.82c12,0,24,0,36,0c-1.75-19.64-3.49-39.28-5.24-58.92c-0.68-7.67-5.08-15.5-13.21-17.36
				c-7.38-1.68-16.77,0.96-20.33,8.27c-8.94,18.36-14.12,37.35-15.84,57.69c12,0,24,0,36,0c-1.6-18.36-3.19-36.73-4.79-55.09
				c-0.67-7.67-5.09-15.51-13.21-17.36c-7.65-1.74-16.4,1.09-20.33,8.27c-10.95,20.02-18.78,41.74-22.52,64.26
				c11.57,0,23.14,0,34.71,0c-2.34-7.76-4.35-15.6-5.94-23.54c-0.73-3.66-1.39-7.34-1.96-11.04c-0.06-0.38-0.76-5.66-0.38-2.62
				c-0.3-2.47-0.56-4.95-0.8-7.43c-0.87-9.01-6.19-16.41-15.61-17.68c-8.87-1.19-17.19,4.22-19.75,12.89
				c-7.22,24.49-11.96,49.5-14.82,74.87c11.79-1.6,23.57-3.19,35.36-4.79c-1.65-7.25-3.14-14.54-4.44-21.86
				c-0.62-3.5-1.2-7.01-1.74-10.53c-0.29-1.92-0.58-3.84-0.84-5.76c0.39,2.83-0.37-2.99-0.36-2.91c-1.8-14.77-2.82-29.62-3.17-44.49
				c-0.18-7.63-5.44-15.59-13.21-17.36c-7.63-1.74-16.42,1.08-20.33,8.27c-12.96,23.85-20.24,49.88-21.81,76.95c12,0,24,0,36,0
				c-0.12-10.48-0.24-20.95-0.36-31.43c-0.11-9.41-8.2-18.44-18-18C618.21,443.11,609.75,450.58,609.87,460.67L609.87,460.67z"/>
		</g>
	</g>
</g>
<g id="Layer_1">
	<g>
		<g>
			<path d="M1068.18,185.57c9.42,0,18.44-8.28,18-18c-0.44-9.75-7.91-18-18-18c-9.42,0-18.44,8.28-18,18
				C1050.62,177.32,1058.09,185.57,1068.18,185.57L1068.18,185.57z"/>
		</g>
	</g>
	<g>
		<g>
			<path d="M1050.61,165.12c2.17,6.56,3.99,13.21,5.39,19.97c0.67,3.23,1.22,6.47,1.73,9.73c0.13,0.81,0.36,3.53-0.03-0.27
				c0.08,0.75,0.18,1.51,0.26,2.26c0.19,1.76,0.36,3.52,0.51,5.28c0.55,6.8,0.72,13.62,0.53,20.44c-0.09,3.29-0.26,6.57-0.52,9.85
				c-0.14,1.77-0.3,3.53-0.48,5.3c-0.08,0.76-0.16,1.51-0.25,2.27c-0.06,0.49-0.63,4.71-0.26,2.14c0.31-2.12-0.35,2.2-0.47,2.89
				c-0.29,1.76-0.59,3.52-0.92,5.27c-0.66,3.51-1.41,7.01-2.24,10.49c-1.61,6.74-3.53,13.42-5.73,19.99
				c-1.06,3.18-2.19,6.34-3.39,9.48c-0.55,1.45-1.12,2.9-1.7,4.34c-0.39,0.96-0.78,1.92-1.18,2.88c0.65-1.58,0.68-1.57-0.02-0.01
				c-2.86,6.42-5.89,12.74-9.22,18.93c-6.66,12.41-14.29,24.29-22.76,35.54c-0.3,0.4-2.31,3-0.97,1.28
				c1.24-1.58-0.37,0.46-0.52,0.64c-0.98,1.22-1.95,2.44-2.94,3.64c-2.3,2.81-4.67,5.57-7.08,8.29c-4.92,5.54-10.07,10.86-15.4,16
				c-5.41,5.22-11,10.26-16.75,15.12c-2.76,2.33-5.55,4.63-8.38,6.88c-0.7,0.56-3.87,3.04-1.61,1.29c-1.76,1.36-3.54,2.69-5.32,4.01
				c-12.07,8.94-24.65,17.2-37.58,24.85c-13,7.7-26.36,14.8-39.94,21.43c-6.82,3.33-13.7,6.54-20.62,9.65
				c-3.34,1.5-6.69,2.97-10.05,4.43c-1.81,0.78-3.62,1.56-5.44,2.33c-1.91,0.82,0.09-0.04,0.41-0.17c-1.04,0.43-2.08,0.87-3.12,1.3
				c-29.54,12.25-59.65,23.36-90.03,33.34c-16.3,5.35-32.76,10.22-49.48,14.11c-8.34,1.94-16.75,3.64-25.2,5.03
				c-2.21,0.36-4.43,0.7-6.65,1.03c-2.12,0.31-0.45,0.08-0.02,0.02c-0.96,0.13-1.93,0.25-2.89,0.37c-4.81,0.59-9.64,1.09-14.47,1.5
				c-34.75,2.95-69.76,1.54-104.49-1.13c-17.15-1.32-34.27-3.04-51.34-5.17c-2.21-0.28-4.42-0.56-6.64-0.85
				c-2.13-0.28-0.37-0.04,0.05,0.01c-0.95-0.13-1.89-0.26-2.84-0.39c-4.42-0.61-8.83-1.25-13.24-1.91
				c-8.5-1.28-16.99-2.66-25.47-4.15c-34.2-5.98-68.12-13.6-101.59-22.82c-8.29-2.28-16.55-4.67-24.79-7.15
				c-9.02-2.71-20.02,3.24-22.14,12.57c-2.21,9.7,2.92,19.24,12.57,22.14c69,20.72,139.94,34.52,211.62,41.62
				c35.8,3.54,71.96,5.85,107.94,4.46c36.6-1.41,72.57-7.7,107.68-18.05c32.27-9.51,64.02-21.18,95.3-33.54
				c30.18-11.93,60.01-24.99,88.47-40.63c54.75-30.08,104.9-70.32,138.15-123.87c31.79-51.21,47.82-113.36,35.75-173.14
				c-1.42-7.02-3.3-13.92-5.55-20.72c-2.95-8.92-12.56-15.67-22.14-12.57C1054.29,145.86,1047.44,155.55,1050.61,165.12
				L1050.61,165.12z"/>
		</g>
	</g>
	<g>
		<g>
			<path d="M166.04,172.74c114.17,33.86,233.12,49.96,351.98,53.71c118.43,3.74,236.96-4.61,354.49-18.77
				c67.03-8.08,133.82-17.99,200.45-28.83c9.32-1.52,15.34-13.58,12.57-22.14c-3.27-10.1-12.15-14.2-22.14-12.57
				c-116.93,19.03-229.37,34.66-348.56,42.45c-116.74,7.63-233.83,6.4-349.97-8.33c-3.5-0.44,4.25,0.59-1.67-0.22
				c-2.46-0.34-4.91-0.68-7.37-1.03c-4.3-0.61-8.59-1.24-12.88-1.89c-7.97-1.21-15.93-2.49-23.87-3.84
				c-15.9-2.71-31.75-5.71-47.54-9.02c-32.29-6.76-64.3-14.83-95.93-24.21c-9.02-2.68-20.01,3.22-22.14,12.57
				C151.26,160.27,156.37,169.88,166.04,172.74L166.04,172.74z"/>
		</g>
	</g>
	<g>
		<g>
			<path d="M338.45,336.57c97.11,7.36,194.72,3.08,291.34-8.42c98.16-11.69,195.31-30.32,291.79-51.65
				c53.55-11.84,106.92-24.48,160.28-37.15c9.17-2.18,15.49-13.12,12.57-22.14c-3.09-9.55-12.32-14.9-22.14-12.57
				c-94.69,22.49-189.45,44.88-285.11,62.87c-24.04,4.52-48.14,8.76-72.29,12.64c-11.9,1.91-23.81,3.74-35.73,5.47
				c-5.8,0.84-11.59,1.66-17.4,2.46c-1.29,0.18-2.58,0.35-3.87,0.53c2.7-0.37-1.37,0.18-1.98,0.26c-3.55,0.47-7.09,0.93-10.64,1.38
				c-47.63,6.05-95.48,10.43-143.45,12.56c-54.45,2.42-109.02,1.89-163.38-2.23c-9.41-0.71-18.41,8.79-18,18
				C320.91,328.93,328.37,335.8,338.45,336.57L338.45,336.57z"/>
		</g>
	</g>
	<g>
		<g>
			<path d="M161.74,170.93c10.64,5.42,21.01,11.36,31.03,17.84c5.01,3.24,9.94,6.62,14.77,10.12c2.2,1.59,4.37,3.22,6.54,4.85
				c4.29,3.23-2.68-2.2,1.5,1.17c1.27,1.02,2.55,2.03,3.81,3.06c18.52,15.07,35.48,32.05,50.52,50.6c1.02,1.26,2.03,2.54,3.05,3.82
				c3.35,4.2-2.04-2.8,1.16,1.51c1.62,2.18,3.25,4.35,4.83,6.55c3.58,4.98,7.03,10.05,10.32,15.22c3.52,5.53,6.86,11.19,9.87,17.02
				c1.37,2.65,2.63,5.33,3.88,8.04c2.4,5.21-1.05-3.1,0.94,2.28c0.62,1.68,1.26,3.34,1.83,5.03c2.25,6.6,3.92,13.39,5.25,20.23
				c1.48,7.64,2,11.78,2.72,17.83c1.7,14.31,3.01,28.66,3.98,43.04c2.2,32.73,2.47,65.56,0.94,98.33c-0.44,9.42,8.59,18.42,18,18
				c10.13-0.45,17.53-7.91,18-18c1.41-30.14,1.29-60.34-0.45-90.47c-0.87-15.06-2.14-30.1-3.8-45.09
				c-1.69-15.16-3.45-30.48-7.44-45.24c-7.19-26.61-22.21-50.48-38.77-72.22c-15.6-20.48-32.94-39.42-52.5-56.18
				c-21.99-18.85-46.01-35.26-71.81-48.41c-8.38-4.27-19.91-2.47-24.63,6.46C150.94,154.52,152.78,166.37,161.74,170.93
				L161.74,170.93z"/>
		</g>
	</g>
	<g>
		<g>
			<path d="M1047.21,302.48c-16.69,3.55-32.39,10.33-47.92,17.22c-3.33,1.48-6.66,2.97-10,4.45c-1.94,0.86-3.89,1.71-5.84,2.56
				c-0.84,0.36-1.68,0.72-2.52,1.08c-2.82,1.2,2.08-0.86-0.75,0.31c-7.3,3.01-14.64,5.9-22.04,8.65
				c-30.11,11.15-61.06,19.98-92.37,27.08c-31.18,7.07-62.71,12.38-94.37,16.74c2.75-0.38-1.69,0.22-2.48,0.33
				c-1.82,0.24-3.64,0.47-5.45,0.71c-4.24,0.54-8.49,1.07-12.74,1.57c-7.89,0.94-15.79,1.83-23.7,2.68
				c-16.12,1.72-32.26,3.26-48.4,4.7c-37.53,3.34-75.1,6.26-112.65,9.31c-9.36,0.76-18.46,7.73-18,18c0.41,9.1,7.95,18.82,18,18
				c65.88-5.35,131.91-9.9,197.5-18.26c64.85-8.27,129.49-20.09,191.4-41.54c18.11-6.27,35.89-13.42,53.41-21.19
				c3.89-1.72,7.77-3.47,11.67-5.18c1.11-0.49,2.23-0.97,3.34-1.46c0.8-0.35,2.51-1.08,0.73-0.33c1.96-0.82,3.93-1.62,5.9-2.4
				c8.74-3.44,17.65-6.34,26.84-8.29c9.22-1.96,15.44-13.27,12.57-22.14C1066.21,305.32,1057.09,300.38,1047.21,302.48
				L1047.21,302.48z"/>
		</g>
	</g>
	<g>
		<g>
			<path d="M564.73,401.21c-35.62,0.74-71.27-0.09-106.81-2.59c-17.61-1.24-35.19-2.87-52.72-4.9c-4.22-0.49-8.44-1-12.65-1.54
				c-1.3-0.16-2.59-0.33-3.89-0.5c-2.24-0.3-2.59-0.34-1.05-0.13c-1.94-0.26-3.89-0.53-5.83-0.81c-9.06-1.28-18.11-2.67-27.14-4.15
				c-9.25-1.52-19.83,2.41-22.14,12.57c-1.98,8.67,2.64,20.51,12.57,22.14c72.59,11.91,146.1,17.44,219.66,15.9
				c9.41-0.2,18.44-8.14,18-18C582.3,409.63,574.81,401,564.73,401.21L564.73,401.21z"/>
		</g>
	</g>
	<g>
		<g>
			<path d="M1022.47,246.88c0.8,21.63,0.3,43.27-1.5,64.84c11.79-1.6,23.57-3.19,35.36-4.79c-6.82-18.54-13.65-37.08-20.47-55.61
				c-3.12-8.49-10.41-14.15-19.75-12.89c-9.3,1.25-14.84,8.63-15.61,17.68c-0.1,1.17-0.2,2.34-0.32,3.51
				c0.01-0.12-0.61,4.83-0.32,2.85c0.26-1.79-0.28,1.65-0.33,1.96c-0.19,1.16-0.4,2.32-0.62,3.47c-0.99,5.19-2.24,10.34-3.75,15.4
				c-1.43,4.79-3.11,9.49-4.96,14.13c0.71-1.79,0.18-0.41-0.26,0.56c-0.48,1.07-0.97,2.14-1.47,3.2c-1.26,2.66-2.61,5.26-4,7.85
				c10.97,1.43,21.93,2.87,32.9,4.3c-6.54-16.29-13.08-32.57-19.61-48.86c-2.88-7.19-8.88-13.59-17.36-13.21
				c-7.4,0.33-15.96,5.28-17.36,13.21c-3.99,22.64-7,45.46-8.98,68.37c10.24-4.24,20.49-8.49,30.73-12.73
				c2.46,3.17-0.17-0.85-0.46-1.34c-1.62-2.81,0.13,1.4-0.17-0.49c-0.19-1.18-0.66-2.42-0.96-3.59c-1.08-4.31-0.12,3.3-0.11-1.18
				c0.01-1.27-0.06-2.53-0.01-3.8c0.07-1.84,0.31-3.07-0.12-0.53c0.46-2.76,1.12-5.47,2.03-8.12c0.22-0.63,1.69-3.9,0.37-1.13
				c0.61-1.27,1.22-2.54,1.89-3.79c1.47-2.75,3.11-5.4,4.86-7.98c0.8-1.18,1.63-2.34,2.47-3.49c0.62-0.84,2.35-3.1,0.81-1.13
				c2.11-2.7,4.3-5.33,6.48-7.97c-10.24-4.24-20.49-8.49-30.73-12.73c0.02,4.63-0.16,9.24-0.62,13.85c-0.09,0.92-0.19,1.84-0.3,2.76
				c0.23-1.73,0.17-1.5-0.16,0.7c-0.47,2.42-0.89,4.85-1.44,7.25c-0.97,4.2-2.15,8.36-3.54,12.44c-0.09,0.25-2.06,5.1-1.91,5.21
				c0.26-1.29,0.89-2.36,1.89-3.22c15.96,3.74,21.35,3.22,16.19-1.57c1.27,1.7,1.37,1.72,0.27,0.07c-0.48-0.82-0.96-1.64-1.44-2.46
				c-1.12-1.92-2.22-3.84-3.32-5.77c-2.2-3.86-4.35-7.73-6.48-11.63c-4.55-8.35-8.92-16.79-13.14-25.31
				c-6.87-13.86-29.43-10.28-32.9,4.3c-6.67,28.06-11.49,56.47-14.86,85.11c11.18-3.03,22.36-6.06,33.54-9.08
				c-0.28-0.57-2.9-6.69-1.76-3.76c-0.85-2.19-1.65-4.4-2.36-6.65c-1.33-4.2-2.39-8.49-3.18-12.83c-0.16-0.87-0.31-1.74-0.45-2.61
				c0.22,1.88,0.21,1.72-0.04-0.46c-0.21-2.34-0.41-4.68-0.5-7.03c-0.18-4.71,0.01-9.4,0.43-14.09c-11.79,1.6-23.57,3.19-35.36,4.79
				c7.89,19.59,18.38,37.11,32.24,53.09c10.01,11.53,31.72,2.51,30.73-12.73c-1.2-18.48-4.5-36.77-10.41-54.33
				c-5.62-16.7-29.4-17.48-34.71,0c-6.83,22.44-13.91,44.81-21.24,67.09c10.97-1.43,21.93-2.87,32.9-4.3
				c-2.46-3.78-4.57-7.69-6.55-11.74c-0.86-1.93-0.92-2.05-0.17-0.34c-0.41-1.04-0.8-2.09-1.18-3.15c-0.75-2.12-1.41-4.26-2-6.42
				c-0.59-2.16-1.09-4.35-1.52-6.55c-0.21-1.1-0.4-2.21-0.57-3.31c0.26,2.01,0.26,1.94,0.02-0.22c-0.3-4.5-0.48-8.93-0.27-13.44
				c0.45-9.42-8.6-18.42-18-18c-10.83,0.48-16.65,7.96-18,18c0.38-2.81-0.6,3.98-0.69,4.62c-0.29,1.88-0.58,3.75-0.89,5.63
				c-0.77,4.69-1.61,9.36-2.51,14.02c-1.75,9.01-3.77,17.97-6,26.87c7.38-4.19,14.76-8.38,22.14-12.57
				c-3.58-0.64,3.86,2.66,4.11,2.88c0.66,0.62,1.93,3.14,0.87,0.99c0.88,1.78,0.9,2.86,0.4,0.34c-0.12-0.6-0.48-3.38-0.22-0.65
				c0.28,2.95,0.04-0.53,0.01-0.96c-0.09-1.28-0.16-2.56-0.24-3.84c-0.18-2.88-0.36-5.75-0.54-8.63
				c-0.67-10.87-1.35-21.73-2.02-32.6c-0.56-9.01-6.42-16.44-15.61-17.68c-8.57-1.15-17.6,4.14-19.75,12.89
				c-5.56,22.59-9.18,45.63-11.09,68.81c11.79-1.6,23.57-3.19,35.36-4.79c-6.48-17.75-11.2-36.03-14.12-54.7
				c-1.16-7.41-10.15-13.54-17.36-13.21c-7.92,0.35-15.22,5.33-17.36,13.21c-6.52,24.08-14.34,47.76-23.44,70.99
				c10.97-1.43,21.93-2.87,32.9-4.3c-0.64-1.38-1.27-2.77-1.88-4.16c-0.35-0.8-1.61-3.82-0.69-1.58c-1.15-2.82-2.26-5.65-3.3-8.51
				c-2.09-5.72-3.97-11.51-5.63-17.37c-1.58-5.56-2.95-11.18-4.13-16.85c-0.62-2.98-1.18-5.97-1.69-8.97
				c-0.25-1.5-0.48-3.01-0.72-4.51c-0.61-3.83,0.19,1.76-0.33-2.45c-11.18,3.03-22.36,6.06-33.54,9.08
				c4.4,7.78,8.79,15.57,13.19,23.35c5.55,9.83,20.42,12.08,28.27,3.64c9.52-10.23,13.04-23.53,9.83-37.15
				c-2.17-9.17-13.13-15.49-22.14-12.57c-9.56,3.09-14.89,12.32-12.57,22.14c0.81,3.44,0.04-1.74,0.05,0.46
				c0,2.63,1.05-4.06-0.04,0.47c-0.63,2.63-0.56,0.2,0.18-0.05c-0.96,1.49-1.04,1.73-0.23,0.72c0.85-0.97,0.68-0.8-0.52,0.51
				c9.42,1.21,18.85,2.43,28.27,3.64c-4.4-7.78-8.79-15.57-13.19-23.35c-3.76-6.66-12.88-10.68-20.33-8.27
				c-6.91,2.24-14.19,9.4-13.21,17.36c3.53,28.87,11.13,56.12,23.28,82.57c2.95,6.43,11.5,9.46,17.93,8.59
				c7.56-1.02,12.27-6.03,14.96-12.89c9.1-23.22,16.92-46.91,23.44-70.99c-11.57,0-23.14,0-34.71,0
				c2.92,18.67,7.64,36.95,14.12,54.7c3.1,8.5,10.43,14.15,19.75,12.89c9.28-1.25,14.86-8.63,15.61-17.68
				c0.42-5.08,0.91-10.15,1.51-15.21c0.15-1.26,0.31-2.53,0.47-3.79c-0.25,1.97,0.01-0.08,0.13-0.89c0.41-2.84,0.85-5.67,1.31-8.49
				c1.72-10.37,3.87-20.65,6.38-30.86c-11.79-1.6-23.57-3.19-35.36-4.79c0.87,14.06,1.74,28.13,2.62,42.19
				c0.87,14.11,4.72,31.99,21.45,34.98c9.4,1.68,19.6-2.44,22.14-12.57c5.03-20.03,8.63-40.25,11.38-60.71c-12,0-24,0-36,0
				c-1.05,22.16,5.06,44.74,17.15,63.35c8.6,13.24,27.99,10.63,32.9-4.3c7.33-22.28,14.42-44.64,21.24-67.09
				c-11.57,0-23.14,0-34.71,0c2.59,7.71,4.76,15.55,6.37,23.52c0.74,3.67,1.41,7.37,1.9,11.09c-0.41-3.13,0.19,2.07,0.25,2.66
				c0.25,2.49,0.44,4.98,0.6,7.48c10.24-4.24,20.49-8.49,30.73-12.73c-1.5-1.73-2.96-3.48-4.41-5.26c-2.57-3.15,0.77,1.24-1.36-1.8
				c-2.46-3.52-4.91-7.02-7.16-10.69c-2.09-3.42-4.05-6.91-5.86-10.48c-0.91-1.78-1.79-3.58-2.63-5.4
				c-0.48-1.04-0.95-2.08-1.41-3.13c0.7,1.67,0.64,1.52-0.16-0.45c-3.39-8.41-10.2-14.18-19.75-12.89
				c-9.34,1.26-14.78,8.63-15.61,17.68c-2.07,22.69,2.86,45.2,12.77,65.6c3.32,6.83,13.22,10.57,20.33,8.27
				c8.19-2.65,12.24-9.1,13.21-17.36c0.88-7.48,1.12-9.44,2.15-16.41c0.99-6.73,2.09-13.44,3.28-20.14
				c2.33-13.07,5.06-26.07,8.13-38.99c-10.97,1.43-21.93,2.87-32.9,4.3c5.49,11.07,11.24,22.02,17.28,32.8
				c6.78,12.1,14.53,28.44,30.92,28.03c17.63-0.45,23.75-17.48,27.72-31.82c3.54-12.78,5.22-26.25,5.17-39.51
				c-0.03-7.21-4.5-13.68-11.06-16.45c-6.12-2.58-15.12-1.78-19.66,3.72c-11.04,13.37-22.34,27.22-27.03,44.28
				c-5.03,18.29-1.61,36.26,9.94,51.16c4.33,5.58,13.8,6.19,19.66,3.72c6.96-2.94,10.43-9.1,11.06-16.45
				c0.89-10.33,2-20.64,3.32-30.92c0.29-2.24,0.34-2.57,0.13-0.99c0.18-1.28,0.36-2.57,0.54-3.85c0.37-2.57,0.75-5.13,1.15-7.69
				c0.79-5.12,1.65-10.23,2.55-15.34c-11.57,0-23.14,0-34.71,0c6.54,16.29,13.08,32.57,19.61,48.86
				c2.75,6.85,7.24,11.86,14.96,12.89c6.87,0.92,14.52-2.25,17.93-8.59c11.96-22.19,18.81-46.04,20.95-71.11
				c-11.79,1.6-23.57,3.19-35.36,4.79c6.82,18.54,13.64,37.08,20.47,55.61c3.12,8.49,10.41,14.15,19.75,12.89
				c9.29-1.25,14.85-8.63,15.61-17.68c1.8-21.57,2.3-43.21,1.5-64.84c-0.35-9.4-8.03-18.45-18-18
				C1031.02,229.31,1022.1,236.81,1022.47,246.88L1022.47,246.88z"/>
		</g>
	</g>
	<g>
		<g>
			<path d="M760.73,302.06c-1.2,26.67-0.35,53.36,2.56,79.9c0.81,7.36,3.88,13.42,11.07,16.45c6.22,2.62,14.99,1.71,19.66-3.72
				c16.37-19.02,25.67-43.25,24.43-68.52c-12,0-24,0-36,0c0.93,11.9,2.42,23.9,2.75,35.84c0.07,2.41-0.17,2.16,0.38-0.03
				c-0.1,0.43-0.19,0.86-0.29,1.28c0.57-2.18,1.99-3.7,4.26-4.54c1.54-2.24,3.55-3.1,6.03-2.57c2.84,0.24,3.48,0.17,1.91-0.21
				c-2.27-0.32,2.81,0.53-0.39-0.37c-0.4-0.26-0.79-0.52-1.19-0.78c1.57,1.28,1.86,1.49,0.87,0.65c-0.64-0.67-1.38-1.26-2.03-1.94
				c-1.32-1.37-1.75-2.06-0.35-0.13c-0.69-0.96-1.35-1.95-1.97-2.96c-1.13-1.85-2.08-3.78-3-5.75c0.65,1.4,0.8,2.09,0.19,0.24
				c-0.38-1.16-0.79-2.3-1.15-3.47c-1.45-4.79-2.38-9.71-3.17-14.65c-1.76-10.95-3-21.96-7.24-32.3
				c-3.44-8.4-10.16-14.18-19.75-12.89c-8.86,1.19-15.46,8.65-15.61,17.68c-0.24,14.82-0.88,29.63-2,44.41
				c-0.54,7.22-1.19,14.44-1.95,21.65c-0.38,3.6-0.78,7.2-1.21,10.8c-0.24,1.96-0.48,3.92-0.73,5.88c-0.44,3.51,0.12-0.76-0.4,3.05
				c8.81-3.59,17.63-7.17,26.44-10.76c-1.36-0.58-3.66-2.53-0.95,0.08c-1.01-0.97-2.6-3.58-0.76-0.39c-0.7-1.21-1.49-2.35-2.14-3.6
				c-0.24-0.47-1.77-4.13-0.85-1.72c0.9,2.37-0.73-2.15-0.91-2.66c-0.52-1.47-1.03-2.94-1.52-4.42c-1.19-3.55-2.33-7.11-3.41-10.7
				c-4.14-13.74-7.38-27.73-9.82-41.87c-1.52-8.8-11.67-13.98-19.75-12.89c-8.16,1.1-16.44,8.74-15.61,17.68
				c1.11,11.93,2.22,23.87,3.33,35.8c0.55,5.97,1.11,11.93,1.66,17.9c0.27,2.93,0.62,5.86,0.81,8.79c0.1,1.49-0.49,4.58,0.75,0.35
				c1.13-3.88,6.31-7.78,10.37-8.01c-2.43,0.14,0.31-0.04,1.24,0.18c1.38,0.33,2.49,1.13,3.6,1.96c0.98,1.47,1.13,1.67,0.44,0.58
				c-0.29-0.44-0.55-0.89-0.77-1.36c-1.4-1.89,0.61,2.2-0.07-0.08c-1.57-5.26-3.48-10.42-5.04-15.68
				c-3.3-11.12-6.06-22.37-8.37-33.73c-1.5-7.39-9.9-13.55-17.36-13.21c-7.26,0.33-16.17,5.28-17.36,13.21
				c-1.72,11.46-3.44,22.91-5.15,34.37c-0.88,5.89-1.77,11.78-2.65,17.68c-0.37,2.5-0.64,5.04-1.2,7.51
				c-0.11,0.48-0.31,2.29-0.71,2.57c0.25-0.65,0.51-1.3,0.76-1.95c1.12-2.06,2.94-3.22,5.47-3.48c2.25-1.95,4.61-2.28,7.1-0.99
				c1.52-0.03,2.78,0.46,3.78,1.46c0.99,0.85,1.12,0.93,0.4,0.23c-0.66-0.7-0.61-0.6,0.15,0.31c1.67,2.08-0.45-1.17-0.76-1.6
				c0.7,0.94,0.89,2.77,0.32,0.61c-1.45-5.45-2.91-10.77-3.86-16.34c-0.16-0.95-0.35-2.74-0.13-0.76c-0.17-1.55-0.32-3.09-0.44-4.65
				c-0.19-2.48-0.3-4.97-0.34-7.46c-0.04-2.8,0.01-5.6,0.17-8.4c0.08-1.55,0.21-3.1,0.35-4.65c0.05-0.5,0.55-4.52,0.15-1.7
				c-11.79-1.6-23.57-3.19-35.36-4.79c0.41,3.69,1.46-3.16,0.24,0.2c0.46-1.27,1.44-2.58,0.13-0.85c-2.76,3.64,2.54-2.91-0.46,0.76
				c-0.74,0.91-1.49,1.82-2.22,2.74c-4.83,6.06-8.42,12.01-10.42,19.61c-3.31,12.62-5.36,25.69-7.98,38.48
				c10.97-1.43,21.93-2.87,32.9-4.3c-1.54-2.17-2.99-4.39-4.29-6.71c-0.65-1.16-1.26-2.34-1.84-3.53c-0.63-1.29-1.38-3.21-0.44-0.8
				c-1.95-5.01-3.16-10.1-4.2-15.35c0.34,1.7,0.18,1.85,0.04,0.04c-0.13-1.59-0.25-3.18-0.3-4.78c-0.07-2.39-0.02-4.79,0.14-7.17
				c0.11-1.63,0.32-3.39-0.05-0.76c0.19-1.31,0.43-2.62,0.69-3.92c0.59-2.87,1.38-5.67,2.3-8.46c5.59-16.95-18.11-30.63-30.08-17.51
				c-10.41,11.4-17.08,25.19-20.95,40.08c-1.67,6.42-2.83,12.97-3.82,19.53c-0.63,4.21-1.19,8.44-1.76,12.66
				c-0.27,2-0.81,4.43-0.18,1.04c-0.55,1.87-0.33,1.57,0.65-0.89c2.52-3.38,6.08-5.33,10.7-5.86c3.03,0.82,6.06,1.64,9.08,2.46
				c0.23,0.1,6.32,10.55,5.07,6.21c0.58,1.99,0.32,2.93,0.32,0.29c0-2.65-0.19-5.32-0.29-7.97c-0.2-5.65-0.41-11.29-0.61-16.94
				c-0.4-10.96-0.79-21.92-1.19-32.88c-0.34-9.42-7.97-18.41-18-18c-7.94,0.32-15.94,1.48-22.86,5.66
				c-9.45,5.72-13.9,16.15-13.3,26.92c0.97,17.47,2.56,34.92,3.84,52.37c0.69,9.37,7.79,18.46,18,18c9.16-0.41,18.74-7.94,18-18
				c-0.99-13.56-1.99-27.12-2.98-40.69c-0.24-3.31-0.49-6.62-0.73-9.92c-0.04-0.57,0.05-3.82-0.22-4.07
				c0.71,0.68-1.55,3.87-1.93,4.32c-0.68,0.79-3.97,2.66-1.45,1.53c-1.97,0.88-2.46,0.83-0.12,0.27c2.67-0.64,1.41-1-0.18-0.15
				c0.92-0.49,2.95-0.21,3.94-0.25c-6-6-12-12-18-18c0.6,16.61,1.2,33.22,1.8,49.82c0.34,9.33-0.19,18.92,5.82,26.7
				c7.76,10.05,23.45,11.26,32.32,1.84c3.14-3.34,5.5-7.64,6.75-12.04c0.65-2.3,0.82-4.73,1.13-7.08c0.18-1.34,0.65-4.72,0.2-1.48
				c0.96-6.85,1.96-13.69,3.43-20.44c1.34-6.12,3.02-12.21,5.41-18.01c-1.5,3.64,0.35-0.54,0.74-1.31c0.7-1.37,1.44-2.72,2.23-4.03
				c0.93-1.54,1.96-3,2.97-4.49c0.75-1.03,0.6-0.83-0.44,0.59c0.67-0.8,1.36-1.58,2.07-2.34c-10.03-5.84-20.06-11.68-30.08-17.51
				c-8.62,26.13-4.33,56.69,11.6,79.19c4.27,6.04,10.3,9.62,17.94,8.59c6.64-0.89,13.54-5.95,14.96-12.89
				c2.75-13.37,5.31-26.8,8.43-40.09c0.7-2.97-0.62,0.3,0.35-1.09c0.66-0.95,1.3-2.01,1.9-3c-2.15,3.54,0.13-0.07,0.68-0.75
				c1.54-1.91,3.11-3.85,4.54-5.83c4-5.55,6.87-12.8,6.09-19.74c-1.01-9-6.08-16.4-15.61-17.68c-7.92-1.06-18.49,4.02-19.75,12.89
				c-2.42,17.03-2.4,33.49,0.91,50.44c2.99,15.33,9.64,34.46,27.59,36.87c9.92,1.33,19.96-3.26,24.95-12.16
				c3.78-6.73,4.39-14.17,5.51-21.64c2.36-15.71,4.71-31.43,7.07-47.14c-11.57,0-23.14,0-34.71,0c2.94,14.43,6.62,28.7,11.15,42.71
				c2.59,8.01,5.3,15.85,10.88,22.3c5.5,6.36,14.41,10.18,22.81,9.43c10.88-0.98,19.99-7.66,22.88-18.45
				c2.11-7.85,0.21-16.6-0.52-24.53c-1.48-15.91-2.96-31.82-4.44-47.73c-11.79,1.6-23.57,3.19-35.36,4.79
				c2.76,15.99,6.55,31.78,11.48,47.23c4.63,14.52,10.01,32.99,25.43,39.56c5.52,2.35,10.29,3.32,16.02,0.91
				c4.6-1.94,9.69-6.33,10.42-11.66c4.36-31.65,7.07-63.41,7.58-95.36c-11.79,1.6-23.57,3.19-35.36,4.79
				c5.33,13,5.79,27.03,8.77,40.61c2.89,13.16,8.86,27.19,19.2,36.23c6.79,5.94,14.97,10.84,24.28,10.85
				c11.15,0.01,21.16-7.56,24.2-18.31c2.1-7.42,1.19-14.85,0.59-22.4c-0.65-8.29-1.3-16.58-1.95-24.87c-0.73-9.36-7.75-18.46-18-18
				c-9.36,0.42-18.5,7.93-18,18c0.11,2.18,0.16,4.36,0.11,6.54c-0.04,1.36-0.12,2.72-0.23,4.08c-0.03,0.36-0.41,3.75-0.13,1.67
				c0.28-2.08-0.25,1.29-0.32,1.64c-0.2,1.07-0.43,2.14-0.67,3.2c-0.55,2.39-1.21,4.75-1.99,7.08c-0.34,1.04-0.72,2.06-1.09,3.08
				c-0.51,1.4-0.85,1.87-0.06,0.23c-0.94,1.97-1.87,3.93-2.93,5.84c-1.19,2.14-2.48,4.23-3.87,6.25c-0.18,0.26-2.12,2.93-1.01,1.47
				c1.23-1.62-1.76,2.05-1.69,1.98c10.24,4.24,20.49,8.49,30.73,12.73c-2.91-26.54-3.76-53.23-2.56-79.9c0.43-9.42-8.58-18.42-18-18
				C768.62,284.51,761.19,291.97,760.73,302.06L760.73,302.06z"/>
		</g>
	</g>
	<g>
		<g>
			<path d="M577.42,385.72c-2.08-0.02-1.8,0.12,0.83,0.44c-0.84-0.16-1.67-0.39-2.48-0.69c0.66,0.25,1.31,0.49,1.97,0.74
				c-1.64-1.06-1.5-0.87,0.43,0.56c-1-0.93-1.94-1.87-2.83-2.9c2.92,3.4-0.45-1.35-0.96-2.24c1.46,2.55,0.29,0.85-0.25-0.97
				c-0.4-1.34-0.69-2.69-0.94-4.06c0.59,3.31-0.09-2.55-0.12-3.28c-0.09-2.11-0.12-4.21-0.15-6.32c-0.13-8.47-0.21-17.5-2.89-25.62
				c-4.36-13.16-17.6-21.73-31.27-15.96c-17.7,7.47-23.13,27-25.41,44.31c-2.24,17.07-4.06,34.22-6.07,51.32
				c10.24-4.24,20.49-8.49,30.73-12.73c-2.76-2.16-5.32-4.54-7.5-7.3c2.46,3.12-0.15-0.49-0.62-1.25c-1.05-1.72-1.95-3.5-2.83-5.31
				c1.38,2.82,0.02,0-0.43-1.33c-0.49-1.44-0.93-2.91-1.31-4.38c-0.51-1.98-0.89-3.98-1.26-5.99c0.59,3.17,0.04,0.31-0.07-1.28
				c-0.28-3.79-0.25-7.6-0.01-11.39c0.14-2.15,0.3-4.33,0.61-6.46c-0.47,3.21,0.49-2.54,0.5-2.56c1.56-8.58,3.87-17,6.17-25.4
				c2.03-7.41-1.27-16.63-8.27-20.33c-6.67-3.53-16.56-3.4-21.81,2.81c-23.76,28.14-37.41,63.06-38.06,100
				c9.03-5.18,18.06-10.36,27.08-15.54c-0.79-0.42-1.55-0.89-2.27-1.41c1.89,1.5,2.11,1.59,0.65,0.27
				c-2.71-2.58,1.21,2.63-0.43-0.44c-0.57-1.06-2.48-6.06-1.11-1.67c-0.41-1.31-0.87-2.59-1.2-3.92c-0.22-0.89-0.42-1.8-0.58-2.7
				c-0.33-2.04-0.31-1.83,0.08,0.65c-0.51-0.93-0.2-3.05-0.21-4.17c-0.02-1.84,0.1-3.66,0.22-5.49c0.27-4.05-0.32,1.02,0.34-2.65
				c3.24-17.97,11.49-44.46-5.78-57.8c-11.4-8.81-26.81-3.74-33.85,7.9c-4.67,7.71-5.99,17.46-8.1,26.1
				c-4.42,18.09-8.84,36.17-13.26,54.26c8.81-3.59,17.63-7.17,26.44-10.76c1.61,1.3,1.96,1.5,1.03,0.6
				c-0.89-0.96-0.67-0.62,0.69,1.03c-0.4-0.75-0.87-1.67-1.38-2.35c1.96,2.69,0.3,0.82-0.23-0.9c-0.35-1.14-0.63-2.3-0.89-3.47
				c-1.29-5.74-1.87-11.65-2.67-17.47c-1.87-13.61-3.74-27.23-5.61-40.84c-1.02-7.42-10.25-13.53-17.36-13.21
				c-7.94,0.36-15.19,5.33-17.36,13.21c-6.15,22.37-12.29,44.74-18.44,67.11c11.57,0,23.14,0,34.71,0
				c-1.78-5.28-3.34-10.63-4.6-16.06c-0.7-3.01-1.31-6.05-1.83-9.1c-0.21-1.22-0.4-2.44-0.59-3.67c0.38,2.52-0.08-0.7-0.18-1.66
				c-1.24-11.41-1.22-22.88-0.1-34.29c0.68-7-5.09-13.93-11.06-16.45c-6.82-2.88-14.24-1.25-19.66,3.72
				c-6.69,6.14-10.87,14.7-12.83,23.48c-1.63,7.31-1.93,14.87-3.89,22.11c-0.23,0.86-0.5,1.71-0.77,2.57
				c-0.23,0.71-1.53,2.77-0.31,0.94c1.33-2-0.45,0.32-0.64,0.86c-0.85,1.27-0.42,0.91,1.29-1.07c2.05-2.94,5.03-3.26,8.96-0.94
				c3.69-1.41,6.3-0.92,7.84,1.48c0.67,0.94,0.73,0.98,0.2,0.13c-0.33-0.86-0.92-1.8-1.35-2.62c-1.31-2.48,0.63,2.12-0.23-0.55
				c-0.36-1.11-0.81-2.2-1.18-3.31c-0.73-2.22-1.37-4.48-1.89-6.76c-0.26-1.14-0.5-2.29-0.72-3.44c-0.06-0.33-0.55-3.75-0.34-1.94
				c0.21,1.81-0.1-1.65-0.13-1.97c-0.08-1.17-0.14-2.34-0.17-3.51c-0.07-2.64,0.03-5.26,0.2-7.89c0.63-9.41-8.73-18.42-18-18
				c-10.29,0.46-17.33,7.92-18,18c-0.88,13.16,1.02,26.91,5.82,39.21c2.56,6.56,5.32,13.5,10.76,18.26
				c8.04,7.02,19.41,8.55,28.64,2.83c11.08-6.87,14.88-20.64,16.66-32.74c0.66-4.46,1.17-8.96,2.25-13.34
				c0.31-1.26,0.73-2.48,1.09-3.73c0.84-2.95-1.34,1.38-0.07,0.24c0.63-0.57,0.81-2.34,1.62-2.68c-0.41,0.56-0.82,1.11-1.23,1.67
				c0.58-0.64,1.2-1.25,1.86-1.81c-10.24-4.24-20.49-8.49-30.73-12.73c-2.43,24.95,0.59,50.6,8.59,74.35
				c2.45,7.27,9.2,13.58,17.36,13.21c7.94-0.36,15.19-5.33,17.36-13.21c6.15-22.37,12.29-44.74,18.44-67.11
				c-11.57,0-23.14,0-34.71,0c2.14,15.56,4.28,31.12,6.41,46.68c0.83,6.01,1.55,12.05,3.67,17.77c3.25,8.75,8.02,14.92,15.52,20.47
				c9.33,6.9,23.9-0.37,26.44-10.76c3.88-15.86,7.75-31.73,11.63-47.59c1.82-7.45,4.59-15.24,5.58-22.85
				c0.59-1.86,0.44-1.7-0.47,0.47c0.21-0.41,0.42-0.82,0.63-1.22c-4.18,5.68-10.72,5.99-19.64,0.93c-0.98-1.63-1.96-3.26-2.93-4.9
				c0.46,1.97,0.46,1.59-0.01-1.16c0.03,0.62,0.06,1.24,0.09,1.87c-0.12,2.17-0.03,4.34-0.2,6.51c-0.07,0.93-0.16,1.86-0.27,2.78
				c0.19-1.39,0.19-1.44,0-0.16c-0.35,1.84-0.63,3.7-0.97,5.54c-0.74,4.01-1.54,8-2.16,12.03c-1.1,7.16-1.97,14.19-1.2,21.42
				c1.69,15.79,8.27,30.68,22.54,38.92c11.97,6.91,26.85-1.92,27.08-15.54c0.07-3.9,0.26-7.78,0.64-11.66
				c0.1-1.05,0.68-5.07,0.18-1.84c0.34-2.2,0.71-4.39,1.15-6.57c1.41-7.09,3.39-14.07,5.89-20.85c0.58-1.56,1.18-3.12,1.82-4.66
				c-1.37,3.32,0.92-1.93,1.22-2.57c1.55-3.27,3.23-6.47,5.03-9.61c1.94-3.37,4.02-6.67,6.24-9.86c0.95-1.37,1.93-2.72,2.93-4.06
				c-2.1,2.8,2-2.38,2.4-2.86c-10.03-5.84-20.06-11.68-30.08-17.51c-5.16,18.85-10.42,38.72-8.27,58.42
				c2.02,18.52,9.16,37.46,24.27,49.26c5.9,4.61,12.31,6.82,19.66,3.72c7.12-3,10.2-9.07,11.06-16.45
				c1.72-14.65,3.44-29.3,5.16-43.95c0.17-1.47,0.34-2.93,0.52-4.4c0.59-4.95-0.74,3.78,0.2-1.16c0.51-2.71,1.01-5.41,1.79-8.07
				c0.35-1.18,0.75-2.34,1.17-3.5c-1.4,3.89,0.33-0.19,0.71-0.9c2.05-3.84-2.25,2.35,0.66-0.89c0.35-0.33,0.69-0.67,1.04-1
				c-1.58,1.46-3.5,2.28-5.77,2.46c-3.03-0.82-6.06-1.64-9.08-2.46c-2.35-1.04-5.23-9.87-3.76-4.15c0.23,0.87,0.42,1.74,0.58,2.62
				c-0.18-1.84-0.17-1.66,0.05,0.53c0.24,3.6,0.33,7.19,0.38,10.8c0.12,8.14,0.24,16.81,2.93,24.57
				c5.66,16.3,19.08,30.81,37.58,30.15c9.4-0.33,18.45-8.04,18-18C595,394.25,587.5,385.36,577.42,385.72L577.42,385.72z"/>
		</g>
	</g>
</g>
</svg>
